{
.appVersion = "3133";
.formatVersion = 3;
axes = (
{
hidden = 1;
name = "Optical size";
tag = opsz;
}
);
customParameters = (
{
name = vendorID;
value = "CLT ";
},
{
name = panose;
value = (
0,
0,
0,
0,
0,
0,
0,
0,
0,
0
);
},
{
name = codePageRanges;
value = (
"1252",
"1250",
"1254",
"1257",
"bit 29"
);
},
{
name = glyphOrder;
value = (
.notdef,
space,
A,
Aacute,
Abreve,
Acircumflex,
Adieresis,
Agrave,
Amacron,
Aogonek,
Aring,
Atilde,
AE,
B,
C,
Cacute,
Ccaron,
Ccedilla,
D,
Eth,
Dcaron,
Dcroat,
E,
Eacute,
Ecaron,
Ecircumflex,
Edieresis,
Edotaccent,
Egrave,
Emacron,
Eogonek,
F,
G,
Gbreve,
uni0122,
H,
I,
Iacute,
Icircumflex,
Idieresis,
Idotaccent,
Igrave,
Imacron,
Iogonek,
J,
K,
uni0136,
L,
Lacute,
Lcaron,
uni013B,
Lslash,
M,
N,
Nacute,
Ncaron,
uni0145,
Ntilde,
O,
Oacute,
Ocircumflex,
Odieresis,
Ograve,
Ohungarumlaut,
Omacron,
Oslash,
Otilde,
OE,
P,
Thorn,
Q,
R,
Racute,
Rcaron,
uni0156,
S,
Sacute,
Scaron,
Scedilla,
uni0218,
uni1E9E,
T,
Tcaron,
uni0162,
uni021A,
U,
Uacute,
Ucircumflex,
Udieresis,
Ugrave,
Uhungarumlaut,
Umacron,
Uogonek,
Uring,
V,
W,
X,
Y,
Yacute,
Ycircumflex,
Ydieresis,
Z,
Zacute,
Zcaron,
Zdotaccent,
S.001,
a,
aacute,
abreve,
acircumflex,
adieresis,
agrave,
amacron,
aogonek,
aring,
atilde,
ae,
b,
c,
cacute,
ccaron,
ccedilla,
d,
eth,
dcaron,
dcroat,
e,
eacute,
ecaron,
ecircumflex,
edieresis,
edotaccent,
egrave,
emacron,
eogonek,
f,
g,
gbreve,
uni0123,
h,
i,
dotlessi,
iacute,
icircumflex,
idieresis,
i.loclTRK,
igrave,
imacron,
iogonek,
j,
uni0237,
k,
uni0137,
l,
lacute,
lcaron,
uni013C,
lslash,
m,
n,
nacute,
ncaron,
uni0146,
ntilde,
o,
oacute,
ocircumflex,
odieresis,
ograve,
ohungarumlaut,
omacron,
oslash,
otilde,
oe,
p,
thorn,
q,
r,
racute,
rcaron,
uni0157,
s,
sacute,
scaron,
scedilla,
uni0219,
germandbls,
t,
tcaron,
uni0163,
uni021B,
u,
uacute,
ucircumflex,
udieresis,
ugrave,
uhungarumlaut,
umacron,
uogonek,
uring,
v,
w,
x,
y,
yacute,
ycircumflex,
ydieresis,
z,
zacute,
zcaron,
zdotaccent,
f_i,
f_l,
ordfeminine,
ordmasculine,
zero,
one,
two,
three,

glyphs = (
{
glyphname = A;
kernLeft = A;
kernRight = A;
lastChange = "2022-04-09 17:02:39 +0000";
layers = (
{
anchors = (
{
name = bottom;
pos = (413,0);
},
{
name = ogonek;
pos = (799,10);
},
{
name = top;
pos = (388,700);
}
);
layerId = m01;
shapes = (
{
closed = 1;
nodes = (
(391,615,l),
(360,644,l),
(95,74,l),
(-50,1,l),
(-50,0,l),
(252,0,l),
(252,2,l),
(137,67,l)
);
},
{
closed = 1;
nodes = (
(557,269,l),
(192,269,l),
(178,238,l),
(572,238,l)
);
},
{
closed = 1;
nodes = (
(325,700,l),
(630,67,l),
(526,2,l),
(526,0,l),
(862,0,l),
(862,2,l),
(723,67,l),
(417,700,l)
);
}
);
userData = {
assembly = "NPUSHB[ ]	/* 46 values pushed */
18 2 2 4 0 13 10 2 1 2 2 76 5 1 4 0 2 1 4 2 103 0 0 0 17 77 3 1 1 1 21 1 78 17 17 17 19 17 19 34 19 34 19 6 7 26 
CALL[ ]	/* CallFunction */";
};
width = 822;
},
{
anchors = (
{
name = bottom;
pos = (480,0);
},
{
name = ogonek;
pos = (960,0);
},
{
name = top;
pos = (480,700);
}
);
layerId = "03DC8633-12B9-4C09-834B-15CC0827035A";
shapes = (
{
closed = 1;
nodes = (
(652,279,l),
(304,279,l),
(244,161,l),
(712,161,l)
);
},
{
closed = 1;
nodes = (
(778,0,l),
(960,0,l),
(575,700,l),
(383,700,l),
(0,0,l),
(178,0,l),
(478,578,l)
);
}
);
userData = {
assembly = "PUSHB[ ]	/* 6 values pushed */
2 1 0 1 1 76 
MPPEM[ ]	/* MeasurePixelPerEm */
PUSHB[ ]	/* 1 value pushed */
38 
LT[ ]	/* LessThan */
IF[ ]	/* If */
NPUSHB[ ]	/* 20 values pushed */
0 0 0 3 2 0 3 104 0 1 1 17 77 4 1 2 2 18 2 78 
ELSE[ ]	/* Else */
MPPEM[ ]	/* MeasurePixelPerEm */
PUSHB[ ]	/* 1 value pushed */
42 
LT[ ]	/* LessThan */
IF[ ]	/* If */
NPUSHB[ ]	/* 20 values pushed */
0 1 0 1 133 0 0 0 3 2 0 3 104 4 1 2 2 18 2 78 
ELSE[ ]	/* Else */
NPUSHB[ ]	/* 27 values pushed */
0 1 0 1 133 4 1 2 3 2 134 0 0 3 3 0 87 0 0 0 3 96 0 3 0 3 80 
EIF[ ]	/* EndIf */
EIF[ ]	/* EndIf */
PUSHB[ ]	/* 8 values pushed */
17 17 17 18 16 5 7 27 
CALL[ ]	/* CallFunction */";
};
width = 960;
}
);
note = A;
unicode = 65;
},
{
glyphname = AE;
kernRight = E;
lastChange = "2022-04-09 17:02:39 +0000";
layers = (
{
anchors = (
{
name = bottom;
pos = (-13,0);
}
);
layerId = m01;
shapes = (
{
closed = 1;
nodes = (
(621,637,l),
(590,662,l),
(95,74,l),
(-50,1,l),
(-50,0,l),
(265,0,l),
(265,2,l),
(150,67,l)
);
},
{
closed = 1;
nodes = (
(587,258,l),
(262,258,l),
(248,226,l),
(602,226,l)
);
},
{
closed = 1;
nodes = (
(570,62,l),
(462,3,l),
(462,0,l),
(1042,0,l),
(1081,-31,l),
(1083,-31,l),
(1196,256,l),
(1194,256,l),
(994,31,l),
(653,31,l),
(653,341,l),
(911,341,l),
(991,222,l),
(993,222,l),
(993,492,l),
(991,492,l),
(911,373,l),
(653,373,l),
(653,670,l),
(992,670,l),
(1172,491,l),
(1174,493,l),
(1071,720,l),
(1069,720,l),
(1025,700,l),
(467,700,l),
(467,698,l),
(570,638,l)
);
}
);
userData = {
assembly = "NPUSHB[ ]	/* 24 values pushed */
38 2 2 3 1 9 1 2 3 23 1 4 5 33 30 2 6 9 4 76 7 1 0 74 
MPPEM[ ]	/* MeasurePixelPerEm */
PUSHB[ ]	/* 1 value pushed */
42 
LT[ ]	/* LessThan */
IF[ ]	/* If */
NPUSHB[ ]	/* 54 values pushed */
0 7 8 7 134 0 2 0 5 4 2 5 103 12 1 11 0 9 6 11 9 103 0 1 1 0 95 0 0 0 19 77 0 4 4 3 95 0 3 3 20 77 0 6 6 8 95 10 1 8 8 21 8 78 
ELSE[ ]	/* Else */
NPUSHB[ ]	/* 52 values pushed */
0 7 8 7 134 0 2 0 5 4 2 5 103 0 3 0 4 11 3 4 103 12 1 11 0 9 6 11 9 103 0 1 1 0 95 0 0 0 19 77 0 6 6 8 95 10 1 8 8 21 8 78 
EIF[ ]	/* EndIf */
NPUSHB[ ]	/* 22 values pushed */
37 37 37 39 37 39 36 34 32 31 17 19 17 17 17 17 17 21 21 13 7 31 
CALL[ ]	/* CallFunction */";
};
width = 1206;
},
{
layerId = "03DC8633-12B9-4C09-834B-15CC0827035A";
shapes = (
{
closed = 1;
nodes = (
(706,279,l),
(292,279,l),
(232,161,l),
(766,161,l)
);
},
{
closed = 1;
nodes = (
(689,0,l),
(689,0,l),
(689,700,l),
(594,700,l),
(0,0,l),
(197,0,l),
(689,578,l)
);
},
{
closed = 1;
nodes = (
(687,0,l),
(1387,0,l),
(1387,140,l),
(862,140,l),
(862,291,l),
(1250,291,l),
(1250,431,l),
(862,431,l),
(862,560,l),
(1379,560,l),
(1379,700,l),
(687,700,l)
);
}
);
userData = {
assembly = "MPPEM[ ]	/* MeasurePixelPerEm */
PUSHB[ ]	/* 1 value pushed */
24 
LT[ ]	/* LessThan */
IF[ ]	/* If */
NPUSHB[ ]	/* 40 values pushed */
0 4 0 5 0 4 5 103 0 0 0 8 6 0 8 103 3 10 2 1 1 2 95 0 2 2 19 77 0 6 6 7 95 9 1 7 7 18 7 78 
ELSE[ ]	/* Else */
MPPEM[ ]	/* MeasurePixelPerEm */
PUSHB[ ]	/* 1 value pushed */
42 
LT[ ]	/* LessThan */
IF[ ]	/* If */
NPUSHB[ ]	/* 46 values pushed */
10 1 1 3 4 3 1 114 0 4 0 5 0 4 5 103 0 0 0 8 6 0 8 103 0 3 3 2 95 0 2 2 19 77 0 6 6 7 95 9 1 7 7 18 7 78 
ELSE[ ]	/* Else */
NPUSHB[ ]	/* 43 values pushed */
10 1 1 3 4 3 1 114 0 4 0 5 0 4 5 103 0 0 0 8 6 0 8 103 0 6 9 1 7 6 7 99 0 3 3 2 95 0 2 2 19 3 78 
EIF[ ]	/* EndIf */
EIF[ ]	/* EndIf */
NPUSHB[ ]	/* 26 values pushed */
0 0 19 18 17 16 15 14 13 12 11 10 9 8 7 6 5 4 0 3 0 3 17 11 7 23 
CALL[ ]	/* CallFunction */";
};
width = 1477;
},
{
associatedMasterId = "03DC8633-12B9-4C09-834B-15CC0827035A";
layerId = "CF4AAD94-A357-48E2-B32C-687C1FA4256A";
name = "21 feb 22, 14:43";
shapes = (
{
closed = 1;
nodes = (
(935,284,l),
(581,284,l),
(857,575,l),
(935,575,l),
(935,575,l)
);
},
{
closed = 1;
nodes = (
(310,0,l),
(458,156,l),
(935,156,l),
(935,0,l),
(1819,0,l),
(1819,150,l),
(1125,150,l),
(1125,320,l),
(1775,320,l),
(1775,449,l),
(1125,449,l),
(1125,585,l),
(1819,585,l),
(1819,734,l),
(775,734,l),
(75,0,l),
(75,0,l)
);
}
);
userData = {
assembly = "MPPEM[ ]	/* MeasurePixelPerEm */
PUSHB[ ]	/* 1 value pushed */
24 
LT[ ]	/* LessThan */
IF[ ]	/* If */
NPUSHB[ ]	/* 40 values pushed */
0 4 0 5 0 4 5 103 0 0 0 8 6 0 8 103 3 10 2 1 1 2 95 0 2 2 19 77 0 6 6 7 95 9 1 7 7 18 7 78 
ELSE[ ]	/* Else */
MPPEM[ ]	/* MeasurePixelPerEm */
PUSHB[ ]	/* 1 value pushed */
42 
LT[ ]	/* LessThan */
IF[ ]	/* If */
NPUSHB[ ]	/* 46 values pushed */
10 1 1 3 4 3 1 114 0 4 0 5 0 4 5 103 0 0 0 8 6 0 8 103 0 3 3 2 95 0 2 2 19 77 0 6 6 7 95 9 1 7 7 18 7 78 
ELSE[ ]	/* Else */
NPUSHB[ ]	/* 43 values pushed */
10 1 1 3 4 3 1 114 0 4 0 5 0 4 5 103 0 0 0 8 6 0 8 103 0 6 9 1 7 6 7 99 0 3 3 2 95 0 2 2 19 3 78 
EIF[ ]	/* EndIf */
EIF[ ]	/* EndIf */
NPUSHB[ ]	/* 26 values pushed */
0 0 19 18 17 16 15 14 13 12 11 10 9 8 7 6 5 4 0 3 0 3 17 11 7 23 
CALL[ ]	/* CallFunction */";
};
width = 1894;
}
);
metricLeft = A;
metricRight = E;
note = AE;
unicode = 198;
},
{
glyphname = B;
kernLeft = B;
kernRight = B;
lastChange = "2022-04-09 17:02:39 +0000";
layers = (
{
layerId = m01;
shapes = (
{
closed = 1;
nodes = (
(40,0,l),
(40,2,l),
(163,62,l),
(165,638,l),
(40,698,l),
(40,700,l),
(423,700,ls),
(630,700,o),
(715,645,o),
(715,525,cs),
(715,436,o),
(640,381,o),
(526,371,c),
(526,369,l),
(644,359,o),
(744,293,o),
(744,186,cs),
(744,57,o),
(632,0,o),
(423,0,cs)
);
},
{
closed = 1;
nodes = (
(423,32,ls),
(549,32,o),
(640,66,o),
(640,186,cs),
(640,314,o),
(519,354,o),
(433,354,cs),
(248,354,l),
(248,32,l)
);
},
{
closed = 1;
nodes = (
(433,386,ls),
(516,386,o),
(625,429,o),
(625,534,cs),
(625,635,o),
(565,671,o),
(423,671,cs),
(248,671,l),
(248,386,l)
);
}
);
userData = {
assembly = "NPUSHB[ ]	/* 10 values pushed */
17 1 6 5 18 1 4 3 2 76 
MPPEM[ ]	/* MeasurePixelPerEm */
PUSHB[ ]	/* 1 value pushed */
25 
LT[ ]	/* LessThan */
IF[ ]	/* If */
NPUSHB[ ]	/* 38 values pushed */
0 0 6 3 6 0 3 128 0 6 0 3 4 6 3 103 0 5 5 1 95 0 1 1 17 77 0 4 4 2 95 7 1 2 2 21 2 78 
ELSE[ ]	/* Else */
NPUSHB[ ]	/* 36 values pushed */
0 0 6 3 6 0 3 128 0 1 0 5 6 1 5 103 0 6 0 3 4 6 3 103 0 4 4 2 95 7 1 2 2 21 2 78 
EIF[ ]	/* EndIf */
NPUSHB[ ]	/* 19 values pushed */
0 0 43 41 35 33 32 30 24 22 0 21 0 19 37 53 8 7 24 
CALL[ ]	/* CallFunction */";
};
width = 802;
},
{
layerId = "03DC8633-12B9-4C09-834B-15CC0827035A";
shapes = (
{
closed = 1;
nodes = (
(101,0,l),
(100,700,l),
(611,700,ls),
(788,700,o),
(875,640,o),
(875,526,cs),
(875,446,o),
(850,384,o),
(719,358,c),
(850,334,o),
(906,279,o),
(906,191,cs),
(906,64,o),
(804,0,o),
(537,0,cs)
);
},
{
closed = 1;
nodes = (
(591,413,ls),
(662,413,o),
(696,444,o),
(696,496,cs),
(696,547,o),
(663,570,o),
(591,570,cs),
(272,570,l),
(272,413,l)
);
},
{
closed = 1;
nodes = (
(581,140,ls),
(672,140,o),
(717,172,o),
(717,228,cs),
(717,283,o),
(672,311,o),
(581,311,cs),
(273,311,l),
(273,140,l)
);
}
);
userData = {
assembly = "PUSHB[ ]	/* 6 values pushed */
5 1 4 3 1 76 
MPPEM[ ]	/* MeasurePixelPerEm */
PUSHB[ ]	/* 1 value pushed */
38 
LT[ ]	/* LessThan */
IF[ ]	/* If */
NPUSHB[ ]	/* 30 values pushed */
0 3 0 4 5 3 4 103 0 2 2 0 95 0 0 0 17 77 0 5 5 1 95 6 1 1 1 18 1 78 
ELSE[ ]	/* Else */
MPPEM[ ]	/* MeasurePixelPerEm */
PUSHB[ ]	/* 1 value pushed */
42 
LT[ ]	/* LessThan */
IF[ ]	/* If */
NPUSHB[ ]	/* 28 values pushed */
0 0 0 2 3 0 2 103 0 3 0 4 5 3 4 103 0 5 5 1 95 6 1 1 1 18 1 78 
ELSE[ ]	/* Else */
NPUSHB[ ]	/* 33 values pushed */
0 0 0 2 3 0 2 103 0 3 0 4 5 3 4 103 0 5 1 1 5 87 0 5 5 1 95 6 1 1 5 1 79 
EIF[ ]	/* EndIf */
EIF[ ]	/* EndIf */
NPUSHB[ ]	/* 18 values pushed */
0 0 31 29 26 24 23 21 17 15 0 14 0 13 42 7 7 23 
CALL[ ]	/* CallFunction */";
};
width = 986;
},
{
associatedMasterId = m01;
layerId = "629DC46D-F0E8-43FA-AE91-5458410DB302";
name = "11 feb 22, 17:44";
shapes = (
{
closed = 1;
nodes = (
(35,0,l),
(35,2,l),
(158,62,l),
(160,588,l),
(35,648,l),
(35,650,l),
(379,650,ls),
(520,650,o),
(750,659,o),
(750,492,cs),
(750,401,o),
(694,339,o),
(558,339,c),
(558,337,l),
(727,337,o),
(774,273,o),
(774,182,cs),
(774,-6,o),
(539,0,o),
(377,0,cs)
);
},
{
closed = 1;
nodes = (
(349,28,ls),
(575,28,o),
(670,61,o),
(670,176,cs),
(670,291,o),
(575,324,o),
(349,324,cs),
(245,324,l),
(245,28,l)
);
},
{
closed = 1;
nodes = (
(349,352,ls),
(471,352,o),
(660,349,o),
(660,487,cs),
(660,629,o),
(469,624,o),
(349,624,cs),
(245,624,l),
(245,352,l)
);
}
);
userData = {
assembly = "NPUSHB[ ]	/* 10 values pushed */
17 1 6 5 18 1 4 3 2 76 
MPPEM[ ]	/* MeasurePixelPerEm */
PUSHB[ ]	/* 1 value pushed */
25 
LT[ ]	/* LessThan */
IF[ ]	/* If */
NPUSHB[ ]	/* 38 values pushed */
0 0 6 3 6 0 3 128 0 6 0 3 4 6 3 103 0 5 5 1 95 0 1 1 17 77 0 4 4 2 95 7 1 2 2 21 2 78 
ELSE[ ]	/* Else */
NPUSHB[ ]	/* 36 values pushed */
0 0 6 3 6 0 3 128 0 1 0 5 6 1 5 103 0 6 0 3 4 6 3 103 0 4 4 2 95 7 1 2 2 21 2 78 
EIF[ ]	/* EndIf */
NPUSHB[ ]	/* 19 values pushed */
0 0 43 41 35 33 32 30 24 22 0 21 0 19 37 53 8 7 24 
CALL[ ]	/* CallFunction */";
};
width = 804;
}
);
metricLeft = H;
note = B;
unicode = 66;
},
{
glyphname = C;
kernLeft = C;
kernRight = C;
lastChange = "2022-04-09 17:02:39 +0000";
layers = (
{
anchors = (
{
name = bottom;
pos = (440,0);
},
{
name = top;
pos = (430,700);
}
);
layerId = m01;
shapes = (
{
closed = 1;
nodes = (
(276,25,o),
(154,140,o),
(154,350,cs),
(154,560,o),
(270,680,o),
(430,680,cs),
(563,680,o),
(668,620,o),
(761,402,c),
(764,403,l),
(706,697,l),
(704,697,l),
(659,634,l),
(598,686,o),
(528,715,o),
(427,715,cs),
(222,715,o),
(54,575,o),
(54,354,cs),
(54,125,o),
(232,-15,o),
(439,-15,cs),
(594,-15,o),
(714,70,o),
(770,207,c),
(736,221,l),
(682,101,o),
(592,25,o),
(449,25,cs)
);
}
);
userData = {
assembly = "NPUSHB[ ]	/* 41 values pushed */
15 1 2 1 33 32 17 14 4 3 2 2 76 0 2 2 1 97 0 1 1 17 77 0 3 3 0 97 0 0 0 27 0 78 38 40 38 34 4 7 26 
CALL[ ]	/* CallFunction */";
};
width = 819;
},
{
anchors = (
{
name = bottom;
pos = (516,-15);
},
{
name = top;
pos = (439,700);
}
);
layerId = "03DC8633-12B9-4C09-834B-15CC0827035A";
shapes = (
{
closed = 1;
nodes = (
(837,629,l),
(744,681,o),
(628,715,o),
(496,715,cs),
(269,715,o),
(50,584,o),
(50,353,cs),
(50,109,o),
(269,-15,o),
(516,-15,cs),
(654,-15,o),
(761,17,o),
(834,63,c),
(761,191,l),
(702,148,o),
(633,125,o),
(518,125,cs),
(341,125,o),
(235,200,o),
(235,353,cs),
(235,496,o),
(344,575,o),
(518,575,cs),
(613,575,o),
(688,550,o),
(761,499,c)
);
}
);
userData = {
assembly = "NPUSHB[ ]	/* 15 values pushed */
24 1 0 3 25 10 2 1 0 11 1 2 1 3 76 
MPPEM[ ]	/* MeasurePixelPerEm */
PUSHB[ ]	/* 1 value pushed */
38 
LT[ ]	/* LessThan */
IF[ ]	/* If */
NPUSHB[ ]	/* 21 values pushed */
0 0 0 3 97 0 3 3 23 77 0 1 1 2 97 0 2 2 24 2 78 
ELSE[ ]	/* Else */
MPPEM[ ]	/* MeasurePixelPerEm */
PUSHB[ ]	/* 1 value pushed */
42 
LT[ ]	/* LessThan */
IF[ ]	/* If */
NPUSHB[ ]	/* 21 values pushed */
0 0 0 3 97 0 3 3 19 77 0 1 1 2 97 0 2 2 24 2 78 
ELSE[ ]	/* Else */
MPPEM[ ]	/* MeasurePixelPerEm */
PUSHB[ ]	/* 1 value pushed */
49 
LT[ ]	/* LessThan */
IF[ ]	/* If */
NPUSHB[ ]	/* 18 values pushed */
0 1 0 2 1 2 101 0 0 0 3 97 0 3 3 19 0 78 
ELSE[ ]	/* Else */
NPUSHB[ ]	/* 24 values pushed */
0 3 0 0 1 3 0 105 0 1 2 2 1 89 0 1 1 2 97 0 2 1 2 81 
EIF[ ]	/* EndIf */
EIF[ ]	/* EndIf */
EIF[ ]	/* EndIf */
PUSHB[ ]	/* 7 values pushed */
38 36 36 32 4 7 26 
CALL[ ]	/* CallFunction */";
};
width = 882;
},
{
associatedMasterId = m01;
layerId = "05268723-59E2-4209-B190-C8C69F2B015C";
name = "11 feb 22, 17:54";
shapes = (
{
closed = 1;
nodes = (
(695,217,l),
(647,97,o),
(540.333,26,o),
(415,26,cs),
(252.545,26,o),
(130,151.73,o),
(130,321,cs),
(130,496,o),
(218,639,o),
(398,639,cs),
(523.333,639,o),
(618.667,574,o),
(712,406,c),
(715,407,l),
(657,651,l),
(655,651,l),
(610,588,l),
(548.667,640,o),
(469.333,669,o),
(380,669,cs),
(183,669,o),
(20,514,o),
(20,321,cs),
(20,142,o),
(181,-17,o),
(388,-17,cs),
(543.328,-17,o),
(675.064,68.104,o),
(722,205,c)
);
}
);
userData = {
assembly = "NPUSHB[ ]	/* 41 values pushed */
15 1 2 1 33 32 17 14 4 3 2 2 76 0 2 2 1 97 0 1 1 17 77 0 3 3 0 97 0 0 0 27 0 78 38 40 38 34 4 7 26 
CALL[ ]	/* CallFunction */";
};
width = 732;
}
);
metricLeft = "=O";
metricRight = "=O-5";
note = C;
unicode = 67;
},
{
glyphname = D;
kernLeft = D;
kernRight = D;
lastChange = "2022-04-09 17:02:39 +0000";
layers = (
{
anchors = (
{
name = bottom;
pos = (420,0);
},
{
name = center;
pos = (420,350);
},
{
name = top;
pos = (420,700);
}
);
layerId = m01;
shapes = (
{
closed = 1;
nodes = (
(40,0,l),
(40,2,l),
(168,74,l),
(169,625,l),
(40,698,l),
(40,700,l),
(393,700,ls),
(608,700,o),
(787,575,o),
(787,364,cs),
(787,134,o),
(604,0,o),
(393,0,cs)
);
},
{
closed = 1;
nodes = (
(413,29,ls),
(548,29,o),
(687,143,o),
(687,364,cs),
(687,565,o),
(549,672,o),
(413,672,cs),
(252,672,l),
(252,29,l)
);
}
);
userData = {
assembly = "PUSHB[ ]	/* 7 values pushed */
11 10 2 3 2 1 76 
MPPEM[ ]	/* MeasurePixelPerEm */
PUSHB[ ]	/* 1 value pushed */
25 
LT[ ]	/* LessThan */
IF[ ]	/* If */
NPUSHB[ ]	/* 22 values pushed */
0 2 2 0 95 0 0 0 17 77 0 3 3 1 95 4 1 1 1 21 1 78 
ELSE[ ]	/* Else */
NPUSHB[ ]	/* 20 values pushed */
0 0 0 2 3 0 2 103 0 3 3 1 95 4 1 1 1 21 1 78 
EIF[ ]	/* EndIf */
NPUSHB[ ]	/* 14 values pushed */
0 0 23 21 17 15 0 14 0 12 38 5 7 23 
CALL[ ]	/* CallFunction */";
};
width = 841;
},
{
anchors = (
{
name = bottom;
pos = (512,0);
},
{
name = center;
pos = (512,350);
},
{
name = top;
pos = (472,700);
}
);
layerId = "03DC8633-12B9-4C09-834B-15CC0827035A";
shapes = (
{
closed = 1;
nodes = (
(811,0,o),
(973,136,o),
(973,357,cs),
(973,570,o),
(812,700,o),
(491,700,cs),
(100,700,l),
(100,0,l),
(491,0,ls)
);
},
{
closed = 1;
nodes = (
(272,570,l),
(491,570,ls),
(696,570,o),
(786,512,o),
(786,354,cs),
(786,194,o),
(696,134,o),
(491,134,cs),
(272,134,l)
);
}
);
userData = {
assembly = "MPPEM[ ]	/* MeasurePixelPerEm */
PUSHB[ ]	/* 1 value pushed */
38 
LT[ ]	/* LessThan */
IF[ ]	/* If */
NPUSHB[ ]	/* 22 values pushed */
0 2 2 0 95 0 0 0 17 77 0 3 3 1 95 4 1 1 1 18 1 78 
ELSE[ ]	/* Else */
MPPEM[ ]	/* MeasurePixelPerEm */
PUSHB[ ]	/* 1 value pushed */
42 
LT[ ]	/* LessThan */
IF[ ]	/* If */
NPUSHB[ ]	/* 20 values pushed */
0 0 0 2 3 0 2 103 0 3 3 1 95 4 1 1 1 18 1 78 
ELSE[ ]	/* Else */
NPUSHB[ ]	/* 25 values pushed */
0 0 0 2 3 0 2 103 0 3 1 1 3 87 0 3 3 1 95 4 1 1 3 1 79 
EIF[ ]	/* EndIf */
EIF[ ]	/* EndIf */
NPUSHB[ ]	/* 14 values pushed */
0 0 21 19 13 11 0 10 0 9 38 5 7 23 
CALL[ ]	/* CallFunction */";
};
width = 1023;
},
{
associatedMasterId = m01;
layerId = "73B7196C-D13D-4E07-8CD8-6DA40023D8B9";
name = "11 feb 22, 17:45";
shapes = (
{
closed = 1;
nodes = (
(35,0,l),
(35,2,l),
(163,74,l),
(164,575,l),
(35,648,l),
(35,650,l),
(374,650,ls),
(648.517,650,o),
(815,531.793,o),
(815,325,cs),
(815,122.977,o),
(645.412,0,o),
(374,0,cs)
);
},
{
closed = 1;
nodes = (
(394,24,ls),
(588.667,24,o),
(698,131.667,o),
(698,325,cs),
(698,522.333,o),
(590,627,o),
(394,627,cs),
(243,627,l),
(243,24,l)
);
}
);
userData = {
assembly = "PUSHB[ ]	/* 7 values pushed */
11 10 2 3 2 1 76 
MPPEM[ ]	/* MeasurePixelPerEm */
PUSHB[ ]	/* 1 value pushed */
25 
LT[ ]	/* LessThan */
IF[ ]	/* If */
NPUSHB[ ]	/* 22 values pushed */
0 2 2 0 95 0 0 0 17 77 0 3 3 1 95 4 1 1 1 21 1 78 
ELSE[ ]	/* Else */
NPUSHB[ ]	/* 20 values pushed */
0 0 0 2 3 0 2 103 0 3 3 1 95 4 1 1 1 21 1 78 
EIF[ ]	/* EndIf */
NPUSHB[ ]	/* 14 values pushed */
0 0 23 21 17 15 0 14 0 12 38 5 7 23 
CALL[ ]	/* CallFunction */";
};
width = 835;
}
);
metricLeft = H;
metricRight = "=O";
note = D;
unicode = 68;
},
{
glyphname = Eth;
kernLeft = D;
kernRight = D;
lastChange = "2022-04-09 17:02:39 +0000";
layers = (
{
layerId = m01;
shapes = (
{
closed = 1;
nodes = (
(35,338,l),
(35,363,l),
(347,363,l),
(347,338,l)
);
},
{
pos = (-20,0);
ref = D;
}
);
userData = {
assembly = "NPUSHB[ ]	/* 10 values pushed */
16 1 4 7 2 1 8 0 2 76 
MPPEM[ ]	/* MeasurePixelPerEm */
PUSHB[ ]	/* 1 value pushed */
25 
LT[ ]	/* LessThan */
IF[ ]	/* If */
NPUSHB[ ]	/* 32 values pushed */
6 1 4 5 3 2 0 8 4 0 103 0 7 7 2 95 0 2 2 17 77 0 8 8 1 95 0 1 1 21 1 78 
ELSE[ ]	/* Else */
NPUSHB[ ]	/* 30 values pushed */
0 2 0 7 4 2 7 103 6 1 4 5 3 2 0 8 4 0 103 0 8 8 1 95 0 1 1 21 1 78 
EIF[ ]	/* EndIf */
NPUSHB[ ]	/* 12 values pushed */
36 33 17 17 17 19 38 50 16 9 7 31 
CALL[ ]	/* CallFunction */";
};
width = 821;
},
{
layerId = "03DC8633-12B9-4C09-834B-15CC0827035A";
shapes = (
{
pos = (105,0);
ref = D;
},
{
closed = 1;
nodes = (
(542,404,l),
(80,404,l),
(80,277,l),
(542,277,l)
);
}
);
width = 1128;
}
);
metricLeft = "=D-20";
metricRight = D;
note = Eth;
unicode = 208;
},
{
glyphname = Dcroat;
kernLeft = D;
kernRight = D;
lastChange = "2022-04-09 17:03:02 +0000";
layers = (
{
layerId = m01;
shapes = (
{
closed = 1;
nodes = (
(45,308,l),
(45,333,l),
(357,333,l),
(357,308,l)
);
},
{
ref = D;
}
);
userData = {
assembly = "NPUSHB[ ]	/* 10 values pushed */
16 1 4 7 2 1 8 0 2 76 
MPPEM[ ]	/* MeasurePixelPerEm */
PUSHB[ ]	/* 1 value pushed */
25 
LT[ ]	/* LessThan */
IF[ ]	/* If */
NPUSHB[ ]	/* 32 values pushed */
6 1 4 5 3 2 0 8 4 0 103 0 7 7 2 95 0 2 2 17 77 0 8 8 1 95 0 1 1 21 1 78 
ELSE[ ]	/* Else */
NPUSHB[ ]	/* 30 values pushed */
0 2 0 7 4 2 7 103 6 1 4 5 3 2 0 8 4 0 103 0 8 8 1 95 0 1 1 21 1 78 
EIF[ ]	/* EndIf */
NPUSHB[ ]	/* 12 values pushed */
36 33 17 17 17 19 38 50 16 9 7 31 
CALL[ ]	/* CallFunction */";
};
width = 841;
},
{
layerId = "03DC8633-12B9-4C09-834B-15CC0827035A";
shapes = (
{
ref = Eth;
}
);
width = 1128;
}
);
metricLeft = D;
metricRight = D;
note = Dcroat;
unicode = 272;
},
{
glyphname = E;
kernLeft = E;
kernRight = E;
lastChange = "2022-04-09 17:02:39 +0000";
layers = (
{
anchors = (
{
name = bottom;
pos = (394,0);
},
{
name = ogonek;
pos = (620,0);
},
{
name = top;
pos = (394,700);
},
{
name = topleft;
pos = (23,700);
}
);
layerId = m01;
shapes = (
{
closed = 1;
nodes = (
(148,62,l),
(40,3,l),
(40,0,l),
(620,0,l),
(659,-31,l),
(661,-31,l),
(774,256,l),
(772,256,l),
(572,31,l),
(231,31,l),
(231,341,l),
(489,341,l),
(569,222,l),
(571,222,l),
(571,492,l),
(569,492,l),
(489,373,l),
(231,373,l),
(231,670,l),
(570,670,l),
(750,491,l),
(752,493,l),
(649,720,l),
(647,720,l),
(603,700,l),
(45,700,l),
(45,698,l),
(148,638,l)
);
}
);
userData = {
assembly = "NPUSHB[ ]	/* 22 values pushed */
27 11 5 3 2 1 26 19 13 3 4 3 2 76 3 1 0 74 21 1 5 73 
MPPEM[ ]	/* MeasurePixelPerEm */
PUSHB[ ]	/* 1 value pushed */
25 
LT[ ]	/* LessThan */
IF[ ]	/* If */
NPUSHB[ ]	/* 29 values pushed */
0 2 0 3 4 2 3 103 0 1 1 0 95 0 0 0 17 77 0 4 4 5 95 0 5 5 21 5 78 
ELSE[ ]	/* Else */
NPUSHB[ ]	/* 27 values pushed */
0 0 0 1 2 0 1 103 0 2 0 3 4 2 3 103 0 4 4 5 95 0 5 5 21 5 78 
EIF[ ]	/* EndIf */
NPUSHB[ ]	/* 9 values pushed */
21 17 21 17 21 32 6 7 28 
CALL[ ]	/* CallFunction */";
};
width = 784;
},
{
anchors = (
{
name = bottom;
pos = (515,0);
},
{
name = ogonek;
pos = (910,10);
},
{
name = top;
pos = (515,700);
},
{
name = topleft;
pos = (40,700);
}
);
layerId = "03DC8633-12B9-4C09-834B-15CC0827035A";
shapes = (
{
closed = 1;
nodes = (
(100,0,l),
(919,0,l),
(919,140,l),
(274,140,l),
(274,291,l),
(782,291,l),
(782,431,l),
(274,431,l),
(274,560,l),
(911,560,l),
(911,700,l),
(100,700,l)
);
}
);
userData = {
assembly = "MPPEM[ ]	/* MeasurePixelPerEm */
PUSHB[ ]	/* 1 value pushed */
38 
LT[ ]	/* LessThan */
IF[ ]	/* If */
NPUSHB[ ]	/* 30 values pushed */
0 1 0 2 3 1 2 103 0 0 0 5 95 6 1 5 5 17 77 0 3 3 4 95 0 4 4 18 4 78 
ELSE[ ]	/* Else */
MPPEM[ ]	/* MeasurePixelPerEm */
PUSHB[ ]	/* 1 value pushed */
42 
LT[ ]	/* LessThan */
IF[ ]	/* If */
NPUSHB[ ]	/* 28 values pushed */
6 1 5 0 0 1 5 0 103 0 1 0 2 3 1 2 103 0 3 3 4 95 0 4 4 18 4 78 
ELSE[ ]	/* Else */
NPUSHB[ ]	/* 33 values pushed */
6 1 5 0 0 1 5 0 103 0 1 0 2 3 1 2 103 0 3 4 4 3 87 0 3 3 4 95 0 4 3 4 79 
EIF[ ]	/* EndIf */
EIF[ ]	/* EndIf */
NPUSHB[ ]	/* 14 values pushed */
0 0 0 11 0 11 17 17 17 17 17 7 7 27 
CALL[ ]	/* CallFunction */";
};
width = 1009;
}
);
metricLeft = H;
note = E;
unicode = 69;
},
{
glyphname = F;
kernLeft = F;
kernRight = F;
lastChange = "2022-04-09 17:02:39 +0000";
layers = (
{
layerId = m01;
shapes = (
{
closed = 1;
nodes = (
(148,73,l),
(40,3,l),
(40,0,l),
(381,0,l),
(381,3,l),
(231,73,l),
(231,331,l),
(489,331,l),
(569,209,l),
(571,209,l),
(571,480,l),
(569,480,l),
(489,363,l),
(231,363,l),
(231,669,l),
(580,669,l),
(740,491,l),
(742,493,l),
(639,720,l),
(637,720,l),
(593,700,l),
(45,700,l),
(45,698,l),
(148,638,l)
);
}
);
userData = {
assembly = "NPUSHB[ ]	/* 18 values pushed */
23 11 5 3 2 1 22 17 13 3 4 3 2 76 3 1 0 74 
MPPEM[ ]	/* MeasurePixelPerEm */
PUSHB[ ]	/* 1 value pushed */
25 
LT[ ]	/* LessThan */
IF[ ]	/* If */
NPUSHB[ ]	/* 24 values pushed */
0 2 0 3 4 2 3 103 0 1 1 0 95 0 0 0 17 77 0 4 4 21 4 78 
ELSE[ ]	/* Else */
NPUSHB[ ]	/* 22 values pushed */
0 0 0 1 2 0 1 103 0 2 0 3 4 2 3 103 0 4 4 21 4 78 
EIF[ ]	/* EndIf */
PUSHB[ ]	/* 8 values pushed */
34 21 17 21 32 5 7 27 
CALL[ ]	/* CallFunction */";
};
width = 762;
},
{
layerId = "03DC8633-12B9-4C09-834B-15CC0827035A";
shapes = (
{
closed = 1;
nodes = (
(100,0,l),
(274,0,l),
(274,271,l),
(742,271,l),
(742,411,l),
(274,411,l),
(274,560,l),
(891,560,l),
(891,700,l),
(100,700,l)
);
}
);
userData = {
assembly = "MPPEM[ ]	/* MeasurePixelPerEm */
PUSHB[ ]	/* 1 value pushed */
38 
LT[ ]	/* LessThan */
IF[ ]	/* If */
NPUSHB[ ]	/* 25 values pushed */
0 1 0 2 3 1 2 103 0 0 0 4 95 5 1 4 4 17 77 0 3 3 18 3 78 
ELSE[ ]	/* Else */
MPPEM[ ]	/* MeasurePixelPerEm */
PUSHB[ ]	/* 1 value pushed */
42 
LT[ ]	/* LessThan */
IF[ ]	/* If */
NPUSHB[ ]	/* 23 values pushed */
5 1 4 0 0 1 4 0 103 0 1 0 2 3 1 2 103 0 3 3 18 3 78 
ELSE[ ]	/* Else */
NPUSHB[ ]	/* 30 values pushed */
0 3 2 3 134 5 1 4 0 0 1 4 0 103 0 1 2 2 1 87 0 1 1 2 95 0 2 1 2 79 
EIF[ ]	/* EndIf */
EIF[ ]	/* EndIf */
NPUSHB[ ]	/* 13 values pushed */
0 0 0 9 0 9 17 17 17 17 6 7 26 
CALL[ ]	/* CallFunction */";
};
width = 981;
}
);
metricLeft = H;
note = F;
unicode = 70;
},
{
glyphname = G;
kernLeft = C;
kernRight = C;
lastChange = "2022-04-09 17:02:39 +0000";
layers = (
{
anchors = (
{
name = bottom;
pos = (431,0);
},
{
name = top;
pos = (431,650);
}
);
layerId = m01;
shapes = (
{
closed = 1;
nodes = (
(749,3,l),
(751,3,l),
(751,290,l),
(829,344,l),
(460,344,l),
(460,342,l),
(661,290,l),
(661,123,l),
(606,64,o),
(540,24,o),
(448,24,cs),
(275,24,o),
(154,139,o),
(154,354,cs),
(154,557,o),
(274,681,o),
(434,681,cs),
(564,681,o),
(668,620,o),
(761,452,c),
(764,453,l),
(710,697,l),
(708,697,l),
(659,634,l),
(598,686,o),
(528,715,o),
(427,715,cs),
(232,715,o),
(54,572,o),
(54,352,cs),
(54,124,o),
(232,-15,o),
(434,-15,cs),
(533,-15,o),
(614,24,o),
(700,109,c)
);
}
);
userData = {
assembly = "NPUSHB[ ]	/* 59 values pushed */
19 1 2 1 21 18 2 4 2 37 36 4 1 4 3 4 2 1 0 3 4 76 0 4 2 3 2 4 3 128 0 2 2 1 97 0 1 1 17 77 0 3 3 0 97 0 0 0 27 0 78 36 38 40 38 38 5 7 27 
CALL[ ]	/* CallFunction */";
};
width = 873;
},
{
anchors = (
{
name = bottom;
pos = (516,0);
},
{
name = top;
pos = (476,700);
}
);
layerId = "03DC8633-12B9-4C09-834B-15CC0827035A";
shapes = (
{
closed = 1;
nodes = (
(911,381,l),
(561,381,l),
(561,261,l),
(771,261,l),
(771,187,l),
(730,144,o),
(633,123,o),
(524,123,cs),
(333,123,o),
(235,215,o),
(235,359,cs),
(235,519,o),
(386,580,o),
(543,580,cs),
(651,580,o),
(741,559,o),
(808,502,c),
(883,634,l),
(811,681,o),
(665,720,o),
(524,720,cs),
(274,720,o),
(50,599,o),
(50,354,cs),
(50,134,o),
(228,-17,o),
(514,-17,cs),
(683,-17,o),
(799,16,o),
(911,105,c)
);
}
);
userData = {
assembly = "NPUSHB[ ]	/* 18 values pushed */
13 1 2 1 14 1 5 2 27 1 3 4 32 1 0 3 4 76 
MPPEM[ ]	/* MeasurePixelPerEm */
PUSHB[ ]	/* 1 value pushed */
38 
LT[ ]	/* LessThan */
IF[ ]	/* If */
NPUSHB[ ]	/* 29 values pushed */
0 5 0 4 3 5 4 103 0 2 2 1 97 0 1 1 23 77 0 3 3 0 97 0 0 0 24 0 78 
ELSE[ ]	/* Else */
MPPEM[ ]	/* MeasurePixelPerEm */
PUSHB[ ]	/* 1 value pushed */
42 
LT[ ]	/* LessThan */
IF[ ]	/* If */
NPUSHB[ ]	/* 29 values pushed */
0 5 0 4 3 5 4 103 0 2 2 1 97 0 1 1 19 77 0 3 3 0 97 0 0 0 24 0 78 
ELSE[ ]	/* Else */
MPPEM[ ]	/* MeasurePixelPerEm */
PUSHB[ ]	/* 1 value pushed */
49 
LT[ ]	/* LessThan */
IF[ ]	/* If */
NPUSHB[ ]	/* 26 values pushed */
0 5 0 4 3 5 4 103 0 3 0 0 3 0 101 0 2 2 1 97 0 1 1 19 2 78 
ELSE[ ]	/* Else */
NPUSHB[ ]	/* 32 values pushed */
0 1 0 2 5 1 2 105 0 5 0 4 3 5 4 103 0 3 0 0 3 89 0 3 3 0 97 0 0 3 0 81 
EIF[ ]	/* EndIf */
EIF[ ]	/* EndIf */
EIF[ ]	/* EndIf */
NPUSHB[ ]	/* 9 values pushed */
17 19 37 37 38 33 6 7 28 
CALL[ ]	/* CallFunction */";
};
width = 951;
},
{
associatedMasterId = m01;
layerId = "B1471268-6B0D-4B4E-AE6E-04908D48F334";
name = "11 feb 22, 18:06";
shapes = (
{
closed = 1;
nodes = (
(420,334,l),
(420,332,l),
(641,272,l),
(641,120,l),
(581,58.667,o),
(500.333,22,o),
(415,22,cs),
(242,22,o),
(131,160,o),
(131,333,cs),
(131,508,o),
(219,639,o),
(396,639,cs),
(520,639,o),
(622.333,575.333,o),
(713,406,c),
(715,408,l),
(657,650,l),
(655,650,l),
(610,588,l),
(552.667,634.667,o),
(472,669,o),
(376,669,cs),
(173,669,o),
(20,501,o),
(20,312,cs),
(20,118,o),
(198,-14,o),
(392,-14,cs),
(518.667,-14,o),
(614.667,41.333,o),
(680,120,c),
(729,3,l),
(731,3,l),
(731,272,l),
(809,334,l)
);
}
);
userData = {
assembly = "NPUSHB[ ]	/* 59 values pushed */
19 1 2 1 21 18 2 4 2 37 36 4 1 4 3 4 2 1 0 3 4 76 0 4 2 3 2 4 3 128 0 2 2 1 97 0 1 1 17 77 0 3 3 0 97 0 0 0 27 0 78 36 38 40 38 38 5 7 27 
CALL[ ]	/* CallFunction */";
};
width = 819;
}
);
metricLeft = "=O";
metricRight = "=O-10";
note = G;
unicode = 71;
},
{
glyphname = H;
kernLeft = H;
kernRight = H;
lastChange = "2022-04-09 17:02:39 +0000";
layers = (
{
layerId = m01;
shapes = (
{
closed = 1;
nodes = (
(708,72,l),
(598,4,l),
(598,0,l),
(899,0,l),
(899,4,l),
(791,72,l),
(791,628,l),
(899,699,l),
(899,700,l),
(598,700,l),
(598,699,l),
(708,628,l)
);
},
{
closed = 1;
nodes = (
(233,628,l),
(341,696,l),
(341,700,l),
(40,700,l),
(40,696,l),
(150,628,l),
(150,72,l),
(40,4,l),
(40,0,l),
(341,0,l),
(341,4,l),
(233,72,l)
);
},
{
closed = 1;
nodes = (
(715,381,l),
(226,381,l),
(226,349,l),
(715,349,l)
);
}
);
userData = {
assembly = "NPUSHB[ ]	/* 16 values pushed */
25 10 5 2 4 0 1 24 19 16 11 4 2 3 2 76 
MPPEM[ ]	/* MeasurePixelPerEm */
PUSHB[ ]	/* 1 value pushed */
23 
LT[ ]	/* LessThan */
IF[ ]	/* If */
NPUSHB[ ]	/* 22 values pushed */
0 0 0 3 2 0 3 103 6 5 2 1 1 17 77 4 1 2 2 21 2 78 
ELSE[ ]	/* Else */
NPUSHB[ ]	/* 22 values pushed */
6 5 2 1 0 1 133 0 0 0 3 2 0 3 103 4 1 2 2 21 2 78 
EIF[ ]	/* EndIf */
NPUSHB[ ]	/* 14 values pushed */
0 0 0 27 0 26 34 19 36 34 19 7 7 27 
CALL[ ]	/* CallFunction */";
};
width = 939;
},
{
layerId = "03DC8633-12B9-4C09-834B-15CC0827035A";
shapes = (
{
closed = 1;
nodes = (
(100,0,l),
(274,0,l),
(274,295,l),
(769,295,l),
(769,0,l),
(943,0,l),
(943,700,l),
(769,700,l),
(769,435,l),
(274,435,l),
(274,700,l),
(100,700,l)
);
}
);
userData = {
assembly = "MPPEM[ ]	/* MeasurePixelPerEm */
PUSHB[ ]	/* 1 value pushed */
38 
LT[ ]	/* LessThan */
IF[ ]	/* If */
NPUSHB[ ]	/* 22 values pushed */
0 0 0 3 2 0 3 103 6 5 2 1 1 17 77 4 1 2 2 18 2 78 
ELSE[ ]	/* Else */
MPPEM[ ]	/* MeasurePixelPerEm */
PUSHB[ ]	/* 1 value pushed */
42 
LT[ ]	/* LessThan */
IF[ ]	/* If */
NPUSHB[ ]	/* 22 values pushed */
0 0 0 3 2 0 3 103 6 5 2 1 1 2 95 4 1 2 2 18 2 78 
ELSE[ ]	/* Else */
NPUSHB[ ]	/* 29 values pushed */
6 5 2 1 0 2 1 87 0 0 0 3 2 0 3 103 6 5 2 1 1 2 95 4 1 2 1 2 79 
EIF[ ]	/* EndIf */
EIF[ ]	/* EndIf */
NPUSHB[ ]	/* 14 values pushed */
0 0 0 11 0 11 17 17 17 17 17 7 7 27 
CALL[ ]	/* CallFunction */";
};
width = 1043;
}
);
note = H;
unicode = 72;
},
{
glyphname = I;
kernLeft = I;
kernRight = I;
lastChange = "2022-04-09 17:02:39 +0000";
layers = (
{
anchors = (
{
name = bottom;
pos = (216,0);
},
{
name = ogonek;
pos = (391,0);
},
{
name = top;
pos = (216,700);
},
{
name = topleft;
pos = (18,700);
}
);
layerId = m01;
metricLeft = "=H";
metricRight = "=H";
shapes = (
{
closed = 1;
nodes = (
(176,628,l),
(176,72,l),
(40,2,l),
(40,0,l),
(392,0,l),
(392,2,l),
(256,72,l),
(256,628,l),
(392,698,l),
(392,700,l),
(40,700,l),
(40,699,l)
);
}
);
userData = {
assembly = "NPUSHB[ ]	/* 9 values pushed */
9 8 3 2 4 0 1 1 76 
MPPEM[ ]	/* MeasurePixelPerEm */
PUSHB[ ]	/* 1 value pushed */
25 
LT[ ]	/* LessThan */
IF[ ]	/* If */
NPUSHB[ ]	/* 12 values pushed */
2 1 1 1 17 77 0 0 0 21 0 78 
ELSE[ ]	/* Else */
NPUSHB[ ]	/* 12 values pushed */
2 1 1 0 1 133 0 0 0 21 0 78 
EIF[ ]	/* EndIf */
NPUSHB[ ]	/* 10 values pushed */
0 0 0 11 0 10 36 3 7 23 
CALL[ ]	/* CallFunction */";
};
width = 432;
},
{
anchors = (
{
name = bottom;
pos = (205,0);
},
{
name = ogonek;
pos = (290,0);
},
{
name = top;
pos = (205,700);
},
{
name = topleft;
pos = (60,700);
}
);
layerId = "03DC8633-12B9-4C09-834B-15CC0827035A";
metricLeft = "=H+20";
metricRight = "=H+20";
shapes = (
{
closed = 1;
nodes = (
(120,700,l),
(120,0,l),
(290,0,l),
(290,700,l)
);
}
);
userData = {
assembly = "MPPEM[ ]	/* MeasurePixelPerEm */
PUSHB[ ]	/* 1 value pushed */
38 
LT[ ]	/* LessThan */
IF[ ]	/* If */
NPUSHB[ ]	/* 11 values pushed */
0 1 1 17 77 0 0 0 18 0 78 
ELSE[ ]	/* Else */
MPPEM[ ]	/* MeasurePixelPerEm */
PUSHB[ ]	/* 1 value pushed */
42 
LT[ ]	/* LessThan */
IF[ ]	/* If */
NPUSHB[ ]	/* 11 values pushed */
0 1 1 0 95 0 0 0 18 0 78 
ELSE[ ]	/* Else */
NPUSHB[ ]	/* 16 values pushed */
0 1 0 0 1 87 0 1 1 0 95 0 0 1 0 79 
EIF[ ]	/* EndIf */
EIF[ ]	/* EndIf */
PUSHB[ ]	/* 5 values pushed */
17 16 2 7 24 
CALL[ ]	/* CallFunction */";
};
width = 410;
}
);
metricLeft = H;
metricRight = H;
note = I;
unicode = 73;
},
{
glyphname = J;
kernLeft = J;
kernRight = J;
lastChange = "2022-04-09 17:02:39 +0000";
layers = (
{
layerId = m01;
shapes = (
{
closed = 1;
nodes = (
(113,218,l),
(115,218,l),
(140,85,o),
(186,15,o),
(286,15,cs),
(368,15,o),
(423,62,o),
(423,210,cs),
(423,630,l),
(262,698,l),
(262,700,l),
(618,700,l),
(618,698,l),
(504,630,l),
(504,216,ls),
(504,60,o),
(402,-14,o),
(277,-14,cs),
(157,-14,o),
(85,51,o),
(36,124,c)
);
}
);
userData = {
assembly = "NPUSHB[ ]	/* 9 values pushed */
22 20 12 7 4 2 1 1 76 
MPPEM[ ]	/* MeasurePixelPerEm */
PUSHB[ ]	/* 1 value pushed */
25 
LT[ ]	/* LessThan */
IF[ ]	/* If */
NPUSHB[ ]	/* 16 values pushed */
0 1 1 17 77 0 2 2 0 97 0 0 0 27 0 78 
ELSE[ ]	/* Else */
NPUSHB[ ]	/* 16 values pushed */
0 1 2 1 133 0 2 2 0 97 0 0 0 27 0 78 
EIF[ ]	/* EndIf */
PUSHB[ ]	/* 6 values pushed */
37 37 33 3 7 25 
CALL[ ]	/* CallFunction */";
};
width = 658;
},
{
layerId = "03DC8633-12B9-4C09-834B-15CC0827035A";
shapes = (
{
closed = 1;
nodes = (
(445,-16,o),
(578,111,o),
(578,359,cs),
(578,700,l),
(405,700,l),
(405,344,ls),
(405,193,o),
(354,134,o),
(229,134,cs),
(158,134,o),
(73,155,o),
(20,187,c),
(20,23,l),
(63,0,o),
(148,-16,o),
(229,-16,cs)
);
}
);
userData = {
assembly = "NPUSHB[ ]	/* 10 values pushed */
3 1 0 1 2 1 2 0 2 76 
MPPEM[ ]	/* MeasurePixelPerEm */
PUSHB[ ]	/* 1 value pushed */
38 
LT[ ]	/* LessThan */
IF[ ]	/* If */
NPUSHB[ ]	/* 17 values pushed */
0 1 1 17 77 0 0 0 2 97 3 1 2 2 24 2 78 
ELSE[ ]	/* Else */
MPPEM[ ]	/* MeasurePixelPerEm */
PUSHB[ ]	/* 1 value pushed */
42 
LT[ ]	/* LessThan */
IF[ ]	/* If */
NPUSHB[ ]	/* 17 values pushed */
0 1 0 1 133 0 0 0 2 97 3 1 2 2 24 2 78 
ELSE[ ]	/* Else */
NPUSHB[ ]	/* 22 values pushed */
0 1 0 1 133 0 0 2 2 0 89 0 0 0 2 97 3 1 2 0 2 81 
EIF[ ]	/* EndIf */
EIF[ ]	/* EndIf */
NPUSHB[ ]	/* 11 values pushed */
0 0 0 15 0 14 19 37 4 7 24 
CALL[ ]	/* CallFunction */";
};
width = 678;
},
{
associatedMasterId = m01;
layerId = "CAC7171E-95B1-496D-825E-D35E1FE97C85";
name = "11 feb 22, 18:09";
shapes = (
{
closed = 1;
nodes = (
(46,216,l),
(48,216,l),
(58,94,o),
(143,12,o),
(265,12,cs),
(378.333,12,o),
(433,76,o),
(433,224,cs),
(433,586,l),
(322,648,l),
(322,650,l),
(635,650,l),
(635,648,l),
(521,586,l),
(521,224,ls),
(521,78.441,o),
(412.146,-14,o),
(255,-14,cs),
(116.333,-14,o),
(38.667,58.333,o),
(0,121,c)
);
}
);
userData = {
assembly = "NPUSHB[ ]	/* 9 values pushed */
22 20 12 7 4 2 1 1 76 
MPPEM[ ]	/* MeasurePixelPerEm */
PUSHB[ ]	/* 1 value pushed */
25 
LT[ ]	/* LessThan */
IF[ ]	/* If */
NPUSHB[ ]	/* 16 values pushed */
0 1 1 17 77 0 2 2 0 97 0 0 0 27 0 78 
ELSE[ ]	/* Else */
NPUSHB[ ]	/* 16 values pushed */
0 1 2 1 133 0 2 2 0 97 0 0 0 27 0 78 
EIF[ ]	/* EndIf */
PUSHB[ ]	/* 6 values pushed */
37 37 33 3 7 25 
CALL[ ]	/* CallFunction */";
};
width = 670;
}
);
metricRight = H;
note = J;
unicode = 74;
},
{
glyphname = K;
kernLeft = K;
kernRight = K;
lastChange = "2022-04-09 17:02:39 +0000";
layers = (
{
anchors = (
{
name = bottom;
pos = (424,0);
},
{
name = top;
pos = (404,700);
}
);
layerId = m01;
shapes = (
{
closed = 1;
nodes = (
(232,632,l),
(344,698,l),
(344,700,l),
(40,700,l),
(40,699,l),
(152,632,l),
(152,69,l),
(40,2,l),
(40,0,l),
(343,0,l),
(343,2,l),
(232,69,l)
);
},
{
closed = 1;
nodes = (
(579,60,l),
(529,2,l),
(529,0,l),
(803,0,l),
(803,2,l),
(664,72,l),
(374,415,l),
(280,415,l)
);
},
{
closed = 1;
nodes = (
(225,267,l),
(616,625,l),
(791,698,l),
(791,700,l),
(490,700,l),
(490,698,l),
(567,629,l),
(225,313,l)
);
}
);
userData = {
assembly = "NPUSHB[ ]	/* 19 values pushed */
28 7 2 3 0 1 27 22 21 20 19 13 4 3 8 2 0 2 76 
MPPEM[ ]	/* MeasurePixelPerEm */
PUSHB[ ]	/* 1 value pushed */
25 
LT[ ]	/* LessThan */
IF[ ]	/* If */
NPUSHB[ ]	/* 22 values pushed */
0 0 1 2 1 0 2 128 5 4 2 1 1 17 77 3 1 2 2 21 2 78 
ELSE[ ]	/* Else */
NPUSHB[ ]	/* 19 values pushed */
5 4 2 1 0 1 133 0 0 2 0 133 3 1 2 2 21 2 78 
EIF[ ]	/* EndIf */
NPUSHB[ ]	/* 13 values pushed */
0 0 0 30 0 29 38 37 34 21 6 7 26 
CALL[ ]	/* CallFunction */";
};
width = 810;
},
{
anchors = (
{
name = bottom;
pos = (487,0);
},
{
name = top;
pos = (487,700);
}
);
layerId = "03DC8633-12B9-4C09-834B-15CC0827035A";
shapes = (
{
closed = 1;
nodes = (
(383,336,l),
(654,0,l),
(884,0,l),
(530,430,l)
);
},
{
closed = 1;
nodes = (
(860,700,l),
(619,700,l),
(273,408,l),
(273,700,l),
(100,700,l),
(100,0,l),
(273,0,l),
(273,203,l)
);
}
);
userData = {
assembly = "NPUSHB[ ]	/* 9 values pushed */
10 9 6 3 4 2 0 1 76 
MPPEM[ ]	/* MeasurePixelPerEm */
PUSHB[ ]	/* 1 value pushed */
38 
LT[ ]	/* LessThan */
IF[ ]	/* If */
NPUSHB[ ]	/* 14 values pushed */
1 1 0 0 17 77 4 3 2 2 2 18 2 78 
ELSE[ ]	/* Else */
MPPEM[ ]	/* MeasurePixelPerEm */
PUSHB[ ]	/* 1 value pushed */
42 
LT[ ]	/* LessThan */
IF[ ]	/* If */
NPUSHB[ ]	/* 14 values pushed */
1 1 0 0 2 95 4 3 2 2 2 18 2 78 
ELSE[ ]	/* Else */
NPUSHB[ ]	/* 20 values pushed */
1 1 0 2 2 0 87 1 1 0 0 2 95 4 3 2 2 0 2 79 
EIF[ ]	/* EndIf */
EIF[ ]	/* EndIf */
NPUSHB[ ]	/* 12 values pushed */
0 0 0 11 0 11 18 18 17 5 7 25 
CALL[ ]	/* CallFunction */";
};
width = 944;
},
{
associatedMasterId = m01;
layerId = "00734874-B2ED-4E38-B3B8-A940080664A4";
name = "11 feb 22, 18:11";
shapes = (
{
closed = 1;
nodes = (
(146,578,l),
(146,72,l),
(34,2,l),
(34,0,l),
(337,0,l),
(337,2,l),
(226,72,l),
(226,243,l),
(340,335,l),
(583,73,l),
(533,2,l),
(533,0,l),
(817,0,l),
(817,2,l),
(677,77,l),
(393,378,l),
(615,558,l),
(794,648,l),
(794,650,l),
(493,650,l),
(493,648,l),
(570,558,l),
(369,395,l),
(284,395,l),
(320,356,l),
(226,279,l),
(226,578,l),
(338,648,l),
(338,650,l),
(34,650,l),
(34,650,l)
);
}
);
userData = {
assembly = "NPUSHB[ ]	/* 19 values pushed */
28 7 2 3 0 1 27 22 21 20 19 13 4 3 8 2 0 2 76 
MPPEM[ ]	/* MeasurePixelPerEm */
PUSHB[ ]	/* 1 value pushed */
25 
LT[ ]	/* LessThan */
IF[ ]	/* If */
NPUSHB[ ]	/* 22 values pushed */
0 0 1 2 1 0 2 128 5 4 2 1 1 17 77 3 1 2 2 21 2 78 
ELSE[ ]	/* Else */
NPUSHB[ ]	/* 19 values pushed */
5 4 2 1 0 1 133 0 0 2 0 133 3 1 2 2 21 2 78 
EIF[ ]	/* EndIf */
NPUSHB[ ]	/* 13 values pushed */
0 0 0 30 0 29 38 37 34 21 6 7 26 
CALL[ ]	/* CallFunction */";
};
width = 854;
}
);
metricLeft = H;
note = K;
unicode = 75;
},
{
glyphname = L;
kernLeft = L;
kernRight = L;
lastChange = "2022-04-09 17:02:39 +0000";
layers = (
{
anchors = (
{
name = bottom;
pos = (391,0);
},
{
name = center;
pos = (391,325);
},
{
name = top;
pos = (188,700);
},
{
name = topright;
pos = (420,650);
}
);
layerId = m01;
shapes = (
{
closed = 1;
nodes = (
(137,630,l),
(137,75,l),
(63,2,l),
(63,0,l),
(580,0,l),
(618,-34,l),
(620,-34,l),
(738,250,l),
(736,252,l),
(548,35,l),
(220,35,l),
(220,630,l),
(375,698,l),
(375,700,l),
(40,700,l),
(40,699,l)
);
}
);
userData = {
assembly = "NPUSHB[ ]	/* 13 values pushed */
13 12 5 2 4 0 2 1 76 7 1 1 73 
MPPEM[ ]	/* MeasurePixelPerEm */
PUSHB[ ]	/* 1 value pushed */
25 
LT[ ]	/* LessThan */
IF[ ]	/* If */
NPUSHB[ ]	/* 17 values pushed */
3 1 2 2 17 77 0 0 0 1 95 0 1 1 21 1 78 
ELSE[ ]	/* Else */
NPUSHB[ ]	/* 17 values pushed */
3 1 2 0 2 133 0 0 0 1 95 0 1 1 21 1 78 
EIF[ ]	/* EndIf */
NPUSHB[ ]	/* 11 values pushed */
0 0 0 15 0 14 21 19 4 7 24 
CALL[ ]	/* CallFunction */";
};
width = 758;
},
{
anchors = (
{
name = bottom;
pos = (443,0);
},
{
name = center;
pos = (443,350);
},
{
name = top;
pos = (191,700);
},
{
name = topright;
pos = (407,700);
}
);
layerId = "03DC8633-12B9-4C09-834B-15CC0827035A";
shapes = (
{
closed = 1;
nodes = (
(100,700,l),
(100,0,l),
(766,0,l),
(766,140,l),
(274,140,l),
(274,700,l)
);
}
);
userData = {
assembly = "MPPEM[ ]	/* MeasurePixelPerEm */
PUSHB[ ]	/* 1 value pushed */
38 
LT[ ]	/* LessThan */
IF[ ]	/* If */
NPUSHB[ ]	/* 16 values pushed */
0 2 2 17 77 0 0 0 1 96 0 1 1 18 1 78 
ELSE[ ]	/* Else */
MPPEM[ ]	/* MeasurePixelPerEm */
PUSHB[ ]	/* 1 value pushed */
42 
LT[ ]	/* LessThan */
IF[ ]	/* If */
NPUSHB[ ]	/* 16 values pushed */
0 2 0 2 133 0 0 0 1 96 0 1 1 18 1 78 
ELSE[ ]	/* Else */
NPUSHB[ ]	/* 21 values pushed */
0 2 0 2 133 0 0 1 1 0 87 0 0 0 1 96 0 1 0 1 80 
EIF[ ]	/* EndIf */
EIF[ ]	/* EndIf */
PUSHB[ ]	/* 6 values pushed */
17 17 16 3 7 25 
CALL[ ]	/* CallFunction */";
};
width = 806;
}
);
metricLeft = H;
note = L;
unicode = 76;
},
{
glyphname = Lslash;
kernLeft = L;
kernRight = L;
lastChange = "2022-04-09 17:02:39 +0000";
layers = (
{
layerId = m01;
shapes = (
{
closed = 1;
nodes = (
(394,437,l),
(381,467,l),
(31,279,l),
(44,249,l)
);
},
{
ref = L;
}
);
userData = {
assembly = "NPUSHB[ ]	/* 21 values pushed */
23 22 21 20 13 10 9 8 7 6 1 0 12 1 0 1 76 15 1 2 73 
MPPEM[ ]	/* MeasurePixelPerEm */
PUSHB[ ]	/* 1 value pushed */
25 
LT[ ]	/* LessThan */
IF[ ]	/* If */
NPUSHB[ ]	/* 16 values pushed */
0 0 0 17 77 0 1 1 2 95 0 2 2 21 2 78 
ELSE[ ]	/* Else */
NPUSHB[ ]	/* 16 values pushed */
0 0 1 0 133 0 1 1 2 95 0 2 2 21 2 78 
EIF[ ]	/* EndIf */
PUSHB[ ]	/* 6 values pushed */
21 23 34 3 7 25 
CALL[ ]	/* CallFunction */";
};
width = 775;
},
{
layerId = "03DC8633-12B9-4C09-834B-15CC0827035A";
shapes = (
{
ref = L;
},
{
closed = 1;
nodes = (
(434,384,l),
(391,487,l),
(-29,299,l),
(14,196,l)
);
}
);
width = 866;
}
);
note = Lslash;
unicode = 321;
},
{
glyphname = M;
kernLeft = M;
kernRight = M;
lastChange = "2022-04-09 17:02:39 +0000";
layers = (
{
layerId = m01;
shapes = (
{
closed = 1;
nodes = (
(582,68,l),
(881,643,l),
(881,72,l),
(782,4,l),
(782,0,l),
(1060,0,l),
(1060,4,l),
(961,72,l),
(961,652,l),
(1086,696,l),
(1086,700,l),
(873,700,l),
(559,103,l)
);
},
{
closed = 1;
nodes = (
(272,700,l),
(40,700,l),
(40,695,l),
(164,652,l),
(164,77,l),
(39,0,l),
(39,1,l),
(323,0,l),
(323,4,l),
(198,77,l),
(198,643,l),
(540,0,l),
(645,0,l)
);
}
);
userData = {
assembly = "NPUSHB[ ]	/* 15 values pushed */
22 21 18 17 16 11 10 6 2 1 10 2 0 1 76 
MPPEM[ ]	/* MeasurePixelPerEm */
PUSHB[ ]	/* 1 value pushed */
23 
LT[ ]	/* LessThan */
IF[ ]	/* If */
NPUSHB[ ]	/* 14 values pushed */
1 1 0 0 17 77 4 3 2 2 2 21 2 78 
ELSE[ ]	/* Else */
NPUSHB[ ]	/* 14 values pushed */
1 1 0 2 0 133 4 3 2 2 2 21 2 78 
EIF[ ]	/* EndIf */
PUSHB[ ]	/* 8 values pushed */
35 21 36 18 35 5 7 27 
CALL[ ]	/* CallFunction */";
};
width = 1126;
},
{
layerId = "03DC8633-12B9-4C09-834B-15CC0827035A";
shapes = (
{
closed = 1;
nodes = (
(261,0,l),
(261,480,l),
(535,0,l),
(652,0,l),
(927,480,l),
(927,0,l),
(1088,0,l),
(1088,700,l),
(894,700,l),
(594,173,l),
(294,700,l),
(100,700,l),
(100,0,l)
);
}
);
userData = {
assembly = "PUSHB[ ]	/* 8 values pushed */
10 7 2 3 3 0 1 76 
MPPEM[ ]	/* MeasurePixelPerEm */
PUSHB[ ]	/* 1 value pushed */
38 
LT[ ]	/* LessThan */
IF[ ]	/* If */
NPUSHB[ ]	/* 21 values pushed */
0 3 0 2 0 3 2 128 1 1 0 0 17 77 4 1 2 2 18 2 78 
ELSE[ ]	/* Else */
MPPEM[ ]	/* MeasurePixelPerEm */
PUSHB[ ]	/* 1 value pushed */
42 
LT[ ]	/* LessThan */
IF[ ]	/* If */
NPUSHB[ ]	/* 21 values pushed */
0 3 0 2 0 3 2 128 1 1 0 0 2 95 4 1 2 2 18 2 78 
ELSE[ ]	/* Else */
NPUSHB[ ]	/* 27 values pushed */
0 3 0 2 0 3 2 128 1 1 0 3 2 0 87 1 1 0 0 2 95 4 1 2 0 2 79 
EIF[ ]	/* EndIf */
EIF[ ]	/* EndIf */
PUSHB[ ]	/* 8 values pushed */
18 18 17 18 16 5 7 27 
CALL[ ]	/* CallFunction */";
};
width = 1188;
},
{
associatedMasterId = m01;
layerId = "4968C0BD-F97A-4190-8692-92155336500E";
name = "11 feb 22, 18:14";
shapes = (
{
closed = 1;
nodes = (
(313,0,l),
(313,4,l),
(188,104,l),
(188,592,l),
(516,0,l),
(633,0,l),
(592,70,l),
(901,598,l),
(901,64,l),
(802,4,l),
(802,0,l),
(1080,0,l),
(1080,4,l),
(981,64,l),
(981,602,l),
(1106,646,l),
(1106,650,l),
(901,650,l),
(578,95,l),
(266,650,l),
(36,650,l),
(36,645,l),
(160,602,l),
(160,104,l),
(35,4,l),
(35,0,l),
(35,0,l)
);
}
);
userData = {
assembly = "NPUSHB[ ]	/* 15 values pushed */
22 21 18 17 16 11 10 6 2 1 10 2 0 1 76 
MPPEM[ ]	/* MeasurePixelPerEm */
PUSHB[ ]	/* 1 value pushed */
23 
LT[ ]	/* LessThan */
IF[ ]	/* If */
NPUSHB[ ]	/* 14 values pushed */
1 1 0 0 17 77 4 3 2 2 2 21 2 78 
ELSE[ ]	/* Else */
NPUSHB[ ]	/* 14 values pushed */
1 1 0 2 0 133 4 3 2 2 2 21 2 78 
EIF[ ]	/* EndIf */
PUSHB[ ]	/* 8 values pushed */
35 21 36 18 35 5 7 27 
CALL[ ]	/* CallFunction */";
};
width = 1141;
}
);
metricLeft = H;
metricRight = H;
note = M;
unicode = 77;
},
{
glyphname = N;
kernLeft = N;
kernRight = N;
lastChange = "2022-04-09 17:02:39 +0000";
layers = (
{
anchors = (
{
name = bottom;
pos = (458,0);
},
{
name = top;
pos = (458,700);
}
);
layerId = m01;
shapes = (
{
closed = 1;
nodes = (
(760,58,l),
(760,625,l),
(885,698,l),
(885,700,l),
(600,700,l),
(600,698,l),
(725,625,l),
(725,88,l)
);
},
{
closed = 1;
nodes = (
(270,700,l),
(41,700,l),
(41,698,l),
(165,648,l),
(165,75,l),
(40,2,l),
(40,0,l),
(326,0,l),
(326,2,l),
(201,75,l),
(201,638,l),
(700,0,l),
(811,0,l)
);
}
);
userData = {
assembly = "NPUSHB[ ]	/* 13 values pushed */
20 15 14 11 10 5 4 0 8 2 0 1 76 
MPPEM[ ]	/* MeasurePixelPerEm */
PUSHB[ ]	/* 1 value pushed */
25 
LT[ ]	/* LessThan */
IF[ ]	/* If */
NPUSHB[ ]	/* 13 values pushed */
1 1 0 0 17 77 3 1 2 2 21 2 78 
ELSE[ ]	/* Else */
NPUSHB[ ]	/* 13 values pushed */
1 1 0 2 0 133 3 1 2 2 21 2 78 
EIF[ ]	/* EndIf */
PUSHB[ ]	/* 7 values pushed */
35 20 35 33 4 7 26 
CALL[ ]	/* CallFunction */";
};
width = 915;
},
{
anchors = (
{
name = bottom;
pos = (518,0);
},
{
name = top;
pos = (518,700);
}
);
layerId = "03DC8633-12B9-4C09-834B-15CC0827035A";
shapes = (
{
closed = 1;
nodes = (
(100,4,l),
(110,0,l),
(271,0,l),
(271,497,l),
(726,0,l),
(935,0,l),
(935,700,l),
(765,700,l),
(765,178,l),
(309,700,l),
(100,700,l)
);
}
);
userData = {
assembly = "PUSHB[ ]	/* 8 values pushed */
9 6 1 3 1 0 1 76 
MPPEM[ ]	/* MeasurePixelPerEm */
PUSHB[ ]	/* 1 value pushed */
38 
LT[ ]	/* LessThan */
IF[ ]	/* If */
NPUSHB[ ]	/* 14 values pushed */
4 3 2 0 0 17 77 2 1 1 1 18 1 78 
ELSE[ ]	/* Else */
MPPEM[ ]	/* MeasurePixelPerEm */
PUSHB[ ]	/* 1 value pushed */
42 
LT[ ]	/* LessThan */
IF[ ]	/* If */
NPUSHB[ ]	/* 14 values pushed */
4 3 2 0 0 1 95 2 1 1 1 18 1 78 
ELSE[ ]	/* Else */
NPUSHB[ ]	/* 21 values pushed */
4 3 2 0 1 1 0 87 4 3 2 0 0 1 95 2 1 1 0 1 79 
EIF[ ]	/* EndIf */
EIF[ ]	/* EndIf */
NPUSHB[ ]	/* 12 values pushed */
0 0 0 10 0 10 18 17 18 5 7 25 
CALL[ ]	/* CallFunction */";
};
width = 1025;
}
);
metricLeft = H;
metricRight = "=H-10";
note = N;
unicode = 78;
},
{
glyphname = O;
kernLeft = O;
kernRight = O;
lastChange = "2022-04-09 17:02:39 +0000";
layers = (
{
anchors = (
{
name = bottom;
pos = (450,0);
},
{
name = center;
pos = (450,325);
},
{
name = ogonek;
pos = (770,10);
},
{
name = top;
pos = (450,650);
},
{
name = topleft;
pos = (69,650);
},
{
name = topright;
pos = (830,650);
}
);
layerId = m01;
shapes = (
{
closed = 1;
nodes = (
(669,-15,o),
(842,124,o),
(842,348,cs),
(842,569,o),
(668,715,o),
(448,715,cs),
(227,715,o),
(54,569,o),
(54,348,cs),
(54,124,o),
(227,-15,o),
(448,-15,cs)
);
},
{
closed = 1;
nodes = (
(156,553,o),
(272,685,o),
(448,685,cs),
(625,685,o),
(740,553,o),
(740,348,cs),
(740,139,o),
(625,16,o),
(448,16,cs),
(272,16,o),
(156,139,o),
(156,348,cs)
);
}
);
userData = {
assembly = "NPUSHB[ ]	/* 36 values pushed */
0 3 3 0 97 0 0 0 17 77 0 2 2 1 97 4 1 1 1 27 1 78 0 0 25 23 19 17 0 15 0 14 38 5 7 23 
CALL[ ]	/* CallFunction */";
};
width = 896;
},
{
anchors = (
{
name = bottom;
pos = (529,0);
},
{
name = center;
pos = (529,350);
},
{
name = ogonek;
pos = (939,10);
},
{
name = top;
pos = (529,700);
},
{
name = topleft;
pos = (36,700);
},
{
name = topright;
pos = (1021,700);
}
);
layerId = "03DC8633-12B9-4C09-834B-15CC0827035A";
shapes = (
{
closed = 1;
nodes = (
(769,-15,o),
(1007,104,o),
(1007,353,cs),
(1007,588,o),
(763,715,o),
(529,715,cs),
(289,715,o),
(50,587,o),
(50,353,cs),
(50,98,o),
(293,-15,o),
(529,-15,cs)
);
},
{
closed = 1;
nodes = (
(235,496,o),
(329,575,o),
(529,575,cs),
(730,575,o),
(822,496,o),
(822,350,cs),
(822,189,o),
(730,125,o),
(529,125,cs),
(329,125,o),
(235,189,o),
(235,350,cs)
);
}
);
userData = {
assembly = "MPPEM[ ]	/* MeasurePixelPerEm */
PUSHB[ ]	/* 1 value pushed */
38 
LT[ ]	/* LessThan */
IF[ ]	/* If */
NPUSHB[ ]	/* 22 values pushed */
0 3 3 0 97 0 0 0 23 77 0 2 2 1 97 4 1 1 1 24 1 78 
ELSE[ ]	/* Else */
MPPEM[ ]	/* MeasurePixelPerEm */
PUSHB[ ]	/* 1 value pushed */
42 
LT[ ]	/* LessThan */
IF[ ]	/* If */
NPUSHB[ ]	/* 22 values pushed */
0 3 3 0 97 0 0 0 19 77 0 2 2 1 97 4 1 1 1 24 1 78 
ELSE[ ]	/* Else */
MPPEM[ ]	/* MeasurePixelPerEm */
PUSHB[ ]	/* 1 value pushed */
49 
LT[ ]	/* LessThan */
IF[ ]	/* If */
NPUSHB[ ]	/* 19 values pushed */
0 2 4 1 1 2 1 101 0 3 3 0 97 0 0 0 19 3 78 
ELSE[ ]	/* Else */
NPUSHB[ ]	/* 25 values pushed */
0 0 0 3 2 0 3 105 0 2 1 1 2 89 0 2 2 1 97 4 1 1 2 1 81 
EIF[ ]	/* EndIf */
EIF[ ]	/* EndIf */
EIF[ ]	/* EndIf */
NPUSHB[ ]	/* 14 values pushed */
0 0 24 22 19 17 0 15 0 14 38 5 7 23 
CALL[ ]	/* CallFunction */";
};
width = 1057;
}
);
note = O;
unicode = 79;
},
{
glyphname = Oslash;
kernLeft = O;
kernRight = O;
lastChange = "2022-04-09 17:02:39 +0000";
layers = (
{
layerId = m01;
shapes = (
{
closed = 1;
nodes = (
(684,720,l),
(176,-16,l),
(206,-36,l),
(713,700,l)
);
},
{
ref = O;
}
);
userData = {
assembly = "NPUSHB[ ]	/* 29 values pushed */
17 14 2 2 0 43 42 29 28 4 3 2 4 1 2 1 3 3 76 16 15 2 0 74 3 2 2 1 73 
MPPEM[ ]	/* MeasurePixelPerEm */
PUSHB[ ]	/* 1 value pushed */
9 
LT[ ]	/* LessThan */
IF[ ]	/* If */
NPUSHB[ ]	/* 22 values pushed */
0 2 2 0 97 0 0 0 19 77 0 3 3 1 97 4 1 1 1 18 1 78 
ELSE[ ]	/* Else */
MPPEM[ ]	/* MeasurePixelPerEm */
PUSHB[ ]	/* 1 value pushed */
36 
LT[ ]	/* LessThan */
IF[ ]	/* If */
NPUSHB[ ]	/* 22 values pushed */
0 2 2 0 97 0 0 0 19 77 0 3 3 1 97 4 1 1 1 27 1 78 
ELSE[ ]	/* Else */
NPUSHB[ ]	/* 20 values pushed */
0 0 0 2 3 0 2 105 0 3 3 1 97 4 1 1 1 27 1 78 
EIF[ ]	/* EndIf */
EIF[ ]	/* EndIf */
NPUSHB[ ]	/* 14 values pushed */
0 0 37 35 32 30 0 25 0 24 43 5 7 23 
CALL[ ]	/* CallFunction */";
};
width = 896;
},
{
layerId = "03DC8633-12B9-4C09-834B-15CC0827035A";
shapes = (
{
ref = O;
},
{
closed = 1;
nodes = (
(774,765,l),
(176,-77,l),
(316,-77,l),
(913,765,l)
);
}
);
userData = {
assembly = "NPUSHB[ ]	/* 19 values pushed */
18 14 2 4 1 45 44 29 28 4 5 4 5 1 2 3 5 3 76 
MPPEM[ ]	/* MeasurePixelPerEm */
PUSHB[ ]	/* 1 value pushed */
24 
LT[ ]	/* LessThan */
IF[ ]	/* If */
NPUSHB[ ]	/* 32 values pushed */
0 2 1 2 133 0 0 3 0 134 0 4 4 1 97 0 1 1 19 77 0 5 5 3 97 6 1 3 3 27 3 78 
ELSE[ ]	/* Else */
MPPEM[ ]	/* MeasurePixelPerEm */
PUSHB[ ]	/* 1 value pushed */
38 
LT[ ]	/* LessThan */
IF[ ]	/* If */
NPUSHB[ ]	/* 30 values pushed */
0 2 1 2 133 0 0 3 0 134 0 1 0 4 5 1 4 105 0 5 5 3 97 6 1 3 3 27 3 78 
ELSE[ ]	/* Else */
MPPEM[ ]	/* MeasurePixelPerEm */
PUSHB[ ]	/* 1 value pushed */
42 
LT[ ]	/* LessThan */
IF[ ]	/* If */
NPUSHB[ ]	/* 30 values pushed */
0 2 1 2 133 0 0 3 0 134 0 1 0 4 5 1 4 105 0 5 5 3 97 6 1 3 3 24 3 78 
ELSE[ ]	/* Else */
NPUSHB[ ]	/* 35 values pushed */
0 2 1 2 133 0 0 3 0 134 0 1 0 4 5 1 4 105 0 5 3 3 5 89 0 5 5 3 97 6 1 3 5 3 81 
EIF[ ]	/* EndIf */
EIF[ ]	/* EndIf */
EIF[ ]	/* EndIf */
NPUSHB[ ]	/* 16 values pushed */
0 0 38 36 32 30 0 25 0 24 18 40 18 7 7 25 
CALL[ ]	/* CallFunction */";
};
width = 1057;
}
);
metricLeft = "=O";
metricRight = "=O";
note = Oslash;
unicode = 216;
},
{
glyphname = OE;
kernLeft = O;
kernRight = E;
lastChange = "2022-04-09 17:02:51 +0000";
layers = (
{
layerId = m01;
shapes = (
{
closed = 1;
nodes = (
(269,25,o),
(152,149,o),
(152,325,cs),
(152,501,o),
(269,624,o),
(450,624,c),
(537,588,l),
(537,62,l),
(450,25,l)
);
},
{
closed = 1;
nodes = (
(999,1,l),
(1038,-31,l),
(1040,-31,l),
(1153,256,l),
(1151,256,l),
(951,31,l),
(620,31,l),
(620,311,l),
(868,311,l),
(948,192,l),
(950,192,l),
(950,462,l),
(948,462,l),
(868,343,l),
(620,343,l),
(620,620,l),
(949,620,l),
(1129,441,l),
(1131,443,l),
(1028,670,l),
(1026,670,l),
(982,650,l),
(448,650,ls),
(215,650,o),
(54,516,o),
(54,325,cs),
(54,134,o),
(217,0,o),
(450,0,cs)
);
}
);
userData = {
assembly = "NPUSHB[ ]	/* 22 values pushed */
43 1 4 2 9 1 3 4 23 1 5 6 42 1 7 5 4 76 7 1 0 74 
MPPEM[ ]	/* MeasurePixelPerEm */
PUSHB[ ]	/* 1 value pushed */
36 
LT[ ]	/* LessThan */
IF[ ]	/* If */
NPUSHB[ ]	/* 64 values pushed */
0 8 10 8 134 0 3 0 6 5 3 6 103 0 12 12 0 97 0 0 0 19 77 0 2 2 1 95 0 1 1 19 77 0 5 5 4 95 0 4 4 20 77 0 7 7 9 95 0 9 9 21 77 0 11 11 10 97 0 10 10 27 10 78 
ELSE[ ]	/* Else */
MPPEM[ ]	/* MeasurePixelPerEm */
PUSHB[ ]	/* 1 value pushed */
42 
LT[ ]	/* LessThan */
IF[ ]	/* If */
NPUSHB[ ]	/* 62 values pushed */
0 8 10 8 134 0 0 0 12 2 0 12 105 0 3 0 6 5 3 6 103 0 2 2 1 95 0 1 1 19 77 0 5 5 4 95 0 4 4 20 77 0 7 7 9 95 0 9 9 21 77 0 11 11 10 97 0 10 10 27 10 78 
ELSE[ ]	/* Else */
NPUSHB[ ]	/* 60 values pushed */
0 8 10 8 134 0 0 0 12 2 0 12 105 0 3 0 6 5 3 6 103 0 4 0 5 7 4 5 103 0 2 2 1 95 0 1 1 19 77 0 7 7 9 95 0 9 9 21 77 0 11 11 10 97 0 10 10 27 10 78 
EIF[ ]	/* EndIf */
EIF[ ]	/* EndIf */
NPUSHB[ ]	/* 20 values pushed */
47 45 38 36 31 29 28 27 19 17 17 17 17 17 21 17 34 13 7 31 
CALL[ ]	/* CallFunction */";
};
width = 1163;
},
{
layerId = "03DC8633-12B9-4C09-834B-15CC0827035A";
shapes = (
{
closed = 1;
nodes = (
(773,0,l),
(1473,0,l),
(1473,140,l),
(948,140,l),
(948,291,l),
(1336,291,l),
(1336,431,l),
(948,431,l),
(948,560,l),
(1465,560,l),
(1465,700,l),
(773,700,l)
);
},
{
closed = 1;
nodes = (
(724,-15,o),
(947,104,o),
(947,353,cs),
(947,588,o),
(718,715,o),
(499,715,cs),
(274,715,o),
(50,587,o),
(50,353,cs),
(50,98,o),
(278,-15,o),
(499,-15,cs)
);
},
{
closed = 1;
nodes = (
(223,496,o),
(312,575,o),
(499,575,cs),
(687,575,o),
(774,496,o),
(774,350,cs),
(774,189,o),
(687,125,o),
(499,125,cs),
(312,125,o),
(223,189,o),
(223,350,cs)
);
}
);
userData = {
assembly = "MPPEM[ ]	/* MeasurePixelPerEm */
PUSHB[ ]	/* 1 value pushed */
14 
LT[ ]	/* LessThan */
IF[ ]	/* If */
NPUSHB[ ]	/* 10 values pushed */
10 1 9 0 23 1 6 8 2 76 
ELSE[ ]	/* Else */
NPUSHB[ ]	/* 10 values pushed */
10 1 9 1 23 1 6 8 2 76 
EIF[ ]	/* EndIf */
MPPEM[ ]	/* MeasurePixelPerEm */
PUSHB[ ]	/* 1 value pushed */
14 
LT[ ]	/* LessThan */
IF[ ]	/* If */
NPUSHB[ ]	/* 52 values pushed */
0 3 0 4 5 3 4 103 0 9 9 0 97 1 1 0 0 19 77 0 2 2 0 97 1 1 0 0 19 77 0 5 5 6 95 0 6 6 18 77 0 8 8 7 97 10 1 7 7 27 7 78 
ELSE[ ]	/* Else */
MPPEM[ ]	/* MeasurePixelPerEm */
PUSHB[ ]	/* 1 value pushed */
24 
LT[ ]	/* LessThan */
IF[ ]	/* If */
NPUSHB[ ]	/* 50 values pushed */
0 3 0 4 5 3 4 103 0 9 9 0 97 0 0 0 19 77 0 2 2 1 95 0 1 1 19 77 0 5 5 6 95 0 6 6 18 77 0 8 8 7 97 10 1 7 7 27 7 78 
ELSE[ ]	/* Else */
MPPEM[ ]	/* MeasurePixelPerEm */
PUSHB[ ]	/* 1 value pushed */
38 
LT[ ]	/* LessThan */
IF[ ]	/* If */
NPUSHB[ ]	/* 48 values pushed */
0 0 0 9 2 0 9 105 0 3 0 4 5 3 4 103 0 2 2 1 95 0 1 1 19 77 0 5 5 6 95 0 6 6 18 77 0 8 8 7 97 10 1 7 7 27 7 78 
ELSE[ ]	/* Else */
MPPEM[ ]	/* MeasurePixelPerEm */
PUSHB[ ]	/* 1 value pushed */
42 
LT[ ]	/* LessThan */
IF[ ]	/* If */
NPUSHB[ ]	/* 48 values pushed */
0 0 0 9 2 0 9 105 0 3 0 4 5 3 4 103 0 2 2 1 95 0 1 1 19 77 0 5 5 6 95 0 6 6 18 77 0 8 8 7 97 10 1 7 7 24 7 78 
ELSE[ ]	/* Else */
NPUSHB[ ]	/* 43 values pushed */
0 0 0 9 2 0 9 105 0 3 0 4 5 3 4 103 0 5 0 6 7 5 6 103 0 8 10 1 7 8 7 101 0 2 2 1 95 0 1 1 19 2 78 
EIF[ ]	/* EndIf */
EIF[ ]	/* EndIf */
EIF[ ]	/* EndIf */
EIF[ ]	/* EndIf */
NPUSHB[ ]	/* 20 values pushed */
0 0 39 37 31 29 0 26 0 25 17 17 17 17 17 19 38 11 7 29 
CALL[ ]	/* CallFunction */";
};
width = 1563;
},
{
associatedMasterId = "03DC8633-12B9-4C09-834B-15CC0827035A";
layerId = "7C237F97-0205-4D03-B9BD-DD3850C7BC1D";
name = "21 feb 22, 14:47";
shapes = (
{
closed = 1;
nodes = (
(678,-30,o),
(792,-1,o),
(879,54,c),
(879,0,l),
(1778,0,l),
(1778,150,l),
(1053,150,l),
(1053,321,l),
(1601,321,l),
(1601,449,l),
(1053,449,l),
(1053,584,l),
(1770,584,l),
(1770,734,l),
(879,734,l),
(879,666,l),
(792,721,o),
(678,751,o),
(549,751,cs),
(350,751,o),
(191,682,o),
(105,563,cs),
(62,504,o),
(40,436,o),
(40,360,cs),
(40,208,o),
(131,86,o),
(285,20,cs),
(362,-14,o),
(450,-30,o),
(549,-30,cs)
);
},
{
closed = 1;
nodes = (
(226,514,o),
(355,621,o),
(549,621,cs),
(741,621,o),
(869,513,o),
(869,360,cs),
(869,212,o),
(750,109,o),
(549,109,cs),
(347,109,o),
(226,212,o),
(226,360,cs)
);
}
);
userData = {
assembly = "MPPEM[ ]	/* MeasurePixelPerEm */
PUSHB[ ]	/* 1 value pushed */
14 
LT[ ]	/* LessThan */
IF[ ]	/* If */
NPUSHB[ ]	/* 10 values pushed */
10 1 9 0 23 1 6 8 2 76 
ELSE[ ]	/* Else */
NPUSHB[ ]	/* 10 values pushed */
10 1 9 1 23 1 6 8 2 76 
EIF[ ]	/* EndIf */
MPPEM[ ]	/* MeasurePixelPerEm */
PUSHB[ ]	/* 1 value pushed */
14 
LT[ ]	/* LessThan */
IF[ ]	/* If */
NPUSHB[ ]	/* 52 values pushed */
0 3 0 4 5 3 4 103 0 9 9 0 97 1 1 0 0 19 77 0 2 2 0 97 1 1 0 0 19 77 0 5 5 6 95 0 6 6 18 77 0 8 8 7 97 10 1 7 7 27 7 78 
ELSE[ ]	/* Else */
MPPEM[ ]	/* MeasurePixelPerEm */
PUSHB[ ]	/* 1 value pushed */
24 
LT[ ]	/* LessThan */
IF[ ]	/* If */
NPUSHB[ ]	/* 50 values pushed */
0 3 0 4 5 3 4 103 0 9 9 0 97 0 0 0 19 77 0 2 2 1 95 0 1 1 19 77 0 5 5 6 95 0 6 6 18 77 0 8 8 7 97 10 1 7 7 27 7 78 
ELSE[ ]	/* Else */
MPPEM[ ]	/* MeasurePixelPerEm */
PUSHB[ ]	/* 1 value pushed */
38 
LT[ ]	/* LessThan */
IF[ ]	/* If */
NPUSHB[ ]	/* 48 values pushed */
0 0 0 9 2 0 9 105 0 3 0 4 5 3 4 103 0 2 2 1 95 0 1 1 19 77 0 5 5 6 95 0 6 6 18 77 0 8 8 7 97 10 1 7 7 27 7 78 
ELSE[ ]	/* Else */
MPPEM[ ]	/* MeasurePixelPerEm */
PUSHB[ ]	/* 1 value pushed */
42 
LT[ ]	/* LessThan */
IF[ ]	/* If */
NPUSHB[ ]	/* 48 values pushed */
0 0 0 9 2 0 9 105 0 3 0 4 5 3 4 103 0 2 2 1 95 0 1 1 19 77 0 5 5 6 95 0 6 6 18 77 0 8 8 7 97 10 1 7 7 24 7 78 
ELSE[ ]	/* Else */
NPUSHB[ ]	/* 43 values pushed */
0 0 0 9 2 0 9 105 0 3 0 4 5 3 4 103 0 5 0 6 7 5 6 103 0 8 10 1 7 8 7 101 0 2 2 1 95 0 1 1 19 2 78 
EIF[ ]	/* EndIf */
EIF[ ]	/* EndIf */
EIF[ ]	/* EndIf */
EIF[ ]	/* EndIf */
NPUSHB[ ]	/* 20 values pushed */
0 0 39 37 31 29 0 26 0 25 17 17 17 17 17 19 38 11 7 29 
CALL[ ]	/* CallFunction */";
};
width = 1858;
}
);
metricLeft = O;
metricRight = E;
note = OE;
unicode = 338;
},
{
glyphname = P;
kernLeft = P;
kernRight = P;
lastChange = "2022-04-09 17:02:39 +0000";
layers = (
{
layerId = m01;
shapes = (
{
closed = 1;
nodes = (
(164,68,l),
(166,638,l),
(40,698,l),
(40,700,l),
(422,700,ls),
(609,700,o),
(733,639,o),
(733,497,cs),
(733,370,o),
(609,301,o),
(422,301,cs),
(248,301,l),
(248,68,l),
(414,2,l),
(414,0,l),
(40,0,l),
(40,1,l)
);
},
{
closed = 1;
nodes = (
(422,333,ls),
(546,333,o),
(633,388,o),
(633,502,cs),
(633,614,o),
(546,668,o),
(422,668,cs),
(248,668,l),
(248,333,l)
);
}
);
userData = {
assembly = "NPUSHB[ ]	/* 11 values pushed */
12 1 4 3 13 2 2 2 0 2 76 
MPPEM[ ]	/* MeasurePixelPerEm */
PUSHB[ ]	/* 1 value pushed */
25 
LT[ ]	/* LessThan */
IF[ ]	/* If */
NPUSHB[ ]	/* 25 values pushed */
0 4 0 0 2 4 0 103 0 3 3 1 95 0 1 1 17 77 5 1 2 2 21 2 78 
ELSE[ ]	/* Else */
NPUSHB[ ]	/* 23 values pushed */
0 1 0 3 4 1 3 103 0 4 0 0 2 4 0 103 5 1 2 2 21 2 78 
EIF[ ]	/* EndIf */
NPUSHB[ ]	/* 15 values pushed */
0 0 26 24 18 16 0 15 0 14 35 35 6 7 24 
CALL[ ]	/* CallFunction */";
};
width = 763;
},
{
layerId = "03DC8633-12B9-4C09-834B-15CC0827035A";
shapes = (
{
closed = 1;
nodes = (
(100,700,l),
(521,700,ls),
(776,700,o),
(903,622,o),
(903,466,cs),
(903,309,o),
(776,231,o),
(521,231,cs),
(272,231,l),
(272,0,l),
(100,0,l)
);
},
{
closed = 1;
nodes = (
(541,356,ls),
(657,356,o),
(713,389,o),
(713,466,cs),
(713,543,o),
(657,576,o),
(541,576,cs),
(275,576,l),
(275,356,l)
);
}
);
userData = {
assembly = "MPPEM[ ]	/* MeasurePixelPerEm */
PUSHB[ ]	/* 1 value pushed */
38 
LT[ ]	/* LessThan */
IF[ ]	/* If */
NPUSHB[ ]	/* 25 values pushed */
0 4 0 0 2 4 0 103 0 3 3 1 95 0 1 1 17 77 5 1 2 2 18 2 78 
ELSE[ ]	/* Else */
MPPEM[ ]	/* MeasurePixelPerEm */
PUSHB[ ]	/* 1 value pushed */
42 
LT[ ]	/* LessThan */
IF[ ]	/* If */
NPUSHB[ ]	/* 23 values pushed */
0 1 0 3 4 1 3 103 0 4 0 0 2 4 0 103 5 1 2 2 18 2 78 
ELSE[ ]	/* Else */
NPUSHB[ ]	/* 30 values pushed */
5 1 2 0 2 134 0 1 0 3 4 1 3 103 0 4 0 0 4 87 0 4 4 0 95 0 0 4 0 79 
EIF[ ]	/* EndIf */
EIF[ ]	/* EndIf */
NPUSHB[ ]	/* 15 values pushed */
0 0 17 15 11 9 0 8 0 8 34 33 6 7 24 
CALL[ ]	/* CallFunction */";
};
width = 963;
},
{
associatedMasterId = m01;
layerId = "841E1A30-08AA-4EAB-BF44-BB784610F238";
name = "11 feb 22, 18:16";
shapes = (
{
closed = 1;
nodes = (
(159,62,l),
(161,588,l),
(35,648,l),
(35,650,l),
(419,650,ls),
(549,650,o),
(645,635,o),
(707,606,cs),
(769,577,o),
(800,532,o),
(800,472,cs),
(800,338,o),
(650,271,o),
(349,271,cs),
(245,271,l),
(245,62,l),
(371,2,l),
(371,0,l),
(35,0,l),
(35,1,l)
);
},
{
closed = 1;
nodes = (
(349,301,ls),
(516,301,o),
(618,314,o),
(660,366,cs),
(680,391,o),
(690,423,o),
(690,462,cs),
(690,581,o),
(612,624,o),
(419,624,cs),
(245,624,l),
(245,301,l)
);
}
);
userData = {
assembly = "NPUSHB[ ]	/* 11 values pushed */
12 1 4 3 13 2 2 2 0 2 76 
MPPEM[ ]	/* MeasurePixelPerEm */
PUSHB[ ]	/* 1 value pushed */
25 
LT[ ]	/* LessThan */
IF[ ]	/* If */
NPUSHB[ ]	/* 25 values pushed */
0 4 0 0 2 4 0 103 0 3 3 1 95 0 1 1 17 77 5 1 2 2 21 2 78 
ELSE[ ]	/* Else */
NPUSHB[ ]	/* 23 values pushed */
0 1 0 3 4 1 3 103 0 4 0 0 2 4 0 103 5 1 2 2 21 2 78 
EIF[ ]	/* EndIf */
NPUSHB[ ]	/* 15 values pushed */
0 0 26 24 18 16 0 15 0 14 35 35 6 7 24 
CALL[ ]	/* CallFunction */";
};
width = 780;
}
);
metricLeft = H;
note = P;
unicode = 80;
},
{
glyphname = Thorn;
kernLeft = P;
kernRight = P;
lastChange = "2022-04-09 17:02:39 +0000";
layers = (
{
anchors = (
{
name = bottom;
pos = (383,0);
},
{
name = top;
pos = (383,700);
}
);
layerId = m01;
shapes = (
{
closed = 1;
nodes = (
(424,518,ls),
(548,518,o),
(635,464,o),
(635,362,cs),
(635,258,o),
(548,203,o),
(424,203,cs),
(250,203,l),
(250,171,l),
(424,171,ls),
(611,171,o),
(735,240,o),
(735,357,cs),
(735,489,o),
(611,550,o),
(424,550,cs),
(249,550,l),
(250,518,l)
);
},
{
closed = 1;
nodes = (
(176,628,l),
(176,72,l),
(40,2,l),
(40,0,l),
(392,0,l),
(392,2,l),
(256,72,l),
(256,628,l),
(392,698,l),
(392,700,l),
(40,700,l),
(40,699,l)
);
}
);
userData = {
assembly = "NPUSHB[ ]	/* 12 values pushed */
18 2 2 0 3 17 12 2 2 1 2 76 
MPPEM[ ]	/* MeasurePixelPerEm */
PUSHB[ ]	/* 1 value pushed */
25 
LT[ ]	/* LessThan */
IF[ ]	/* If */
NPUSHB[ ]	/* 31 values pushed */
7 1 4 0 1 2 4 1 105 6 1 3 3 17 77 0 5 5 0 97 0 0 0 26 77 0 2 2 21 2 78 
ELSE[ ]	/* Else */
NPUSHB[ ]	/* 31 values pushed */
6 1 3 0 3 133 7 1 4 0 1 2 4 1 105 0 5 5 0 97 0 0 0 26 77 0 2 2 21 2 78 
EIF[ ]	/* EndIf */
NPUSHB[ ]	/* 20 values pushed */
22 21 0 0 28 26 21 29 22 29 0 20 0 19 34 36 35 8 7 25 
CALL[ ]	/* CallFunction */";
};
width = 765;
},
{
layerId = "03DC8633-12B9-4C09-834B-15CC0827035A";
shapes = (
{
closed = 1;
nodes = (
(272,0,l),
(272,121,l),
(521,121,ls),
(776,121,o),
(903,199,o),
(903,356,cs),
(903,512,o),
(776,590,o),
(521,590,cs),
(100,590,l),
(100,0,l)
);
},
{
closed = 1;
nodes = (
(275,466,l),
(541,466,ls),
(657,466,o),
(713,433,o),
(713,356,cs),
(713,279,o),
(657,246,o),
(541,246,cs),
(275,246,l)
);
},
{
closed = 1;
nodes = (
(100,466,l),
(272,466,l),
(272,700,l),
(100,700,l)
);
}
);
width = 963;
}
);
metricLeft = "=P";
metricRight = "=P";
note = Thorn;
unicode = 222;
},
{
glyphname = Q;
kernLeft = O;
kernRight = O;
lastChange = "2022-04-09 17:02:39 +0000";
layers = (
{
layerId = m01;
shapes = (
{
closed = 1;
nodes = (
(500,102,l),
(456,102,l),
(185,-221,l),
(190,-224,l),
(315,-163,o),
(387,-152,o),
(437,-152,cs),
(555,-152,o),
(624,-213,o),
(648,-234,c),
(650,-234,l),
(715,-137,l),
(650,-112,o),
(598,-99,o),
(509,-99,cs),
(405,-99,o),
(332,-125,o),
(258,-173,c),
(282,-172,l)
);
},
{
ref = O;
}
);
userData = {
assembly = "NPUSHB[ ]	/* 17 values pushed */
40 37 2 5 4 25 1 3 2 2 76 33 26 19 3 3 73 
MPPEM[ ]	/* MeasurePixelPerEm */
PUSHB[ ]	/* 1 value pushed */
19 
LT[ ]	/* LessThan */
IF[ ]	/* If */
NPUSHB[ ]	/* 35 values pushed */
0 4 6 5 5 4 114 0 2 0 3 2 3 101 0 6 6 0 97 0 0 0 17 77 0 5 5 1 98 0 1 1 27 1 78 
ELSE[ ]	/* Else */
NPUSHB[ ]	/* 36 values pushed */
0 4 6 5 6 4 5 128 0 2 0 3 2 3 101 0 6 6 0 97 0 0 0 17 77 0 5 5 1 98 0 1 1 27 1 78 
EIF[ ]	/* EndIf */
NPUSHB[ ]	/* 10 values pushed */
36 34 23 37 37 38 39 7 7 29 
CALL[ ]	/* CallFunction */";
};
width = 896;
},
{
layerId = "03DC8633-12B9-4C09-834B-15CC0827035A";
shapes = (
{
closed = 1;
nodes = (
(911,-90,l),
(621,269,l),
(421,269,l),
(714,-90,l)
);
},
{
ref = O;
}
);
userData = {
assembly = "NPUSHB[ ]	/* 11 values pushed */
1 1 1 2 30 27 2 5 1 2 76 
MPPEM[ ]	/* MeasurePixelPerEm */
PUSHB[ ]	/* 1 value pushed */
9 
LT[ ]	/* LessThan */
IF[ ]	/* If */
NPUSHB[ ]	/* 34 values pushed */
6 1 2 0 1 1 2 114 0 4 5 4 134 0 0 0 3 97 0 3 3 17 77 0 1 1 5 98 0 5 5 24 5 78 
ELSE[ ]	/* Else */
MPPEM[ ]	/* MeasurePixelPerEm */
PUSHB[ ]	/* 1 value pushed */
38 
LT[ ]	/* LessThan */
IF[ ]	/* If */
NPUSHB[ ]	/* 35 values pushed */
6 1 2 0 1 0 2 1 128 0 4 5 4 134 0 0 0 3 97 0 3 3 17 77 0 1 1 5 98 0 5 5 24 5 78 
ELSE[ ]	/* Else */
MPPEM[ ]	/* MeasurePixelPerEm */
PUSHB[ ]	/* 1 value pushed */
42 
LT[ ]	/* LessThan */
IF[ ]	/* If */
NPUSHB[ ]	/* 33 values pushed */
6 1 2 0 1 0 2 1 128 0 4 5 4 134 0 3 0 0 2 3 0 105 0 1 1 5 98 0 5 5 24 5 78 
ELSE[ ]	/* Else */
NPUSHB[ ]	/* 38 values pushed */
6 1 2 0 1 0 2 1 128 0 4 5 4 134 0 3 0 0 2 3 0 105 0 1 5 5 1 89 0 1 1 5 98 0 5 1 5 82 
EIF[ ]	/* EndIf */
EIF[ ]	/* EndIf */
EIF[ ]	/* EndIf */
NPUSHB[ ]	/* 17 values pushed */
0 0 33 31 29 28 21 19 0 16 0 16 37 38 7 7 24 
CALL[ ]	/* CallFunction */";
};
width = 1057;
},
{
associatedMasterId = m01;
layerId = "7BC4F665-19EF-4348-9612-01CFAD25980A";
name = "11 feb 22, 16:51";
shapes = (
{
closed = 1;
nodes = (
(133,-214,l),
(227,-168,o),
(444,-112,o),
(533,-112,qs),
(622,-112,o),
(742,-168,o),
(756,-214,q),
(758,-214,l),
(823,-97,l),
(725,-59,o),
(606,-59,qs),
(499,-59,o),
(288,-119,o),
(200,-169,q),
(196,-169,l),
(324,-8,l),
(362,-14,o),
(401,-14,qs),
(505,-14,o),
(679,75,o),
(781,229,o),
(781,325,qs),
(781,423,o),
(679,581,o),
(504,670,o),
(400,670,qs),
(297,670,o),
(122,581,o),
(20,423,o),
(20,325,qs),
(20,245,o),
(91,110,o),
(217,17,o),
(296,-2,q),
(131,-214,l)
);
},
{
closed = 1;
nodes = (
(120,482,o),
(269,642,o),
(400,642,qs),
(531,642,o),
(681,482,o),
(681,325,qs),
(681,171,o),
(532,14,o),
(401,14,qs),
(368,14,o),
(344,18,q),
(392,78,l),
(359,78,l),
(316,23,l),
(223,46,o),
(120,198,o),
(120,325,qs)
);
}
);
userData = {
assembly = "NPUSHB[ ]	/* 17 values pushed */
40 37 2 5 4 25 1 3 2 2 76 33 26 19 3 3 73 
MPPEM[ ]	/* MeasurePixelPerEm */
PUSHB[ ]	/* 1 value pushed */
19 
LT[ ]	/* LessThan */
IF[ ]	/* If */
NPUSHB[ ]	/* 35 values pushed */
0 4 6 5 5 4 114 0 2 0 3 2 3 101 0 6 6 0 97 0 0 0 17 77 0 5 5 1 98 0 1 1 27 1 78 
ELSE[ ]	/* Else */
NPUSHB[ ]	/* 36 values pushed */
0 4 6 5 6 4 5 128 0 2 0 3 2 3 101 0 6 6 0 97 0 0 0 17 77 0 5 5 1 98 0 1 1 27 1 78 
EIF[ ]	/* EndIf */
NPUSHB[ ]	/* 10 values pushed */
36 34 23 37 37 38 39 7 7 29 
CALL[ ]	/* CallFunction */";
};
width = 843;
}
);
metricLeft = "=O";
metricRight = "=O";
note = Q;
unicode = 81;
},
{
glyphname = R;
kernLeft = R;
kernRight = R;
lastChange = "2022-04-09 17:02:39 +0000";
layers = (
{
anchors = (
{
name = bottom;
pos = (431,0);
},
{
name = top;
pos = (431,650);
}
);
layerId = m01;
shapes = (
{
closed = 1;
nodes = (
(531,2,l),
(531,0,l),
(822,0,l),
(822,2,l),
(673,61,l),
(499,340,l),
(407,340,l),
(582,55,l)
);
},
{
closed = 1;
nodes = (
(40,0,l),
(374,0,l),
(374,2,l),
(248,62,l),
(248,324,l),
(430,324,ls),
(607,324,o),
(737,386,o),
(737,509,cs),
(737,646,o),
(607,700,o),
(430,700,cs),
(40,700,l),
(40,698,l),
(166,638,l),
(164,62,l),
(40,1,l)
);
},
{
closed = 1;
nodes = (
(248,668,l),
(420,668,ls),
(534,668,o),
(639,621,o),
(639,509,cs),
(639,404,o),
(524,358,o),
(420,358,cs),
(248,358,l)
);
}
);
userData = {
assembly = "NPUSHB[ ]	/* 12 values pushed */
25 1 2 6 26 7 2 3 1 0 2 76 
MPPEM[ ]	/* MeasurePixelPerEm */
PUSHB[ ]	/* 1 value pushed */
25 
LT[ ]	/* LessThan */
IF[ ]	/* If */
NPUSHB[ ]	/* 28 values pushed */
7 1 2 3 1 0 1 2 0 105 0 6 6 4 95 0 4 4 17 77 8 5 2 1 1 21 1 78 
ELSE[ ]	/* Else */
NPUSHB[ ]	/* 26 values pushed */
0 4 0 6 2 4 6 103 7 1 2 3 1 0 1 2 0 105 8 5 2 1 1 21 1 78 
EIF[ ]	/* EndIf */
NPUSHB[ ]	/* 18 values pushed */
0 0 39 37 31 29 0 28 0 27 37 17 19 34 51 9 7 27 
CALL[ ]	/* CallFunction */";
};
width = 863;
},
{
anchors = (
{
name = bottom;
pos = (497,0);
},
{
name = top;
pos = (497,700);
}
);
layerId = "03DC8633-12B9-4C09-834B-15CC0827035A";
shapes = (
{
closed = 1;
nodes = (
(705,241,o),
(903,282,o),
(903,471,cs),
(903,627,o),
(776,700,o),
(521,700,cs),
(100,700,l),
(100,0,l),
(272,0,l),
(272,241,l),
(521,241,ls)
);
},
{
closed = 1;
nodes = (
(275,576,l),
(541,576,ls),
(657,576,o),
(713,548,o),
(713,471,cs),
(713,399,o),
(657,366,o),
(541,366,cs),
(275,366,l)
);
},
{
closed = 1;
nodes = (
(892,0,l),
(602,349,l),
(402,349,l),
(692,0,l)
);
}
);
userData = {
assembly = "MPPEM[ ]	/* MeasurePixelPerEm */
PUSHB[ ]	/* 1 value pushed */
14 
LT[ ]	/* LessThan */
IF[ ]	/* If */
NPUSHB[ ]	/* 28 values pushed */
7 1 2 3 1 0 1 2 0 105 0 6 6 4 95 0 4 4 17 77 8 5 2 1 1 18 1 78 
ELSE[ ]	/* Else */
MPPEM[ ]	/* MeasurePixelPerEm */
PUSHB[ ]	/* 1 value pushed */
38 
LT[ ]	/* LessThan */
IF[ ]	/* If */
NPUSHB[ ]	/* 34 values pushed */
0 2 7 0 7 2 114 0 7 3 1 0 1 7 0 105 0 6 6 4 95 0 4 4 17 77 8 5 2 1 1 18 1 78 
ELSE[ ]	/* Else */
MPPEM[ ]	/* MeasurePixelPerEm */
PUSHB[ ]	/* 1 value pushed */
42 
LT[ ]	/* LessThan */
IF[ ]	/* If */
NPUSHB[ ]	/* 32 values pushed */
0 2 7 0 7 2 114 0 4 0 6 7 4 6 103 0 7 3 1 0 1 7 0 105 8 5 2 1 1 18 1 78 
ELSE[ ]	/* Else */
NPUSHB[ ]	/* 39 values pushed */
0 2 7 0 7 2 114 8 5 2 1 0 1 134 0 4 0 6 7 4 6 103 0 7 2 0 7 87 0 7 7 0 97 3 1 0 7 0 81 
EIF[ ]	/* EndIf */
EIF[ ]	/* EndIf */
EIF[ ]	/* EndIf */
NPUSHB[ ]	/* 18 values pushed */
0 0 26 24 20 18 0 17 0 17 36 33 18 17 17 9 7 27 
CALL[ ]	/* CallFunction */";
};
width = 973;
},
{
anchors = (
{
name = bottom;
pos = (433,0);
},
{
name = top;
pos = (433,650);
}
);
associatedMasterId = m01;
layerId = "049F0853-34B3-4E92-8D86-BBD25BB006F1";
name = "14 feb 22, 11:58";
shapes = (
{
closed = 1;
nodes = (
(439,307,l),
(531,307,l),
(704,66,l),
(854,2,l),
(854,0,l),
(563,0,l),
(563,2,l),
(613,60,l)
);
},
{
closed = 1;
nodes = (
(166,67,l),
(168,588,l),
(42,648,l),
(42,650,l),
(432,650,ls),
(609,650,o),
(739,596,o),
(739,467,cs),
(739,343,o),
(609,281,o),
(432,281,cs),
(250,281,l),
(250,67,l),
(376,2,l),
(376,0,l),
(42,0,l),
(42,1,l)
);
},
{
closed = 1;
nodes = (
(432,314,ls),
(536,314,o),
(641,361,o),
(641,467,cs),
(641,571,o),
(536,618,o),
(432,618,cs),
(250,618,l),
(250,314,l)
);
}
);
userData = {
assembly = "NPUSHB[ ]	/* 12 values pushed */
25 1 2 6 26 7 2 3 1 0 2 76 
MPPEM[ ]	/* MeasurePixelPerEm */
PUSHB[ ]	/* 1 value pushed */
25 
LT[ ]	/* LessThan */
IF[ ]	/* If */
NPUSHB[ ]	/* 28 values pushed */
7 1 2 3 1 0 1 2 0 105 0 6 6 4 95 0 4 4 17 77 8 5 2 1 1 21 1 78 
ELSE[ ]	/* Else */
NPUSHB[ ]	/* 26 values pushed */
0 4 0 6 2 4 6 103 7 1 2 3 1 0 1 2 0 105 8 5 2 1 1 21 1 78 
EIF[ ]	/* EndIf */
NPUSHB[ ]	/* 18 values pushed */
0 0 39 37 31 29 0 28 0 27 37 17 19 34 51 9 7 27 
CALL[ ]	/* CallFunction */";
};
width = 865;
},
{
anchors = (
{
name = bottom;
pos = (497,0);
},
{
name = top;
pos = (497,700);
}
);
associatedMasterId = "03DC8633-12B9-4C09-834B-15CC0827035A";
layerId = "580B79D3-41AA-4DF4-B045-8F7F322A92B5";
name = "21 feb 22, 14:51";
shapes = (
{
closed = 1;
nodes = (
(90,700,l),
(521,700,ls),
(776,700,o),
(903,622,o),
(903,466,cs),
(903,347,o),
(830,274,o),
(683,245,cs),
(639,236,o),
(585,231,o),
(521,231,cs),
(494,231,l),
(402,339,l),
(602,339,l),
(886,8,l),
(892,0,l),
(692,0,l),
(494,231,l),
(262,231,l),
(262,0,l),
(90,0,l),
(90,0,l)
);
},
{
closed = 1;
nodes = (
(541,356,ls),
(657,356,o),
(713,389,o),
(713,466,cs),
(713,543,o),
(657,576,o),
(541,576,cs),
(265,576,l),
(265,356,l),
(265,356,l)
);
}
);
userData = {
assembly = "MPPEM[ ]	/* MeasurePixelPerEm */
PUSHB[ ]	/* 1 value pushed */
14 
LT[ ]	/* LessThan */
IF[ ]	/* If */
NPUSHB[ ]	/* 28 values pushed */
7 1 2 3 1 0 1 2 0 105 0 6 6 4 95 0 4 4 17 77 8 5 2 1 1 18 1 78 
ELSE[ ]	/* Else */
MPPEM[ ]	/* MeasurePixelPerEm */
PUSHB[ ]	/* 1 value pushed */
38 
LT[ ]	/* LessThan */
IF[ ]	/* If */
NPUSHB[ ]	/* 34 values pushed */
0 2 7 0 7 2 114 0 7 3 1 0 1 7 0 105 0 6 6 4 95 0 4 4 17 77 8 5 2 1 1 18 1 78 
ELSE[ ]	/* Else */
MPPEM[ ]	/* MeasurePixelPerEm */
PUSHB[ ]	/* 1 value pushed */
42 
LT[ ]	/* LessThan */
IF[ ]	/* If */
NPUSHB[ ]	/* 32 values pushed */
0 2 7 0 7 2 114 0 4 0 6 7 4 6 103 0 7 3 1 0 1 7 0 105 8 5 2 1 1 18 1 78 
ELSE[ ]	/* Else */
NPUSHB[ ]	/* 39 values pushed */
0 2 7 0 7 2 114 8 5 2 1 0 1 134 0 4 0 6 7 4 6 103 0 7 2 0 7 87 0 7 7 0 97 3 1 0 7 0 81 
EIF[ ]	/* EndIf */
EIF[ ]	/* EndIf */
EIF[ ]	/* EndIf */
NPUSHB[ ]	/* 18 values pushed */
0 0 26 24 20 18 0 17 0 17 36 33 18 17 17 9 7 27 
CALL[ ]	/* CallFunction */";
};
width = 983;
}
);
metricLeft = H;
note = R;
unicode = 82;
},
{
glyphname = S;
kernLeft = S;
kernRight = S;
lastChange = "2022-04-09 17:02:39 +0000";
layers = (
{
anchors = (
{
name = bottom;
pos = (438,-5);
},
{
name = top;
pos = (384,700);
}
);
layerId = m01;
shapes = (
{
closed = 1;
nodes = (
(176,52,l),
(255,9,o),
(351,-15,o),
(448,-15,cs),
(594,-15,o),
(711,67,o),
(711,179,cs),
(711,286,o),
(599,342,o),
(481,373,cs),
(323,415,ls),
(232,439,o),
(138,486,o),
(138,572,cs),
(138,629,o),
(198,683,o),
(320,683,cs),
(439,683,o),
(576,626,o),
(703,465,c),
(710,465,l),
(590,697,l),
(549,642,l),
(474,691,o),
(388,715,o),
(291,715,cs),
(140,715,o),
(48,645,o),
(48,554,cs),
(48,444,o),
(151,374,o),
(292,336,cs),
(442,296,ls),
(573,261,o),
(619,220,o),
(619,158,cs),
(619,70,o),
(531,18,o),
(438,18,cs),
(264,18,o),
(119,101,o),
(26,273,c),
(18,274,l),
(115,-1,l)
);
}
);
userData = {
assembly = "NPUSHB[ ]	/* 16 values pushed */
20 1 2 1 43 21 19 3 0 2 44 1 3 0 3 76 
MPPEM[ ]	/* MeasurePixelPerEm */
PUSHB[ ]	/* 1 value pushed */
42 
LT[ ]	/* LessThan */
IF[ ]	/* If */
NPUSHB[ ]	/* 21 values pushed */
0 2 2 1 97 0 1 1 17 77 0 0 0 3 97 0 3 3 27 3 78 
ELSE[ ]	/* Else */
NPUSHB[ ]	/* 19 values pushed */
0 1 0 2 0 1 2 105 0 0 0 3 97 0 3 3 27 3 78 
EIF[ ]	/* EndIf */
PUSHB[ ]	/* 7 values pushed */
46 38 43 35 4 7 26 
CALL[ ]	/* CallFunction */";
};
width = 768;
},
{
anchors = (
{
name = bottom;
pos = (384,0);
},
{
name = top;
pos = (384,650);
}
);
associatedMasterId = m01;
layerId = "801245EC-89A8-4081-8AEC-AE65ACE080DB";
name = "11 feb 22, 17:50";
shapes = (
{
closed = 1;
nodes = (
(208,57,l),
(276.667,9,o),
(366,-15,o),
(476,-15,cs),
(646.739,-15,o),
(764,57.183,o),
(764,162,cs),
(764,249,o),
(680,305,o),
(585,335,cs),
(538,350,o),
(483,363,o),
(421,375,cs),
(351,389,ls),
(262,408,o),
(213,426,o),
(189,456,cs),
(177,471,o),
(171,490,o),
(171,513,cs),
(171,578.333,o),
(216.667,626,o),
(346,626,cs),
(462,626,o),
(605.333,569.333,o),
(732,408,c),
(734,408,l),
(619,640,l),
(578,585,l),
(502.667,633.667,o),
(413,658,o),
(309,658,cs),
(138,658,o),
(79,588,o),
(79,504,cs),
(79,393,o),
(190,322,o),
(358,291,cs),
(412,281,ls),
(551,256,o),
(661,219,o),
(661,139,cs),
(661,60.333,o),
(584,16,o),
(459,16,cs),
(295,16,o),
(137.333,99,o),
(44,271,c),
(40,274,l),
(137,-1,l)
);
}
);
userData = {
assembly = "NPUSHB[ ]	/* 16 values pushed */
20 1 2 1 43 21 19 3 0 2 44 1 3 0 3 76 
MPPEM[ ]	/* MeasurePixelPerEm */
PUSHB[ ]	/* 1 value pushed */
42 
LT[ ]	/* LessThan */
IF[ ]	/* If */
NPUSHB[ ]	/* 21 values pushed */
0 2 2 1 97 0 1 1 17 77 0 0 0 3 97 0 3 3 27 3 78 
ELSE[ ]	/* Else */
NPUSHB[ ]	/* 19 values pushed */
0 1 0 2 0 1 2 105 0 0 0 3 97 0 3 3 27 3 78 
EIF[ ]	/* EndIf */
PUSHB[ ]	/* 7 values pushed */
46 38 43 35 4 7 26 
CALL[ ]	/* CallFunction */";
};
width = 768;
},
{
associatedMasterId = "03DC8633-12B9-4C09-834B-15CC0827035A";
layerId = "CD412549-EA3A-4F7F-94FE-1E4645357D0C";
name = "21 feb 22, 14:15";
shapes = (
{
closed = 1;
nodes = (
(30,84,l),
(160.667,18.667,o),
(332.333,-18,o),
(507,-18,cs),
(780.333,-18,o),
(923,61.667,o),
(923,211,cs),
(923,348.333,o),
(812.333,406,o),
(603,418,cs),
(414,429,ls),
(286.938,436.059,o),
(222,450.865,o),
(222,508,cs),
(222,592,o),
(383,589,o),
(457,589,cs),
(613,589,o),
(733.667,559.667,o),
(835,501,c),
(889,632,l),
(778.333,688,o),
(624.333,719,o),
(471,719,cs),
(283,719,o),
(57,666,o),
(57,502,cs),
(57,381.059,o),
(186.067,300.243,o),
(384,288,cs),
(558,277,ls),
(693.545,268.528,o),
(757,257.997,o),
(757,201,cs),
(757,138.729,o),
(679.671,122,o),
(507,122,cs),
(333.667,122,o),
(199,149.667,o),
(83,215,c)
);
}
);
userData = {
assembly = "MPPEM[ ]	/* MeasurePixelPerEm */
PUSHB[ ]	/* 1 value pushed */
44 
LT[ ]	/* LessThan */
IF[ ]	/* If */
NPUSHB[ ]	/* 18 values pushed */
22 1 3 2 23 1 4 3 44 1 0 1 43 1 5 0 4 76 
ELSE[ ]	/* Else */
MPPEM[ ]	/* MeasurePixelPerEm */
PUSHB[ ]	/* 1 value pushed */
47 
LT[ ]	/* LessThan */
IF[ ]	/* If */
NPUSHB[ ]	/* 18 values pushed */
22 1 3 2 23 1 1 3 44 1 0 1 43 1 5 0 4 76 
ELSE[ ]	/* Else */
NPUSHB[ ]	/* 15 values pushed */
22 1 3 2 44 23 2 0 3 43 1 5 0 3 76 
EIF[ ]	/* EndIf */
EIF[ ]	/* EndIf */
MPPEM[ ]	/* MeasurePixelPerEm */
PUSHB[ ]	/* 1 value pushed */
38 
LT[ ]	/* LessThan */
IF[ ]	/* If */
NPUSHB[ ]	/* 29 values pushed */
0 4 0 1 0 4 1 103 0 3 3 2 97 0 2 2 23 77 0 0 0 5 97 0 5 5 24 5 78 
ELSE[ ]	/* Else */
MPPEM[ ]	/* MeasurePixelPerEm */
PUSHB[ ]	/* 1 value pushed */
42 
LT[ ]	/* LessThan */
IF[ ]	/* If */
NPUSHB[ ]	/* 29 values pushed */
0 4 0 1 0 4 1 103 0 3 3 2 97 0 2 2 19 77 0 0 0 5 97 0 5 5 24 5 78 
ELSE[ ]	/* Else */
MPPEM[ ]	/* MeasurePixelPerEm */
PUSHB[ ]	/* 1 value pushed */
44 
LT[ ]	/* LessThan */
IF[ ]	/* If */
NPUSHB[ ]	/* 26 values pushed */
0 4 0 1 0 4 1 103 0 0 0 5 0 5 101 0 3 3 2 97 0 2 2 19 3 78 
ELSE[ ]	/* Else */
MPPEM[ ]	/* MeasurePixelPerEm */
PUSHB[ ]	/* 1 value pushed */
45 
LT[ ]	/* LessThan */
IF[ ]	/* If */
NPUSHB[ ]	/* 26 values pushed */
0 1 3 0 3 1 0 128 0 0 0 5 0 5 101 0 3 3 2 97 0 2 2 19 3 78 
ELSE[ ]	/* Else */
MPPEM[ ]	/* MeasurePixelPerEm */
PUSHB[ ]	/* 1 value pushed */
47 
LT[ ]	/* LessThan */
IF[ ]	/* If */
NPUSHB[ ]	/* 32 values pushed */
0 1 3 0 3 1 0 128 0 2 0 3 1 2 3 105 0 0 5 5 0 89 0 0 0 5 97 0 5 0 5 81 
ELSE[ ]	/* Else */
NPUSHB[ ]	/* 24 values pushed */
0 2 0 3 0 2 3 105 0 0 5 5 0 89 0 0 0 5 97 0 5 0 5 81 
EIF[ ]	/* EndIf */
EIF[ ]	/* EndIf */
EIF[ ]	/* EndIf */
EIF[ ]	/* EndIf */
EIF[ ]	/* EndIf */
NPUSHB[ ]	/* 9 values pushed */
36 53 37 38 54 33 6 7 28 
CALL[ ]	/* CallFunction */";
};
width = 953;
},
{
anchors = (
{
name = bottom;
pos = (477,0);
},
{
name = top;
pos = (477,700);
}
);
associatedMasterId = "03DC8633-12B9-4C09-834B-15CC0827035A";
layerId = "5FE42EC1-47A1-4E9A-A422-FF5615A28BC4";
name = "23 mar 22, 22:03";
shapes = (
{
closed = 1;
nodes = (
(30,87,l),
(161,22,o),
(332,-15,o),
(507,-15,cs),
(780,-15,o),
(923,65,o),
(923,214,cs),
(923,351,o),
(812,410,o),
(603,422,cs),
(414,433,ls),
(287,440,o),
(239,457,o),
(239,504,cs),
(239,561,o),
(363,576,o),
(457,576,cs),
(603,576,o),
(734,556,o),
(835,497,c),
(889,628,l),
(778,684,o),
(614,715,o),
(471,715,cs),
(283,715,o),
(57,662,o),
(57,498,cs),
(57,357,o),
(176,292,o),
(374,279,cs),
(558,267,ls),
(674,259,o),
(745,253,o),
(745,204,cs),
(745,151,o),
(660,135,o),
(507,135,cs),
(344,135,o),
(199,164,o),
(83,229,c)
);
}
);
userData = {
assembly = "MPPEM[ ]	/* MeasurePixelPerEm */
PUSHB[ ]	/* 1 value pushed */
44 
LT[ ]	/* LessThan */
IF[ ]	/* If */
NPUSHB[ ]	/* 18 values pushed */
22 1 3 2 23 1 4 3 44 1 0 1 43 1 5 0 4 76 
ELSE[ ]	/* Else */
MPPEM[ ]	/* MeasurePixelPerEm */
PUSHB[ ]	/* 1 value pushed */
47 
LT[ ]	/* LessThan */
IF[ ]	/* If */
NPUSHB[ ]	/* 18 values pushed */
22 1 3 2 23 1 1 3 44 1 0 1 43 1 5 0 4 76 
ELSE[ ]	/* Else */
NPUSHB[ ]	/* 15 values pushed */
22 1 3 2 44 23 2 0 3 43 1 5 0 3 76 
EIF[ ]	/* EndIf */
EIF[ ]	/* EndIf */
MPPEM[ ]	/* MeasurePixelPerEm */
PUSHB[ ]	/* 1 value pushed */
38 
LT[ ]	/* LessThan */
IF[ ]	/* If */
NPUSHB[ ]	/* 29 values pushed */
0 4 0 1 0 4 1 103 0 3 3 2 97 0 2 2 23 77 0 0 0 5 97 0 5 5 24 5 78 
ELSE[ ]	/* Else */
MPPEM[ ]	/* MeasurePixelPerEm */
PUSHB[ ]	/* 1 value pushed */
42 
LT[ ]	/* LessThan */
IF[ ]	/* If */
NPUSHB[ ]	/* 29 values pushed */
0 4 0 1 0 4 1 103 0 3 3 2 97 0 2 2 19 77 0 0 0 5 97 0 5 5 24 5 78 
ELSE[ ]	/* Else */
MPPEM[ ]	/* MeasurePixelPerEm */
PUSHB[ ]	/* 1 value pushed */
44 
LT[ ]	/* LessThan */
IF[ ]	/* If */
NPUSHB[ ]	/* 26 values pushed */
0 4 0 1 0 4 1 103 0 0 0 5 0 5 101 0 3 3 2 97 0 2 2 19 3 78 
ELSE[ ]	/* Else */
MPPEM[ ]	/* MeasurePixelPerEm */
PUSHB[ ]	/* 1 value pushed */
45 
LT[ ]	/* LessThan */
IF[ ]	/* If */
NPUSHB[ ]	/* 26 values pushed */
0 1 3 0 3 1 0 128 0 0 0 5 0 5 101 0 3 3 2 97 0 2 2 19 3 78 
ELSE[ ]	/* Else */
MPPEM[ ]	/* MeasurePixelPerEm */
PUSHB[ ]	/* 1 value pushed */
47 
LT[ ]	/* LessThan */
IF[ ]	/* If */
NPUSHB[ ]	/* 32 values pushed */
0 1 3 0 3 1 0 128 0 2 0 3 1 2 3 105 0 0 5 5 0 89 0 0 0 5 97 0 5 0 5 81 
ELSE[ ]	/* Else */
NPUSHB[ ]	/* 24 values pushed */
0 2 0 3 0 2 3 105 0 0 5 5 0 89 0 0 0 5 97 0 5 0 5 81 
EIF[ ]	/* EndIf */
EIF[ ]	/* EndIf */
EIF[ ]	/* EndIf */
EIF[ ]	/* EndIf */
EIF[ ]	/* EndIf */
NPUSHB[ ]	/* 9 values pushed */
36 53 37 38 54 33 6 7 28 
CALL[ ]	/* CallFunction */";
};
width = 953;
},
{
anchors = (
{
name = bottom;
pos = (457,0);
},
{
name = top;
pos = (457,700);
}
);
layerId = "03DC8633-12B9-4C09-834B-15CC0827035A";
name = Bold;
shapes = (
{
closed = 1;
nodes = (
(30,87,l),
(155,22,o),
(318,-15,o),
(486,-15,cs),
(746,-15,o),
(883,65,o),
(883,214,cs),
(883,351,o),
(777,410,o),
(577,422,cs),
(397,433,ls),
(275,440,o),
(230,457,o),
(230,504,cs),
(230,561,o),
(348,576,o),
(438,576,cs),
(577,576,o),
(702,556,o),
(799,497,c),
(851,628,l),
(744,684,o),
(588,715,o),
(451,715,cs),
(272,715,o),
(56,662,o),
(56,498,cs),
(56,357,o),
(169,292,o),
(359,279,cs),
(534,267,ls),
(645,259,o),
(713,253,o),
(713,204,cs),
(713,151,o),
(632,135,o),
(486,135,cs),
(330,135,o),
(191,164,o),
(81,229,c)
);
}
);
userData = {
assembly = "MPPEM[ ]	/* MeasurePixelPerEm */
PUSHB[ ]	/* 1 value pushed */
44 
LT[ ]	/* LessThan */
IF[ ]	/* If */
NPUSHB[ ]	/* 18 values pushed */
22 1 3 2 23 1 4 3 44 1 0 1 43 1 5 0 4 76 
ELSE[ ]	/* Else */
MPPEM[ ]	/* MeasurePixelPerEm */
PUSHB[ ]	/* 1 value pushed */
47 
LT[ ]	/* LessThan */
IF[ ]	/* If */
NPUSHB[ ]	/* 18 values pushed */
22 1 3 2 23 1 1 3 44 1 0 1 43 1 5 0 4 76 
ELSE[ ]	/* Else */
NPUSHB[ ]	/* 15 values pushed */
22 1 3 2 44 23 2 0 3 43 1 5 0 3 76 
EIF[ ]	/* EndIf */
EIF[ ]	/* EndIf */
MPPEM[ ]	/* MeasurePixelPerEm */
PUSHB[ ]	/* 1 value pushed */
38 
LT[ ]	/* LessThan */
IF[ ]	/* If */
NPUSHB[ ]	/* 29 values pushed */
0 4 0 1 0 4 1 103 0 3 3 2 97 0 2 2 23 77 0 0 0 5 97 0 5 5 24 5 78 
ELSE[ ]	/* Else */
MPPEM[ ]	/* MeasurePixelPerEm */
PUSHB[ ]	/* 1 value pushed */
42 
LT[ ]	/* LessThan */
IF[ ]	/* If */
NPUSHB[ ]	/* 29 values pushed */
0 4 0 1 0 4 1 103 0 3 3 2 97 0 2 2 19 77 0 0 0 5 97 0 5 5 24 5 78 
ELSE[ ]	/* Else */
MPPEM[ ]	/* MeasurePixelPerEm */
PUSHB[ ]	/* 1 value pushed */
44 
LT[ ]	/* LessThan */
IF[ ]	/* If */
NPUSHB[ ]	/* 26 values pushed */
0 4 0 1 0 4 1 103 0 0 0 5 0 5 101 0 3 3 2 97 0 2 2 19 3 78 
ELSE[ ]	/* Else */
MPPEM[ ]	/* MeasurePixelPerEm */
PUSHB[ ]	/* 1 value pushed */
45 
LT[ ]	/* LessThan */
IF[ ]	/* If */
NPUSHB[ ]	/* 26 values pushed */
0 1 3 0 3 1 0 128 0 0 0 5 0 5 101 0 3 3 2 97 0 2 2 19 3 78 
ELSE[ ]	/* Else */
MPPEM[ ]	/* MeasurePixelPerEm */
PUSHB[ ]	/* 1 value pushed */
47 
LT[ ]	/* LessThan */
IF[ ]	/* If */
NPUSHB[ ]	/* 32 values pushed */
0 1 3 0 3 1 0 128 0 2 0 3 1 2 3 105 0 0 5 5 0 89 0 0 0 5 97 0 5 0 5 81 
ELSE[ ]	/* Else */
NPUSHB[ ]	/* 24 values pushed */
0 2 0 3 0 2 3 105 0 0 5 5 0 89 0 0 0 5 97 0 5 0 5 81 
EIF[ ]	/* EndIf */
EIF[ ]	/* EndIf */
EIF[ ]	/* EndIf */
EIF[ ]	/* EndIf */
EIF[ ]	/* EndIf */
NPUSHB[ ]	/* 9 values pushed */
36 53 37 38 54 33 6 7 28 
CALL[ ]	/* CallFunction */";
};
visible = 1;
width = 913;
}
);
note = S;
unicode = 83;
},
{
glyphname = T;
kernLeft = T;
kernRight = T;
lastChange = "2022-04-09 17:02:39 +0000";
layers = (
{
anchors = (
{
name = bottom;
pos = (406,0);
},
{
name = center;
pos = (406,350);
},
{
name = top;
pos = (406,700);
}
);
layerId = m01;
shapes = (
{
closed = 1;
nodes = (
(156,670,l),
(361,670,l),
(361,70,l),
(231,2,l),
(231,0,l),
(575,0,l),
(575,2,l),
(445,70,l),
(445,670,l),
(651,670,l),
(796,418,l),
(798,420,l),
(733,720,l),
(731,720,l),
(673,700,l),
(132,700,l),
(75,720,l),
(73,720,l),
(10,418,l),
(9,418,l)
);
}
);
userData = {
assembly = "NPUSHB[ ]	/* 13 values pushed */
16 11 7 3 2 1 1 76 5 1 2 0 74 
MPPEM[ ]	/* MeasurePixelPerEm */
PUSHB[ ]	/* 1 value pushed */
25 
LT[ ]	/* LessThan */
IF[ ]	/* If */
NPUSHB[ ]	/* 17 values pushed */
3 1 1 1 0 95 0 0 0 17 77 0 2 2 21 2 78 
ELSE[ ]	/* Else */
NPUSHB[ ]	/* 15 values pushed */
0 0 3 1 1 2 0 1 103 0 2 2 21 2 78 
EIF[ ]	/* EndIf */
PUSHB[ ]	/* 7 values pushed */
19 34 21 19 4 7 26 
CALL[ ]	/* CallFunction */";
};
width = 812;
},
{
anchors = (
{
name = bottom;
pos = (465,0);
},
{
name = center;
pos = (465,350);
},
{
name = top;
pos = (465,700);
}
);
layerId = "03DC8633-12B9-4C09-834B-15CC0827035A";
shapes = (
{
closed = 1;
nodes = (
(378,560,l),
(378,0,l),
(552,0,l),
(552,560,l),
(880,560,l),
(880,700,l),
(50,700,l),
(50,560,l)
);
}
);
userData = {
assembly = "MPPEM[ ]	/* MeasurePixelPerEm */
PUSHB[ ]	/* 1 value pushed */
38 
LT[ ]	/* LessThan */
IF[ ]	/* If */
NPUSHB[ ]	/* 17 values pushed */
3 1 1 1 0 95 0 0 0 17 77 0 2 2 18 2 78 
ELSE[ ]	/* Else */
MPPEM[ ]	/* MeasurePixelPerEm */
PUSHB[ ]	/* 1 value pushed */
42 
LT[ ]	/* LessThan */
IF[ ]	/* If */
NPUSHB[ ]	/* 15 values pushed */
0 0 3 1 1 2 0 1 103 0 2 2 18 2 78 
ELSE[ ]	/* Else */
NPUSHB[ ]	/* 22 values pushed */
0 2 1 2 134 0 0 1 1 0 87 0 0 0 1 95 3 1 1 0 1 79 
EIF[ ]	/* EndIf */
EIF[ ]	/* EndIf */
PUSHB[ ]	/* 7 values pushed */
17 17 17 16 4 7 26 
CALL[ ]	/* CallFunction */";
};
width = 930;
},
{
anchors = (
{
name = bottom;
pos = (413,0);
},
{
name = center;
pos = (413,325);
},
{
name = top;
pos = (413,650);
}
);
associatedMasterId = m01;
layerId = "0136F452-B028-4218-A2C3-73A05CD6D0C1";
name = "11 feb 22, 17:53";
shapes = (
{
closed = 1;
nodes = (
(166,620,l),
(368,620,l),
(368,72,l),
(268,2,l),
(268,0,l),
(558,0,l),
(558,2,l),
(458,72,l),
(458,620,l),
(660,620,l),
(813,448,l),
(815,450,l),
(722,670,l),
(720,670,l),
(682,650,l),
(142,650,l),
(105,670,l),
(103,670,l),
(12,448,l),
(11,448,l)
);
}
);
userData = {
assembly = "NPUSHB[ ]	/* 13 values pushed */
16 11 7 3 2 1 1 76 5 1 2 0 74 
MPPEM[ ]	/* MeasurePixelPerEm */
PUSHB[ ]	/* 1 value pushed */
25 
LT[ ]	/* LessThan */
IF[ ]	/* If */
NPUSHB[ ]	/* 17 values pushed */
3 1 1 1 0 95 0 0 0 17 77 0 2 2 21 2 78 
ELSE[ ]	/* Else */
NPUSHB[ ]	/* 15 values pushed */
0 0 3 1 1 2 0 1 103 0 2 2 21 2 78 
EIF[ ]	/* EndIf */
PUSHB[ ]	/* 7 values pushed */
19 34 21 19 4 7 26 
CALL[ ]	/* CallFunction */";
};
width = 825;
}
);
note = T;
unicode = 84;
},
{
glyphname = U;
kernLeft = U;
kernRight = U;
lastChange = "2022-04-09 17:02:39 +0000";
layers = (
{
anchors = (
{
name = bottom;
pos = (490,0);
},
{
name = ogonek;
pos = (676,17);
},
{
name = top;
pos = (490,700);
},
{
name = topright;
pos = (950,700);
}
);
layerId = m01;
shapes = (
{
closed = 1;
nodes = (
(54,699,l),
(169,635,l),
(168,242,ls),
(168,187,o),
(145,156,o),
(116,156,c),
(221,68,o),
(330,-15,o),
(505,-15,cs),
(654,-15,o),
(758,41,o),
(887,156,c),
(853,156,o),
(810,189,o),
(810,242,cs),
(810,633,l),
(943,699,l),
(943,700,l),
(638,700,l),
(638,699,l),
(771,633,l),
(771,251,ls),
(771,97,o),
(662,17,o),
(511,17,cs),
(349,17,o),
(248,97,o),
(249,251,cs),
(251,635,l),
(364,698,l),
(364,700,l),
(54,700,l)
);
}
);
userData = {
assembly = "NPUSHB[ ]	/* 9 values pushed */
29 22 17 1 4 0 3 1 76 
MPPEM[ ]	/* MeasurePixelPerEm */
PUSHB[ ]	/* 1 value pushed */
25 
LT[ ]	/* LessThan */
IF[ ]	/* If */
NPUSHB[ ]	/* 26 values pushed */
2 1 0 3 4 3 0 4 128 5 1 3 3 17 77 0 4 4 1 97 0 1 1 27 1 78 
ELSE[ ]	/* Else */
NPUSHB[ ]	/* 23 values pushed */
5 1 3 0 3 133 2 1 0 4 0 133 0 4 4 1 97 0 1 1 27 1 78 
EIF[ ]	/* EndIf */
NPUSHB[ ]	/* 9 values pushed */
35 37 37 18 35 20 6 7 28 
CALL[ ]	/* CallFunction */";
};
width = 980;
},
{
anchors = (
{
name = bottom;
pos = (510,0);
},
{
name = ogonek;
pos = (684,10);
},
{
name = top;
pos = (510,700);
},
{
name = topright;
pos = (999,700);
}
);
layerId = "03DC8633-12B9-4C09-834B-15CC0827035A";
shapes = (
{
closed = 1;
nodes = (
(80,122,o),
(234,-15,o),
(509,-15,cs),
(786,-15,o),
(940,122,o),
(939,366,cs),
(938,701,l),
(769,700,l),
(769,365,ls),
(769,211,o),
(676,125,o),
(509,125,cs),
(342,125,o),
(249,211,o),
(249,365,cs),
(249,700,l),
(80,701,l),
(80,366,ls)
);
}
);
userData = {
assembly = "MPPEM[ ]	/* MeasurePixelPerEm */
PUSHB[ ]	/* 1 value pushed */
38 
LT[ ]	/* LessThan */
IF[ ]	/* If */
NPUSHB[ ]	/* 17 values pushed */
2 1 0 0 17 77 0 1 1 3 97 0 3 3 27 3 78 
ELSE[ ]	/* Else */
MPPEM[ ]	/* MeasurePixelPerEm */
PUSHB[ ]	/* 1 value pushed */
42 
LT[ ]	/* LessThan */
IF[ ]	/* If */
NPUSHB[ ]	/* 17 values pushed */
2 1 0 1 0 133 0 1 1 3 97 0 3 3 24 3 78 
ELSE[ ]	/* Else */
NPUSHB[ ]	/* 22 values pushed */
2 1 0 1 0 133 0 1 3 3 1 89 0 1 1 3 97 0 3 1 3 81 
EIF[ ]	/* EndIf */
EIF[ ]	/* EndIf */
PUSHB[ ]	/* 7 values pushed */
36 20 36 16 4 7 26 
CALL[ ]	/* CallFunction */";
};
width = 1019;
}
);
note = U;
unicode = 85;
},
{
glyphname = V;
kernLeft = V;
kernRight = V;
lastChange = "2022-04-09 17:02:39 +0000";
layers = (
{
layerId = m01;
shapes = (
{
closed = 1;
nodes = (
(210,626,l),
(314,698,l),
(314,700,l),
(-42,700,l),
(-42,698,l),
(117,626,l),
(442,0,l),
(534,0,l)
);
},
{
closed = 1;
nodes = (
(493,58,l),
(754,618,l),
(916,700,l),
(916,699,l),
(608,700,l),
(608,698,l),
(716,618,l),
(469,82,l)
);
}
);
userData = {
assembly = "NPUSHB[ ]	/* 9 values pushed */
12 11 10 2 4 0 1 1 76 
MPPEM[ ]	/* MeasurePixelPerEm */
PUSHB[ ]	/* 1 value pushed */
25 
LT[ ]	/* LessThan */
IF[ ]	/* If */
NPUSHB[ ]	/* 12 values pushed */
2 1 1 1 17 77 0 0 0 21 0 78 
ELSE[ ]	/* Else */
NPUSHB[ ]	/* 12 values pushed */
2 1 1 0 1 133 0 0 0 21 0 78 
EIF[ ]	/* EndIf */
PUSHB[ ]	/* 6 values pushed */
37 34 19 3 7 25 
CALL[ ]	/* CallFunction */";
};
width = 872;
},
{
layerId = "03DC8633-12B9-4C09-834B-15CC0827035A";
shapes = (
{
closed = 1;
nodes = (
(397,0,l),
(560,0,l),
(950,700,l),
(770,700,l),
(478,170,l),
(194,700,l),
(10,700,l)
);
}
);
userData = {
assembly = "PUSHB[ ]	/* 6 values pushed */
1 1 1 0 1 76 
MPPEM[ ]	/* MeasurePixelPerEm */
PUSHB[ ]	/* 1 value pushed */
38 
LT[ ]	/* LessThan */
IF[ ]	/* If */
NPUSHB[ ]	/* 13 values pushed */
3 2 2 0 0 17 77 0 1 1 18 1 78 
ELSE[ ]	/* Else */
MPPEM[ ]	/* MeasurePixelPerEm */
PUSHB[ ]	/* 1 value pushed */
42 
LT[ ]	/* LessThan */
IF[ ]	/* If */
NPUSHB[ ]	/* 13 values pushed */
3 2 2 0 1 0 133 0 1 1 18 1 78 
ELSE[ ]	/* Else */
NPUSHB[ ]	/* 11 values pushed */
3 2 2 0 1 0 133 0 1 1 118 
EIF[ ]	/* EndIf */
EIF[ ]	/* EndIf */
NPUSHB[ ]	/* 11 values pushed */
0 0 0 6 0 6 17 18 4 7 24 
CALL[ ]	/* CallFunction */";
};
width = 960;
}
);
note = V;
unicode = 86;
},
{
glyphname = W;
kernLeft = V;
kernRight = V;
lastChange = "2022-04-09 17:02:39 +0000";
layers = (
{
layerId = m01;
shapes = (
{
closed = 1;
nodes = (
(217,637,l),
(321,698,l),
(321,700,l),
(-38,700,l),
(-38,698,l),
(121,635,l),
(420,0,l),
(515,0,l)
);
},
{
closed = 1;
nodes = (
(960,58,l),
(1202,643,l),
(1354,698,l),
(1354,700,l),
(1052,700,l),
(1052,698,l),
(1167,643,l),
(934,85,l)
);
},
{
closed = 1;
nodes = (
(907,0,l),
(1002,0,l),
(704,637,l),
(808,698,l),
(808,700,l),
(449,700,l),
(449,698,l),
(608,635,l)
);
},
{
closed = 1;
nodes = (
(658,554,l),
(447,85,l),
(473,58,l),
(675,520,l)
);
}
);
userData = {
assembly = "NPUSHB[ ]	/* 14 values pushed */
25 24 22 16 15 14 6 5 2 9 0 2 1 76 
MPPEM[ ]	/* MeasurePixelPerEm */
PUSHB[ ]	/* 1 value pushed */
25 
LT[ ]	/* LessThan */
IF[ ]	/* If */
NPUSHB[ ]	/* 14 values pushed */
4 3 2 2 2 17 77 1 1 0 0 21 0 78 
ELSE[ ]	/* Else */
NPUSHB[ ]	/* 14 values pushed */
4 3 2 2 0 2 133 1 1 0 0 21 0 78 
EIF[ ]	/* EndIf */
PUSHB[ ]	/* 8 values pushed */
38 38 34 19 19 5 7 27 
CALL[ ]	/* CallFunction */";
};
width = 1322;
},
{
layerId = "03DC8633-12B9-4C09-834B-15CC0827035A";
shapes = (
{
closed = 1;
nodes = (
(1298,700,l),
(1096,700,l),
(940,179,l),
(748,700,l),
(555,700,l),
(356,179,l),
(200,700,l),
(0,700,l),
(250,0,l),
(437,0,l),
(651,506,l),
(848,0,l),
(1048,0,l),
(1048,0,l)
);
}
);
userData = {
assembly = "PUSHB[ ]	/* 8 values pushed */
9 6 1 3 0 1 1 76 
MPPEM[ ]	/* MeasurePixelPerEm */
PUSHB[ ]	/* 1 value pushed */
38 
LT[ ]	/* LessThan */
IF[ ]	/* If */
NPUSHB[ ]	/* 15 values pushed */
3 2 2 1 1 17 77 5 4 2 0 0 18 0 78 
ELSE[ ]	/* Else */
MPPEM[ ]	/* MeasurePixelPerEm */
PUSHB[ ]	/* 1 value pushed */
42 
LT[ ]	/* LessThan */
IF[ ]	/* If */
NPUSHB[ ]	/* 15 values pushed */
3 2 2 1 0 1 133 5 4 2 0 0 18 0 78 
ELSE[ ]	/* Else */
NPUSHB[ ]	/* 13 values pushed */
3 2 2 1 0 1 133 5 4 2 0 0 118 
EIF[ ]	/* EndIf */
EIF[ ]	/* EndIf */
NPUSHB[ ]	/* 13 values pushed */
0 0 0 12 0 12 18 18 17 18 6 7 26 
CALL[ ]	/* CallFunction */";
};
width = 1298;
},
{
associatedMasterId = m01;
layerId = "6AB8F4AA-A172-4BEB-AC43-F6B44E51221C";
name = "11 feb 22, 18:44";
shapes = (
{
closed = 1;
nodes = (
(409,82,l),
(165,576,l),
(269,648,l),
(269,650,l),
(-90,650,l),
(-90,648,l),
(69,576,l),
(368,0,l),
(463,0,l),
(420,71,l)
);
},
{
closed = 1;
nodes = (
(918,58,l),
(1160,572,l),
(1312,648,l),
(1312,650,l),
(1010,650,l),
(1010,648,l),
(1128,572,l),
(900,82,l)
);
},
{
closed = 1;
nodes = (
(421,58,l),
(619,462,l),
(865,0,l),
(960,0,l),
(917,71,l),
(906,82,l),
(663,556,l),
(652,576,l),
(756,648,l),
(756,650,l),
(397,650,l),
(397,648,l),
(556,576,l),
(602,493,l),
(403,82,l)
);
}
);
userData = {
assembly = "NPUSHB[ ]	/* 14 values pushed */
25 24 22 16 15 14 6 5 2 9 0 2 1 76 
MPPEM[ ]	/* MeasurePixelPerEm */
PUSHB[ ]	/* 1 value pushed */
25 
LT[ ]	/* LessThan */
IF[ ]	/* If */
NPUSHB[ ]	/* 14 values pushed */
4 3 2 2 2 17 77 1 1 0 0 21 0 78 
ELSE[ ]	/* Else */
NPUSHB[ ]	/* 14 values pushed */
4 3 2 2 0 2 133 1 1 0 0 21 0 78 
EIF[ ]	/* EndIf */
PUSHB[ ]	/* 8 values pushed */
38 38 34 19 19 5 7 27 
CALL[ ]	/* CallFunction */";
};
width = 1302;
}
);
note = W;
unicode = 87;
},
{
glyphname = X;
kernLeft = X;
kernRight = X;
lastChange = "2022-04-09 17:02:39 +0000";
layers = (
{
layerId = m01;
shapes = (
{
closed = 1;
nodes = (
(406,342,l),
(182,75,l),
(35,2,l),
(35,0,l),
(364,0,l),
(364,2,l),
(224,69,l),
(429,317,l)
);
},
{
closed = 1;
nodes = (
(473,359,l),
(696,628,l),
(855,698,l),
(855,700,l),
(525,700,l),
(525,698,l),
(655,632,l),
(450,385,l)
);
},
{
closed = 1;
nodes = (
(262,638,l),
(374,698,l),
(374,700,l),
(4,700,l),
(4,698,l),
(144,637,l),
(635,61,l),
(510,2,l),
(510,0,l),
(880,0,l),
(880,2,l),
(738,72,l)
);
}
);
userData = {
assembly = "NPUSHB[ ]	/* 13 values pushed */
26 20 19 18 12 6 5 4 8 0 2 1 76 
MPPEM[ ]	/* MeasurePixelPerEm */
PUSHB[ ]	/* 1 value pushed */
25 
LT[ ]	/* LessThan */
IF[ ]	/* If */
NPUSHB[ ]	/* 13 values pushed */
3 1 2 2 17 77 1 1 0 0 21 0 78 
ELSE[ ]	/* Else */
NPUSHB[ ]	/* 13 values pushed */
3 1 2 0 2 133 1 1 0 0 21 0 78 
EIF[ ]	/* EndIf */
PUSHB[ ]	/* 7 values pushed */
37 37 37 32 4 7 26 
CALL[ ]	/* CallFunction */";
};
width = 883;
},
{
layerId = "03DC8633-12B9-4C09-834B-15CC0827035A";
shapes = (
{
closed = 1;
nodes = (
(759,0,l),
(987,0,l),
(632,362,l),
(975,700,l),
(749,700,l),
(515,474,l),
(281,700,l),
(53,700,l),
(397,362,l),
(43,0,l),
(269,0,l),
(515,251,l),
(515,251,l)
);
}
);
userData = {
assembly = "NPUSHB[ ]	/* 9 values pushed */
11 8 5 2 4 0 1 1 76 
MPPEM[ ]	/* MeasurePixelPerEm */
PUSHB[ ]	/* 1 value pushed */
38 
LT[ ]	/* LessThan */
IF[ ]	/* If */
NPUSHB[ ]	/* 13 values pushed */
2 1 1 1 17 77 3 1 0 0 18 0 78 
ELSE[ ]	/* Else */
MPPEM[ ]	/* MeasurePixelPerEm */
PUSHB[ ]	/* 1 value pushed */
42 
LT[ ]	/* LessThan */
IF[ ]	/* If */
NPUSHB[ ]	/* 13 values pushed */
2 1 1 1 0 95 3 1 0 0 18 0 78 
ELSE[ ]	/* Else */
NPUSHB[ ]	/* 19 values pushed */
2 1 1 0 0 1 87 2 1 1 1 0 95 3 1 0 1 0 79 
EIF[ ]	/* EndIf */
EIF[ ]	/* EndIf */
PUSHB[ ]	/* 7 values pushed */
18 18 18 16 4 7 26 
CALL[ ]	/* CallFunction */";
};
width = 1030;
}
);
note = X;
unicode = 88;
},
{
glyphname = Y;
kernLeft = V;
kernRight = V;
lastChange = "2022-04-09 17:02:39 +0000";
layers = (
{
anchors = (
{
name = bottom;
pos = (373,0);
},
{
name = top;
pos = (373,700);
},
{
name = topleft;
pos = (20,700);
}
);
layerId = m01;
shapes = (
{
closed = 1;
nodes = (
(92,631,l),
(346,301,l),
(346,69,l),
(224,2,l),
(224,0,l),
(556,0,l),
(556,2,l),
(431,69,l),
(431,302,l),
(654,635,l),
(776,698,l),
(776,700,l),
(504,700,l),
(504,698,l),
(616,636,l),
(410,334,l),
(180,637,l),
(288,698,l),
(288,700,l),
(-36,700,l),
(-36,698,l)
);
}
);
userData = {
assembly = "NPUSHB[ ]	/* 12 values pushed */
18 17 12 11 5 4 3 7 2 0 1 76 
MPPEM[ ]	/* MeasurePixelPerEm */
PUSHB[ ]	/* 1 value pushed */
25 
LT[ ]	/* LessThan */
IF[ ]	/* If */
NPUSHB[ ]	/* 13 values pushed */
1 3 2 0 0 17 77 0 2 2 21 2 78 
ELSE[ ]	/* Else */
NPUSHB[ ]	/* 13 values pushed */
1 3 2 0 2 0 133 0 2 2 21 2 78 
EIF[ ]	/* EndIf */
NPUSHB[ ]	/* 13 values pushed */
1 0 15 13 8 6 0 20 1 20 4 7 22 
CALL[ ]	/* CallFunction */";
};
width = 746;
},
{
anchors = (
{
name = bottom;
pos = (481,0);
},
{
name = top;
pos = (481,700);
},
{
name = topleft;
pos = (20,700);
}
);
layerId = "03DC8633-12B9-4C09-834B-15CC0827035A";
shapes = (
{
closed = 1;
nodes = (
(759,700,l),
(483,393,l),
(205,700,l),
(0,700,l),
(397,253,l),
(397,0,l),
(568,0,l),
(568,253,l),
(962,700,l)
);
}
);
userData = {
assembly = "PUSHB[ ]	/* 8 values pushed */
6 3 0 3 0 1 1 76 
MPPEM[ ]	/* MeasurePixelPerEm */
PUSHB[ ]	/* 1 value pushed */
38 
LT[ ]	/* LessThan */
IF[ ]	/* If */
NPUSHB[ ]	/* 12 values pushed */
2 1 1 1 17 77 0 0 0 18 0 78 
ELSE[ ]	/* Else */
MPPEM[ ]	/* MeasurePixelPerEm */
PUSHB[ ]	/* 1 value pushed */
42 
LT[ ]	/* LessThan */
IF[ ]	/* If */
NPUSHB[ ]	/* 12 values pushed */
2 1 1 0 1 133 0 0 0 18 0 78 
ELSE[ ]	/* Else */
NPUSHB[ ]	/* 10 values pushed */
2 1 1 0 1 133 0 0 0 118 
EIF[ ]	/* EndIf */
EIF[ ]	/* EndIf */
PUSHB[ ]	/* 6 values pushed */
18 18 17 3 7 25 
CALL[ ]	/* CallFunction */";
};
width = 962;
},
{
anchors = (
{
name = bottom;
pos = (369,0);
},
{
name = top;
pos = (369,650);
},
{
name = topleft;
pos = (20,650);
}
);
associatedMasterId = m01;
layerId = "946055CA-C46B-40D9-AFE6-904BFE51BB2A";
name = "11 feb 22, 18:21";
shapes = (
{
closed = 1;
nodes = (
(79,576,l),
(347,281,l),
(347,72,l),
(245,2,l),
(245,0,l),
(548,0,l),
(548,2,l),
(443,72,l),
(443,284,l),
(674,555,l),
(787,648,l),
(787,650,l),
(515,650,l),
(515,648,l),
(629,541,l),
(422,303,l),
(185,576,l),
(279,648,l),
(279,650,l),
(-50,650,l),
(-50,648,l)
);
}
);
userData = {
assembly = "NPUSHB[ ]	/* 12 values pushed */
18 17 12 11 5 4 3 7 2 0 1 76 
MPPEM[ ]	/* MeasurePixelPerEm */
PUSHB[ ]	/* 1 value pushed */
25 
LT[ ]	/* LessThan */
IF[ ]	/* If */
NPUSHB[ ]	/* 13 values pushed */
1 3 2 0 0 17 77 0 2 2 21 2 78 
ELSE[ ]	/* Else */
NPUSHB[ ]	/* 13 values pushed */
1 3 2 0 2 0 133 0 2 2 21 2 78 
EIF[ ]	/* EndIf */
NPUSHB[ ]	/* 13 values pushed */
1 0 15 13 8 6 0 20 1 20 4 7 22 
CALL[ ]	/* CallFunction */";
};
width = 737;
}
);
note = Y;
unicode = 89;
},
{
glyphname = Z;
kernLeft = Z;
kernRight = Z;
lastChange = "2022-04-09 17:02:39 +0000";
layers = (
{
anchors = (
{
name = bottom;
pos = (373,0);
},
{
name = center;
pos = (373,350);
},
{
name = top;
pos = (373,700);
}
);
layerId = m01;
shapes = (
{
closed = 1;
nodes = (
(15,0,l),
(15,2,l),
(565,668,l),
(177,668,l),
(15,425,l),
(13,426,l),
(84,735,l),
(136,700,l),
(695,700,l),
(695,698,l),
(150,32,l),
(536,32,l),
(726,266,l),
(728,266,l),
(622,-35,l),
(620,-35,l),
(567,0,l)
);
}
);
userData = {
assembly = "NPUSHB[ ]	/* 11 values pushed */
11 2 2 0 2 1 76 9 1 1 74 
MPPEM[ ]	/* MeasurePixelPerEm */
PUSHB[ ]	/* 1 value pushed */
25 
LT[ ]	/* LessThan */
IF[ ]	/* If */
NPUSHB[ ]	/* 21 values pushed */
0 2 2 1 95 0 1 1 17 77 0 0 0 3 95 0 3 3 21 3 78 
ELSE[ ]	/* Else */
NPUSHB[ ]	/* 19 values pushed */
0 1 0 2 0 1 2 103 0 0 0 3 95 0 3 3 21 3 78 
EIF[ ]	/* EndIf */
PUSHB[ ]	/* 7 values pushed */
33 21 33 20 4 7 26 
CALL[ ]	/* CallFunction */";
};
width = 746;
},
{
anchors = (
{
name = bottom;
pos = (486,0);
},
{
name = center;
pos = (486,350);
},
{
name = top;
pos = (486,700);
}
);
layerId = "03DC8633-12B9-4C09-834B-15CC0827035A";
shapes = (
{
closed = 1;
nodes = (
(888,700,l),
(86,700,l),
(86,565,l),
(654,565,l),
(75,131,l),
(75,0,l),
(897,0,l),
(897,135,l),
(320,135,l),
(888,569,l),
(888,569,l)
);
}
);
userData = {
assembly = "NPUSHB[ ]	/* 10 values pushed */
9 1 2 3 4 1 1 0 2 76 
MPPEM[ ]	/* MeasurePixelPerEm */
PUSHB[ ]	/* 1 value pushed */
38 
LT[ ]	/* LessThan */
IF[ ]	/* If */
NPUSHB[ ]	/* 21 values pushed */
0 2 2 3 95 0 3 3 17 77 0 0 0 1 95 0 1 1 18 1 78 
ELSE[ ]	/* Else */
MPPEM[ ]	/* MeasurePixelPerEm */
PUSHB[ ]	/* 1 value pushed */
42 
LT[ ]	/* LessThan */
IF[ ]	/* If */
NPUSHB[ ]	/* 19 values pushed */
0 3 0 2 0 3 2 103 0 0 0 1 95 0 1 1 18 1 78 
ELSE[ ]	/* Else */
NPUSHB[ ]	/* 24 values pushed */
0 3 0 2 0 3 2 103 0 0 1 1 0 87 0 0 0 1 95 0 1 0 1 79 
EIF[ ]	/* EndIf */
EIF[ ]	/* EndIf */
PUSHB[ ]	/* 7 values pushed */
17 18 17 16 4 7 26 
CALL[ ]	/* CallFunction */";
};
width = 972;
}
);
note = Z;
unicode = 90;
},
{
glyphname = a;
kernLeft = a;
kernRight = a;
lastChange = "2022-04-09 17:02:39 +0000";
layers = (
{
anchors = (
{
name = bottom;
pos = (355,0);
},
{
name = ogonek;
pos = (654,10);
},
{
name = top;
pos = (355,500);
}
);
layerId = m01;
shapes = (
{
closed = 1;
nodes = (
(517,271,l),
(325,271,ls),
(204,271,o),
(50,244,o),
(50,123,cs),
(50,40,o),
(122,-15,o),
(251,-15,cs),
(333,-15,o),
(442,21,o),
(515,103,c),
(516,135,l),
(437,55,o),
(339,18,o),
(268,18,cs),
(187,18,o),
(136,51,o),
(136,128,cs),
(136,236,o),
(249,246,o),
(365,246,cs),
(517,246,l)
);
},
{
closed = 1;
nodes = (
(511,0,l),
(699,0,l),
(699,2,l),
(591,62,l),
(591,283,ls),
(591,431,o),
(494,514,o),
(332,514,cs),
(217,514,o),
(118,465,o),
(50,381,c),
(109,305,l),
(111,305,l),
(160,426,o),
(232,486,o),
(334,486,cs),
(427,486,o),
(511,420,o),
(511,310,cs)
);
}
);
userData = {
assembly = "NPUSHB[ ]	/* 57 values pushed */
7 5 2 4 0 34 18 14 3 5 6 2 76 0 4 0 6 5 4 6 103 0 0 0 1 97 0 1 1 26 77 0 2 2 21 77 0 5 5 3 97 0 3 3 27 3 78 35 35 36 34 36 37 34 7 7 29 
CALL[ ]	/* CallFunction */";
};
width = 729;
},
{
anchors = (
{
name = bottom;
pos = (375,0);
},
{
name = ogonek;
pos = (674,10);
},
{
name = top;
pos = (375,500);
}
);
associatedMasterId = m01;
layerId = "B586EE0A-0FA9-4C38-8F1A-576C7B236DC5";
name = "11 feb 22, 17:12";
shapes = (
{
closed = 1;
nodes = (
(537,271,l),
(365,271,ls),
(234,271,o),
(50,244,o),
(50,117,cs),
(50,39.667,o),
(118.333,-15,o),
(257,-15,cs),
(369,-15,o),
(462,21,o),
(535,93,c),
(536,116,l),
(457,56,o),
(375,18,o),
(274,18,cs),
(183.333,18,o),
(130,51.333,o),
(130,122,cs),
(130,236,o),
(289,247,o),
(405,247,cs),
(537,247,l)
);
},
{
closed = 1;
nodes = (
(531,0,l),
(719,0,l),
(719,2,l),
(611,62,l),
(611,289,ls),
(611,429,o),
(505.667,514,o),
(343,514,cs),
(216.333,514,o),
(132,465,o),
(60,381,c),
(109,305,l),
(111,305,l),
(163.667,425.667,o),
(239.667,486,o),
(339,486,cs),
(449.804,486,o),
(531,407.679,o),
(531,298,cs)
);
}
);
userData = {
assembly = "NPUSHB[ ]	/* 57 values pushed */
7 5 2 4 0 34 18 14 3 5 6 2 76 0 4 0 6 5 4 6 103 0 0 0 1 97 0 1 1 26 77 0 2 2 21 77 0 5 5 3 97 0 3 3 27 3 78 35 35 36 34 36 37 34 7 7 29 
CALL[ ]	/* CallFunction */";
};
width = 749;
},
{
anchors = (
{
name = bottom;
pos = (413,0);
},
{
name = ogonek;
pos = (743,10);
},
{
name = top;
pos = (393,500);
}
);
layerId = "03DC8633-12B9-4C09-834B-15CC0827035A";
shapes = (
{
closed = 1;
nodes = (
(565,159,l),
(524,118,o),
(444,90,o),
(364,90,cs),
(288,90,o),
(250,110,o),
(250,153,cs),
(250,214,o),
(348,219,o),
(437,219,cs),
(565,219,l)
);
},
{
closed = 1;
nodes = (
(154,324,l),
(233,371,o),
(315,390,o),
(397,390,cs),
(509,390,o),
(565,354,o),
(565,298,c),
(413,297,ls),
(275,296,o),
(70,269,o),
(70,136,cs),
(70,34,o),
(162,-15,o),
(308,-15,cs),
(386,-15,o),
(500,12,o),
(565,73,c),
(565,0,l),
(725,0,l),
(725,222,ls),
(725,431,o),
(611,515,o),
(397,515,cs),
(296,515,o),
(186,487,o),
(111,443,c)
);
}
);
userData = {
assembly = "NPUSHB[ ]	/* 18 values pushed */
24 1 3 4 23 1 2 3 10 1 0 1 33 1 5 0 4 76 
MPPEM[ ]	/* MeasurePixelPerEm */
PUSHB[ ]	/* 1 value pushed */
12 
LT[ ]	/* LessThan */
IF[ ]	/* If */
NPUSHB[ ]	/* 31 values pushed */
0 2 7 1 1 0 2 1 105 0 3 3 4 97 0 4 4 26 77 0 0 0 5 97 6 1 5 5 18 5 78 
ELSE[ ]	/* Else */
MPPEM[ ]	/* MeasurePixelPerEm */
PUSHB[ ]	/* 1 value pushed */
38 
LT[ ]	/* LessThan */
IF[ ]	/* If */
NPUSHB[ ]	/* 35 values pushed */
0 2 7 1 1 0 2 1 105 0 3 3 4 97 0 4 4 26 77 0 5 5 18 77 0 0 0 6 97 0 6 6 27 6 78 
ELSE[ ]	/* Else */
MPPEM[ ]	/* MeasurePixelPerEm */
PUSHB[ ]	/* 1 value pushed */
42 
LT[ ]	/* LessThan */
IF[ ]	/* If */
NPUSHB[ ]	/* 33 values pushed */
0 4 0 3 2 4 3 105 0 2 7 1 1 0 2 1 105 0 5 5 18 77 0 0 0 6 97 0 6 6 24 6 78 
ELSE[ ]	/* Else */
NPUSHB[ ]	/* 41 values pushed */
0 5 0 6 0 5 6 128 0 4 0 3 2 4 3 105 0 2 7 1 1 0 2 1 105 0 0 5 6 0 89 0 0 0 6 97 0 6 0 6 81 
EIF[ ]	/* EndIf */
EIF[ ]	/* EndIf */
EIF[ ]	/* EndIf */
NPUSHB[ ]	/* 20 values pushed */
0 0 37 35 32 31 28 26 21 19 17 15 0 11 0 11 38 8 7 23 
CALL[ ]	/* CallFunction */";
};
width = 825;
},
{
anchors = (
{
name = bottom;
pos = (413,0);
},
{
name = ogonek;
pos = (743,10);
},
{
name = top;
pos = (393,500);
}
);
associatedMasterId = "03DC8633-12B9-4C09-834B-15CC0827035A";
layerId = "ED3FDB05-8DEC-4CD4-9F2B-60026444595B";
name = "4 apr 22, 10:05";
shapes = (
{
closed = 1;
nodes = (
(565,159,l),
(524,118,o),
(444,90,o),
(364,90,cs),
(288,90,o),
(250,110,o),
(250,153,cs),
(250,214,o),
(348,219,o),
(437,219,cs),
(565,219,l)
);
},
{
closed = 1;
nodes = (
(70,34,o),
(162,-15,o),
(308,-15,cs),
(386,-15,o),
(500,12,o),
(565,73,c),
(565,0,l),
(725,0,l),
(725,222,ls),
(725,431,o),
(611,515,o),
(397,515,cs),
(276,515,o),
(143,475,o),
(71,416,c),
(111,296,l),
(203,363,o),
(300,390,o),
(397,390,cs),
(509,390,o),
(565,354,o),
(565,298,c),
(413,297,ls),
(275,296,o),
(70,269,o),
(70,136,cs)
);
}
);
userData = {
assembly = "NPUSHB[ ]	/* 18 values pushed */
24 1 3 4 23 1 2 3 10 1 0 1 33 1 5 0 4 76 
MPPEM[ ]	/* MeasurePixelPerEm */
PUSHB[ ]	/* 1 value pushed */
12 
LT[ ]	/* LessThan */
IF[ ]	/* If */
NPUSHB[ ]	/* 31 values pushed */
0 2 7 1 1 0 2 1 105 0 3 3 4 97 0 4 4 26 77 0 0 0 5 97 6 1 5 5 18 5 78 
ELSE[ ]	/* Else */
MPPEM[ ]	/* MeasurePixelPerEm */
PUSHB[ ]	/* 1 value pushed */
38 
LT[ ]	/* LessThan */
IF[ ]	/* If */
NPUSHB[ ]	/* 35 values pushed */
0 2 7 1 1 0 2 1 105 0 3 3 4 97 0 4 4 26 77 0 5 5 18 77 0 0 0 6 97 0 6 6 27 6 78 
ELSE[ ]	/* Else */
MPPEM[ ]	/* MeasurePixelPerEm */
PUSHB[ ]	/* 1 value pushed */
42 
LT[ ]	/* LessThan */
IF[ ]	/* If */
NPUSHB[ ]	/* 33 values pushed */
0 4 0 3 2 4 3 105 0 2 7 1 1 0 2 1 105 0 5 5 18 77 0 0 0 6 97 0 6 6 24 6 78 
ELSE[ ]	/* Else */
NPUSHB[ ]	/* 41 values pushed */
0 5 0 6 0 5 6 128 0 4 0 3 2 4 3 105 0 2 7 1 1 0 2 1 105 0 0 5 6 0 89 0 0 0 6 97 0 6 0 6 81 
EIF[ ]	/* EndIf */
EIF[ ]	/* EndIf */
EIF[ ]	/* EndIf */
NPUSHB[ ]	/* 20 values pushed */
0 0 37 35 32 31 28 26 21 19 17 15 0 11 0 11 38 8 7 23 
CALL[ ]	/* CallFunction */";
};
width = 825;
},
{
anchors = (
{
name = bottom;
pos = (413,0);
},
{
name = ogonek;
pos = (743,10);
},
{
name = top;
pos = (393,500);
}
);
associatedMasterId = "03DC8633-12B9-4C09-834B-15CC0827035A";
layerId = "A0138988-EFE8-43C5-8C1C-50BB69F000A3";
name = "21 feb 22, 11:51";
shapes = (
{
closed = 1;
nodes = (
(575,149,l),
(534,118,o),
(444,90,o),
(364,90,cs),
(314,90,o),
(278,94,o),
(255,102,cs),
(232,109,o),
(220,123,o),
(220,142,cs),
(220,161,o),
(231,176,o),
(254,187,cs),
(277,198,o),
(313,206,o),
(364,211,cs),
(416,216,o),
(486,219,o),
(575,219,c)
);
},
{
closed = 1;
nodes = (
(40,34,o),
(132,-20,o),
(288,-20,cs),
(416,-20,o),
(510,5,o),
(575,61,c),
(575,0,l),
(735,0,l),
(735,222,ls),
(735,431,o),
(621,520,o),
(397,520,cs),
(246,520,o),
(113,475,o),
(41,416,c),
(81,296,l),
(173,363,o),
(270,390,o),
(397,390,cs),
(529,390,o),
(575,364,o),
(575,296,c),
(420,295,o),
(308,290,o),
(212,273,cs),
(104,253,o),
(40,198,o),
(40,126,cs)
);
}
);
userData = {
assembly = "NPUSHB[ ]	/* 18 values pushed */
24 1 3 4 23 1 2 3 10 1 0 1 33 1 5 0 4 76 
MPPEM[ ]	/* MeasurePixelPerEm */
PUSHB[ ]	/* 1 value pushed */
12 
LT[ ]	/* LessThan */
IF[ ]	/* If */
NPUSHB[ ]	/* 31 values pushed */
0 2 7 1 1 0 2 1 105 0 3 3 4 97 0 4 4 26 77 0 0 0 5 97 6 1 5 5 18 5 78 
ELSE[ ]	/* Else */
MPPEM[ ]	/* MeasurePixelPerEm */
PUSHB[ ]	/* 1 value pushed */
38 
LT[ ]	/* LessThan */
IF[ ]	/* If */
NPUSHB[ ]	/* 35 values pushed */
0 2 7 1 1 0 2 1 105 0 3 3 4 97 0 4 4 26 77 0 5 5 18 77 0 0 0 6 97 0 6 6 27 6 78 
ELSE[ ]	/* Else */
MPPEM[ ]	/* MeasurePixelPerEm */
PUSHB[ ]	/* 1 value pushed */
42 
LT[ ]	/* LessThan */
IF[ ]	/* If */
NPUSHB[ ]	/* 33 values pushed */
0 4 0 3 2 4 3 105 0 2 7 1 1 0 2 1 105 0 5 5 18 77 0 0 0 6 97 0 6 6 24 6 78 
ELSE[ ]	/* Else */
NPUSHB[ ]	/* 41 values pushed */
0 5 0 6 0 5 6 128 0 4 0 3 2 4 3 105 0 2 7 1 1 0 2 1 105 0 0 5 6 0 89 0 0 0 6 97 0 6 0 6 81 
EIF[ ]	/* EndIf */
EIF[ ]	/* EndIf */
EIF[ ]	/* EndIf */
NPUSHB[ ]	/* 20 values pushed */
0 0 37 35 32 31 28 26 21 19 17 15 0 11 0 11 38 8 7 23 
CALL[ ]	/* CallFunction */";
};
width = 825;
}
);
note = a;
unicode = 97;
},
{
glyphname = ae;
kernLeft = a;
kernRight = e;
lastChange = "2022-04-09 17:03:12 +0000";
layers = (
{
anchors = (
{
name = bottom;
pos = (350,0);
},
{
name = ogonek;
pos = (649,10);
},
{
name = top;
pos = (350,500);
}
);
layerId = m01;
shapes = (
{
closed = 1;
nodes = (
(507,86,o),
(378,18,o),
(278,18,cs),
(197,18,o),
(139,51,o),
(139,128,cs),
(139,236,o),
(249,246,o),
(365,246,cs),
(507,246,l)
);
},
{
closed = 1;
nodes = (
(586,431,o),
(489,514,o),
(332,514,cs),
(217,514,o),
(118,465,o),
(50,381,c),
(109,305,l),
(111,305,l),
(160,426,o),
(232,486,o),
(334,486,cs),
(422,486,o),
(504,418,o),
(506,310,cs),
(507,253,l),
(586,283,l)
);
},
{
closed = 1;
nodes = (
(598,383,o),
(672,486,o),
(810,486,cs),
(933,486,o),
(1013,395,o),
(1013,284,c),
(587,284,l),
(588,255,l),
(1101,255,l),
(1101,412,o),
(984,514,o),
(810,514,cs),
(643,514,o),
(512,409,o),
(512,250,cs),
(512,101,o),
(633,-14,o),
(815,-14,cs),
(934,-14,o),
(1034,36,o),
(1086,115,c),
(1066,130,l),
(1019,63,o),
(941,27,o),
(846,27,cs),
(689,27,o),
(598,151,o),
(598,278,cs)
);
},
{
closed = 1;
nodes = (
(325,271,ls),
(204,271,o),
(50,244,o),
(50,123,cs),
(50,40,o),
(122,-15,o),
(261,-15,cs),
(400,-15,o),
(535,71,o),
(539,271,c)
);
}
);
userData = {
assembly = "NPUSHB[ ]	/* 69 values pushed */
54 40 35 33 27 5 9 3 53 15 8 7 4 0 6 2 76 10 1 9 0 6 0 9 6 103 8 1 3 3 4 97 5 1 4 4 26 77 7 1 0 0 1 97 2 1 1 1 27 1 78 62 62 62 69 62 69 46 33 19 35 38 41 37 39 34 11 7 31 
CALL[ ]	/* CallFunction */";
};
width = 1146;
},
{
layerId = "03DC8633-12B9-4C09-834B-15CC0827035A";
shapes = (
{
pos = (520,0);
ref = e;
scale = (0.97,1);
},
{
closed = 1;
nodes = (
(565,159,l),
(524,118,o),
(444,90,o),
(364,90,cs),
(288,90,o),
(250,110,o),
(250,153,cs),
(250,214,o),
(348,219,o),
(437,219,cs),
(565,219,l)
);
},
{
closed = 1;
nodes = (
(70,34,o),
(172,-15,o),
(318,-15,cs),
(396,-15,o),
(553,17,o),
(625,103,cs),
(725,222,l),
(725,431,o),
(611,515,o),
(397,515,cs),
(276,515,o),
(143,475,o),
(71,416,c),
(111,296,l),
(203,363,o),
(300,390,o),
(397,390,cs),
(509,390,o),
(565,354,o),
(565,298,c),
(413,297,ls),
(275,296,o),
(70,269,o),
(70,136,cs)
);
}
);
userData = {
assembly = "MPPEM[ ]	/* MeasurePixelPerEm */
PUSHB[ ]	/* 1 value pushed */
19 
LT[ ]	/* LessThan */
IF[ ]	/* If */
NPUSHB[ ]	/* 26 values pushed */
31 25 2 1 2 17 1 9 1 23 12 2 4 9 45 11 2 0 4 52 46 2 6 0 5 76 
ELSE[ ]	/* Else */
NPUSHB[ ]	/* 26 values pushed */
31 25 2 1 2 17 1 9 1 23 12 2 4 9 45 11 2 5 4 52 46 2 6 0 5 76 
EIF[ ]	/* EndIf */
MPPEM[ ]	/* MeasurePixelPerEm */
PUSHB[ ]	/* 1 value pushed */
19 
LT[ ]	/* LessThan */
IF[ ]	/* If */
NPUSHB[ ]	/* 34 values pushed */
10 1 9 0 4 0 9 4 103 8 1 1 1 2 97 3 1 2 2 26 77 5 1 0 0 6 97 7 1 6 6 27 6 78 
ELSE[ ]	/* Else */
MPPEM[ ]	/* MeasurePixelPerEm */
PUSHB[ ]	/* 1 value pushed */
24 
LT[ ]	/* LessThan */
IF[ ]	/* If */
NPUSHB[ ]	/* 44 values pushed */
10 1 9 0 4 5 9 4 103 8 1 1 1 2 97 3 1 2 2 26 77 0 5 5 6 97 7 1 6 6 27 77 0 0 0 6 97 7 1 6 6 27 6 78 
ELSE[ ]	/* Else */
MPPEM[ ]	/* MeasurePixelPerEm */
PUSHB[ ]	/* 1 value pushed */
38 
LT[ ]	/* LessThan */
IF[ ]	/* If */
NPUSHB[ ]	/* 42 values pushed */
3 1 2 8 1 1 9 2 1 105 10 1 9 0 4 5 9 4 103 0 5 5 6 97 7 1 6 6 27 77 0 0 0 6 97 7 1 6 6 27 6 78 
ELSE[ ]	/* Else */
MPPEM[ ]	/* MeasurePixelPerEm */
PUSHB[ ]	/* 1 value pushed */
42 
LT[ ]	/* LessThan */
IF[ ]	/* If */
NPUSHB[ ]	/* 42 values pushed */
3 1 2 8 1 1 9 2 1 105 10 1 9 0 4 5 9 4 103 0 5 5 6 97 7 1 6 6 24 77 0 0 0 6 97 7 1 6 6 24 6 78 
ELSE[ ]	/* Else */
NPUSHB[ ]	/* 42 values pushed */
3 1 2 8 1 1 9 2 1 105 10 1 9 0 4 5 9 4 103 0 5 0 6 5 89 0 0 6 6 0 89 0 0 0 6 97 7 1 6 0 6 81 
EIF[ ]	/* EndIf */
EIF[ ]	/* EndIf */
EIF[ ]	/* EndIf */
EIF[ ]	/* EndIf */
NPUSHB[ ]	/* 18 values pushed */
59 59 59 65 59 65 37 36 37 34 19 36 38 42 54 11 7 31 
CALL[ ]	/* CallFunction */";
};
width = 1295;
}
);
metricLeft = a;
metricRight = e;
note = ae;
unicode = 230;
},
{
glyphname = b;
kernLeft = b;
kernRight = b;
lastChange = "2022-04-09 17:02:39 +0000";
layers = (
{
anchors = (
{
name = bottom;
pos = (367,0);
},
{
name = center;
pos = (367,250);
},
{
name = top;
pos = (367,500);
}
);
layerId = m01;
shapes = (
{
closed = 1;
nodes = (
(0,748,l),
(112,684,l),
(112,0,l),
(114,0,l),
(186,58,l),
(235,21,o),
(290,-11,o),
(379,-11,cs),
(526,-11,o),
(675,99,o),
(675,255,cs),
(675,399,o),
(539,514,o),
(382,514,cs),
(298,514,o),
(240,485,o),
(192,452,c),
(192,750,l),
(0,750,l)
);
},
{
closed = 1;
nodes = (
(192,417,l),
(237,457,o),
(314,488,o),
(368,488,cs),
(500,488,o),
(580,398,o),
(580,255,cs),
(580,112,o),
(492,16,o),
(370,16,cs),
(295,16,o),
(237,52,o),
(192,93,c)
);
}
);
userData = {
assembly = "NPUSHB[ ]	/* 59 values pushed */
18 1 0 2 34 33 15 1 4 3 4 16 1 1 3 3 76 5 1 2 2 19 77 0 4 4 0 97 0 0 0 26 77 0 3 3 1 97 0 1 1 27 1 78 0 0 31 29 24 22 0 20 0 19 38 35 6 7 24 
CALL[ ]	/* CallFunction */";
};
width = 723;
},
{
layerId = "03DC8633-12B9-4C09-834B-15CC0827035A";
shapes = (
{
pos = (842,0);
ref = d;
scale = (-1,1);
}
);
userData = {
assembly = "MPPEM[ ]	/* MeasurePixelPerEm */
PUSHB[ ]	/* 1 value pushed */
12 
LT[ ]	/* LessThan */
IF[ ]	/* If */
NPUSHB[ ]	/* 15 values pushed */
2 1 5 1 31 30 2 4 5 16 1 2 4 3 76 
ELSE[ ]	/* Else */
NPUSHB[ ]	/* 15 values pushed */
2 1 5 1 31 30 2 4 5 16 1 3 4 3 76 
EIF[ ]	/* EndIf */
MPPEM[ ]	/* MeasurePixelPerEm */
PUSHB[ ]	/* 1 value pushed */
12 
LT[ ]	/* LessThan */
IF[ ]	/* If */
NPUSHB[ ]	/* 27 values pushed */
0 0 0 19 77 0 5 5 1 97 0 1 1 26 77 0 4 4 2 97 3 1 2 2 27 2 78 
ELSE[ ]	/* Else */
MPPEM[ ]	/* MeasurePixelPerEm */
PUSHB[ ]	/* 1 value pushed */
38 
LT[ ]	/* LessThan */
IF[ ]	/* If */
NPUSHB[ ]	/* 31 values pushed */
0 0 0 19 77 0 5 5 1 97 0 1 1 26 77 0 3 3 18 77 0 4 4 2 97 0 2 2 27 2 78 
ELSE[ ]	/* Else */
MPPEM[ ]	/* MeasurePixelPerEm */
PUSHB[ ]	/* 1 value pushed */
42 
LT[ ]	/* LessThan */
IF[ ]	/* If */
NPUSHB[ ]	/* 29 values pushed */
0 1 0 5 4 1 5 105 0 0 0 19 77 0 3 3 18 77 0 4 4 2 97 0 2 2 24 2 78 
ELSE[ ]	/* Else */
NPUSHB[ ]	/* 26 values pushed */
0 1 0 5 4 1 5 105 0 4 0 2 4 2 101 0 3 3 0 95 0 0 0 19 3 78 
EIF[ ]	/* EndIf */
EIF[ ]	/* EndIf */
EIF[ ]	/* EndIf */
NPUSHB[ ]	/* 9 values pushed */
36 34 19 38 35 16 6 7 28 
CALL[ ]	/* CallFunction */";
};
width = 842;
},
{
associatedMasterId = m01;
layerId = "52F5E557-EC04-45BD-8F74-3B41E1B275E2";
name = "17 feb 22, 10:29";
shapes = (
{
closed = 1;
nodes = (
(0,698,l),
(112,634,l),
(112,0,l),
(114,0,l),
(186,46,l),
(235.333,8.667,o),
(304,-11,o),
(380,-11,cs),
(503,-11,o),
(604,40,o),
(659,121,cs),
(686,162,o),
(700,206,o),
(700,255,cs),
(700,399,o),
(564,514,o),
(380,514,cs),
(308,514,o),
(240,495,o),
(192,462,c),
(192,700,l),
(0,700,l)
);
},
{
closed = 1;
nodes = (
(192,427,l),
(237,467,o),
(307,488,o),
(380,488,cs),
(528,488,o),
(615,398,o),
(615,255,cs),
(615,112,o),
(523,15,o),
(380,15,cs),
(309,15,o),
(237.333,37.667,o),
(192,79,c)
);
}
);
userData = {
assembly = "NPUSHB[ ]	/* 59 values pushed */
18 1 0 2 34 33 15 1 4 3 4 16 1 1 3 3 76 5 1 2 2 19 77 0 4 4 0 97 0 0 0 26 77 0 3 3 1 97 0 1 1 27 1 78 0 0 31 29 24 22 0 20 0 19 38 35 6 7 24 
CALL[ ]	/* CallFunction */";
};
width = 758;
},
{
associatedMasterId = "03DC8633-12B9-4C09-834B-15CC0827035A";
layerId = "214EB1B4-C896-4B8B-9583-482D6F36544A";
name = "21 feb 22, 11:52";
shapes = (
{
closed = 1;
nodes = (
(228,0,l),
(245,54,l),
(303.667,10,o),
(394,-20,o),
(486,-20,cs),
(697.69,-20,o),
(829,93.492,o),
(829,251,cs),
(829,409.055,o),
(697.057,520,o),
(486,520,cs),
(395.333,520,o),
(308,493.667,o),
(248,455,c),
(248,730,l),
(70,730,l),
(70,0,l)
);
},
{
closed = 1;
nodes = (
(248,346,l),
(301.333,372.667,o),
(382.667,390,o),
(460,390,cs),
(598.667,390,o),
(655,350.333,o),
(655,249,cs),
(655,147.667,o),
(597.333,101,o),
(460,101,cs),
(382.667,101,o),
(300,123.333,o),
(248,154,c)
);
}
);
userData = {
assembly = "MPPEM[ ]	/* MeasurePixelPerEm */
PUSHB[ ]	/* 1 value pushed */
12 
LT[ ]	/* LessThan */
IF[ ]	/* If */
NPUSHB[ ]	/* 15 values pushed */
2 1 5 1 31 30 2 4 5 16 1 2 4 3 76 
ELSE[ ]	/* Else */
NPUSHB[ ]	/* 15 values pushed */
2 1 5 1 31 30 2 4 5 16 1 3 4 3 76 
EIF[ ]	/* EndIf */
MPPEM[ ]	/* MeasurePixelPerEm */
PUSHB[ ]	/* 1 value pushed */
12 
LT[ ]	/* LessThan */
IF[ ]	/* If */
NPUSHB[ ]	/* 27 values pushed */
0 0 0 19 77 0 5 5 1 97 0 1 1 26 77 0 4 4 2 97 3 1 2 2 27 2 78 
ELSE[ ]	/* Else */
MPPEM[ ]	/* MeasurePixelPerEm */
PUSHB[ ]	/* 1 value pushed */
38 
LT[ ]	/* LessThan */
IF[ ]	/* If */
NPUSHB[ ]	/* 31 values pushed */
0 0 0 19 77 0 5 5 1 97 0 1 1 26 77 0 3 3 18 77 0 4 4 2 97 0 2 2 27 2 78 
ELSE[ ]	/* Else */
MPPEM[ ]	/* MeasurePixelPerEm */
PUSHB[ ]	/* 1 value pushed */
42 
LT[ ]	/* LessThan */
IF[ ]	/* If */
NPUSHB[ ]	/* 29 values pushed */
0 1 0 5 4 1 5 105 0 0 0 19 77 0 3 3 18 77 0 4 4 2 97 0 2 2 24 2 78 
ELSE[ ]	/* Else */
NPUSHB[ ]	/* 26 values pushed */
0 1 0 5 4 1 5 105 0 4 0 2 4 2 101 0 3 3 0 95 0 0 0 19 3 78 
EIF[ ]	/* EndIf */
EIF[ ]	/* EndIf */
EIF[ ]	/* EndIf */
NPUSHB[ ]	/* 9 values pushed */
36 34 19 38 35 16 6 7 28 
CALL[ ]	/* CallFunction */";
};
width = 869;
}
);
metricRight = "=o";
note = b;
unicode = 98;
},
{
glyphname = c;
kernLeft = c;
kernRight = c;
lastChange = "2022-04-09 17:02:39 +0000";
layers = (
{
anchors = (
{
name = bottom;
pos = (329,0);
},
{
name = top;
pos = (329,500);
}
);
layerId = m01;
shapes = (
{
closed = 1;
nodes = (
(562,289,l),
(610,382,l),
(555,458,o),
(466,514,o),
(346,514,cs),
(174,514,o),
(48,405,o),
(48,251,cs),
(48,86,o),
(189,-14,o),
(352,-14,cs),
(467,-14,o),
(558,35,o),
(613,115,c),
(595,130,l),
(543,66,o),
(463,22,o),
(375,22,cs),
(237,22,o),
(132,127,o),
(132,267,cs),
(132,388,o),
(210,486,o),
(343,486,cs),
(467,486,o),
(528,410,o),
(559,289,c)
);
}
);
userData = {
assembly = "NPUSHB[ ]	/* 48 values pushed */
28 1 4 0 14 13 2 1 4 2 76 0 4 0 1 0 4 1 128 0 0 0 3 97 0 3 3 26 77 0 1 1 2 97 0 2 2 27 2 78 19 38 37 38 33 5 7 27 
CALL[ ]	/* CallFunction */";
};
width = 656;
},
{
anchors = (
{
name = bottom;
pos = (392,0);
},
{
name = top;
pos = (382,500);
}
);
layerId = "03DC8633-12B9-4C09-834B-15CC0827035A";
shapes = (
{
closed = 1;
nodes = (
(664,449,l),
(612,485,o),
(506,515,o),
(390,515,cs),
(179,515,o),
(43,402,o),
(43,251,cs),
(43,99,o),
(180,-15,o),
(391,-15,cs),
(508,-15,o),
(614,15,o),
(665,54,c),
(617,166,l),
(573,137,o),
(496,116,o),
(403,116,cs),
(281,116,o),
(207,165,o),
(207,251,cs),
(207,348,o),
(281,388,o),
(403,388,cs),
(488,388,o),
(571,366,o),
(616,337,c)
);
}
);
userData = {
assembly = "NPUSHB[ ]	/* 15 values pushed */
26 1 0 3 27 11 2 1 0 12 1 2 1 3 76 
MPPEM[ ]	/* MeasurePixelPerEm */
PUSHB[ ]	/* 1 value pushed */
38 
LT[ ]	/* LessThan */
IF[ ]	/* If */
NPUSHB[ ]	/* 21 values pushed */
0 0 0 3 97 0 3 3 26 77 0 1 1 2 97 0 2 2 27 2 78 
ELSE[ ]	/* Else */
MPPEM[ ]	/* MeasurePixelPerEm */
PUSHB[ ]	/* 1 value pushed */
42 
LT[ ]	/* LessThan */
IF[ ]	/* If */
NPUSHB[ ]	/* 19 values pushed */
0 3 0 0 1 3 0 105 0 1 1 2 97 0 2 2 24 2 78 
ELSE[ ]	/* Else */
NPUSHB[ ]	/* 24 values pushed */
0 3 0 0 1 3 0 105 0 1 2 2 1 89 0 1 1 2 97 0 2 1 2 81 
EIF[ ]	/* EndIf */
EIF[ ]	/* EndIf */
PUSHB[ ]	/* 7 values pushed */
38 37 36 33 4 7 26 
CALL[ ]	/* CallFunction */";
};
width = 703;
}
);
metricLeft = "=o";
metricRight = "=o-5";
note = c;
unicode = 99;
},
{
glyphname = d;
kernLeft = o;
kernRight = d;
lastChange = "2022-10-17 21:26:45 +0000";
layers = (
{
layerId = m01;
shapes = (
{
closed = 1;
nodes = (
(531,444,l),
(482,481,o),
(433,513,o),
(344,513,cs),
(197,513,o),
(48,403,o),
(48,247,cs),
(48,103,o),
(184,-12,o),
(341,-12,cs),
(425,-12,o),
(483,17,o),
(531,50,c),
(531,0,l),
(723,0,l),
(723,2,l),
(611,66,l),
(611,750,l),
(419,750,l),
(419,745,l),
(531,686,l)
);
},
{
closed = 1;
nodes = (
(531,85,l),
(486,45,o),
(409,14,o),
(355,14,cs),
(223,14,o),
(143,104,o),
(143,247,cs),
(143,390,o),
(231,486,o),
(353,486,cs),
(428,486,o),
(486,450,o),
(531,409,c)
);
}
);
userData = {
assembly = "NPUSHB[ ]	/* 62 values pushed */
16 1 1 2 30 29 20 15 1 5 4 5 2 76 0 2 2 19 77 0 5 5 1 97 0 1 1 26 77 6 1 3 3 21 77 0 4 4 0 97 0 0 0 27 0 78 0 0 34 32 27 25 0 22 0 21 36 38 35 7 7 25 
CALL[ ]	/* CallFunction */";
};
width = 763;
},
{
layerId = "03DC8633-12B9-4C09-834B-15CC0827035A";
shapes = (
{
closed = 1;
nodes = (
(782,750,l),
(604,750,l),
(604,445,l),
(544,494,o),
(457,515,o),
(366,515,cs),
(175,515,o),
(43,409,o),
(43,251,cs),
(43,93,o),
(174,-15,o),
(366,-15,cs),
(458,-15,o),
(546,10,o),
(604,64,c),
(604,0,l),
(782,0,l)
);
},
{
closed = 1;
nodes = (
(542,133,o),
(469,110,o),
(392,110,cs),
(275,110,o),
(217,149,o),
(217,250,cs),
(217,351,o),
(273,390,o),
(392,390,cs),
(469,390,o),
(542,373,o),
(604,341,c),
(604,169,l)
);
}
);
userData = {
assembly = "MPPEM[ ]	/* MeasurePixelPerEm */
PUSHB[ ]	/* 1 value pushed */
12 
LT[ ]	/* LessThan */
IF[ ]	/* If */
NPUSHB[ ]	/* 15 values pushed */
15 1 5 1 25 24 2 4 5 1 1 0 4 3 76 
ELSE[ ]	/* Else */
NPUSHB[ ]	/* 15 values pushed */
15 1 5 1 25 24 2 4 5 1 1 3 4 3 76 
EIF[ ]	/* EndIf */
MPPEM[ ]	/* MeasurePixelPerEm */
PUSHB[ ]	/* 1 value pushed */
12 
LT[ ]	/* LessThan */
IF[ ]	/* If */
NPUSHB[ ]	/* 28 values pushed */
0 2 2 19 77 0 5 5 1 97 0 1 1 26 77 0 4 4 0 97 6 3 2 0 0 27 0 78 
ELSE[ ]	/* Else */
MPPEM[ ]	/* MeasurePixelPerEm */
PUSHB[ ]	/* 1 value pushed */
38 
LT[ ]	/* LessThan */
IF[ ]	/* If */
NPUSHB[ ]	/* 32 values pushed */
0 2 2 19 77 0 5 5 1 97 0 1 1 26 77 6 1 3 3 18 77 0 4 4 0 97 0 0 0 27 0 78 
ELSE[ ]	/* Else */
MPPEM[ ]	/* MeasurePixelPerEm */
PUSHB[ ]	/* 1 value pushed */
42 
LT[ ]	/* LessThan */
IF[ ]	/* If */
NPUSHB[ ]	/* 30 values pushed */
0 1 0 5 4 1 5 105 0 2 2 19 77 6 1 3 3 18 77 0 4 4 0 97 0 0 0 24 0 78 
ELSE[ ]	/* Else */
NPUSHB[ ]	/* 27 values pushed */
0 1 0 5 4 1 5 105 0 4 0 0 4 0 101 6 1 3 3 2 95 0 2 2 19 3 78 
EIF[ ]	/* EndIf */
EIF[ ]	/* EndIf */
EIF[ ]	/* EndIf */
NPUSHB[ ]	/* 16 values pushed */
0 0 29 27 22 20 0 18 0 18 19 38 35 7 7 25 
CALL[ ]	/* CallFunction */";
};
width = 842;
},
{
associatedMasterId = m01;
layerId = "F07B5E37-66E3-4A3F-A62B-E8794E85A762";
name = "17 feb 22, 10:36";
shapes = (
{
closed = 1;
nodes = (
(758,4,l),
(646,65,l),
(646,700,l),
(454,700,l),
(454,695,l),
(566,636,l),
(566,462,l),
(518,495,o),
(450,514,o),
(378,514,cs),
(194,514,o),
(58,399,o),
(58,255,cs),
(58,90,o),
(213,-11,o),
(378,-11,cs),
(451,-11,o),
(518,7,o),
(566,42,c),
(566,0,l),
(758,0,l)
);
},
{
closed = 1;
nodes = (
(143,398,o),
(230,485,o),
(378,485,cs),
(451,485,o),
(521,467,o),
(566,427,c),
(566,79,l),
(521,38,o),
(449,18,o),
(378,18,cs),
(235,18,o),
(143,112,o),
(143,255,cs)
);
}
);
userData = {
assembly = "NPUSHB[ ]	/* 62 values pushed */
16 1 1 2 30 29 20 15 1 5 4 5 2 76 0 2 2 19 77 0 5 5 1 97 0 1 1 26 77 6 1 3 3 21 77 0 4 4 0 97 0 0 0 27 0 78 0 0 34 32 27 25 0 22 0 21 36 38 35 7 7 25 
CALL[ ]	/* CallFunction */";
};
width = 793;
},
{
associatedMasterId = "03DC8633-12B9-4C09-834B-15CC0827035A";
layerId = "655D23F6-099C-42F1-9AD9-2017BBFABCA0";
name = "21 feb 22, 11:54";
shapes = (
{
closed = 1;
nodes = (
(799,729,l),
(621,730,l),
(621,455,l),
(561,493.667,o),
(473.667,520,o),
(383,520,cs),
(171.943,520,o),
(40,409.055,o),
(40,251,cs),
(40,93.492,o),
(171.31,-20,o),
(383,-20,cs),
(473.667,-20,o),
(562.333,8,o),
(621,52,c),
(621,0,l),
(799,0,l)
);
},
{
closed = 1;
nodes = (
(214,350.333,o),
(269,390,o),
(409,390,cs),
(486.333,390,o),
(567.667,372.667,o),
(621,346,c),
(621,154,l),
(569,123.333,o),
(486.333,101,o),
(409,101,cs),
(271.667,101,o),
(214,147.667,o),
(214,249,cs)
);
}
);
userData = {
assembly = "MPPEM[ ]	/* MeasurePixelPerEm */
PUSHB[ ]	/* 1 value pushed */
12 
LT[ ]	/* LessThan */
IF[ ]	/* If */
NPUSHB[ ]	/* 15 values pushed */
15 1 5 1 25 24 2 4 5 1 1 0 4 3 76 
ELSE[ ]	/* Else */
NPUSHB[ ]	/* 15 values pushed */
15 1 5 1 25 24 2 4 5 1 1 3 4 3 76 
EIF[ ]	/* EndIf */
MPPEM[ ]	/* MeasurePixelPerEm */
PUSHB[ ]	/* 1 value pushed */
12 
LT[ ]	/* LessThan */
IF[ ]	/* If */
NPUSHB[ ]	/* 28 values pushed */
0 2 2 19 77 0 5 5 1 97 0 1 1 26 77 0 4 4 0 97 6 3 2 0 0 27 0 78 
ELSE[ ]	/* Else */
MPPEM[ ]	/* MeasurePixelPerEm */
PUSHB[ ]	/* 1 value pushed */
38 
LT[ ]	/* LessThan */
IF[ ]	/* If */
NPUSHB[ ]	/* 32 values pushed */
0 2 2 19 77 0 5 5 1 97 0 1 1 26 77 6 1 3 3 18 77 0 4 4 0 97 0 0 0 27 0 78 
ELSE[ ]	/* Else */
MPPEM[ ]	/* MeasurePixelPerEm */
PUSHB[ ]	/* 1 value pushed */
42 
LT[ ]	/* LessThan */
IF[ ]	/* If */
NPUSHB[ ]	/* 30 values pushed */
0 1 0 5 4 1 5 105 0 2 2 19 77 6 1 3 3 18 77 0 4 4 0 97 0 0 0 24 0 78 
ELSE[ ]	/* Else */
NPUSHB[ ]	/* 27 values pushed */
0 1 0 5 4 1 5 105 0 4 0 0 4 0 101 6 1 3 3 2 95 0 2 2 19 3 78 
EIF[ ]	/* EndIf */
EIF[ ]	/* EndIf */
EIF[ ]	/* EndIf */
NPUSHB[ ]	/* 16 values pushed */
0 0 29 27 22 20 0 18 0 18 19 38 35 7 7 25 
CALL[ ]	/* CallFunction */";
};
width = 869;
}
);
metricLeft = "=o";
note = d;
unicode = 100;
},
{
glyphname = eth;
kernRight = B;
lastChange = "2022-04-09 17:03:19 +0000";
layers = (
{
layerId = m01;
shapes = (
{
closed = 1;
nodes = (
(496,493,o),
(424,515,o),
(332,515,cs),
(197,515,o),
(48,411,o),
(48,250,cs),
(48,84,o),
(205,-15,o),
(347,-15,cs),
(525,-15,o),
(657,101,o),
(657,280,cs),
(657,580,o),
(364,720,o),
(138,713,c),
(139,683,l),
(334,686,o),
(570,545,o),
(570,290,cs),
(570,108,o),
(476,11,o),
(347,11,cs),
(224,11,o),
(135,110,o),
(135,250,cs),
(135,390,o),
(224,486,o),
(337,486,cs),
(428,486,o),
(499,443,o),
(570,352,c),
(590,381,l)
);
},
{
closed = 1;
nodes = (
(521,690,l),
(506,717,l),
(186,569,l),
(201,542,l)
);
}
);
userData = {
assembly = "NPUSHB[ ]	/* 24 values pushed */
5 2 2 3 0 33 29 28 27 26 5 2 3 22 1 4 5 3 76 4 3 2 0 74 
MPPEM[ ]	/* MeasurePixelPerEm */
PUSHB[ ]	/* 1 value pushed */
50 
LT[ ]	/* LessThan */
IF[ ]	/* If */
NPUSHB[ ]	/* 32 values pushed */
0 3 3 0 97 6 1 0 0 17 77 0 5 5 2 97 0 2 2 26 77 0 4 4 1 97 0 1 1 27 1 78 
ELSE[ ]	/* Else */
NPUSHB[ ]	/* 30 values pushed */
6 1 0 0 3 2 0 3 105 0 5 5 2 97 0 2 2 26 77 0 4 4 1 97 0 1 1 27 1 78 
EIF[ ]	/* EndIf */
NPUSHB[ ]	/* 19 values pushed */
1 0 45 43 39 37 32 30 21 19 13 11 0 34 1 34 7 7 22 
CALL[ ]	/* CallFunction */";
};
width = 715;
},
{
layerId = "03DC8633-12B9-4C09-834B-15CC0827035A";
shapes = (
{
closed = 1;
nodes = (
(633,145,o),
(572,112,o),
(415,112,cs),
(272,112,o),
(208,145,o),
(208,227,cs),
(208,298,o),
(272,328,o),
(415,328,cs),
(572,328,o),
(633,298,o),
(633,227,cs)
);
},
{
closed = 1;
nodes = (
(231,509,l),
(781,661,l),
(781,730,l),
(231,578,l)
);
},
{
closed = 1;
nodes = (
(223,711,l),
(441,639,o),
(665,533,o),
(665,374,c),
(608,432,o),
(513,451,o),
(401,451,cs),
(173,451,o),
(43,371,o),
(43,224,cs),
(43,64,o),
(182,-20,o),
(425,-20,cs),
(688,-20,o),
(824,93,o),
(824,307,cs),
(824,539,o),
(622,690,o),
(372,750,c)
);
}
);
width = 904;
},
{
associatedMasterId = m01;
layerId = "989EC7B1-54CC-4341-9F40-7F5EAC89DEC0";
name = "11 feb 22, 19:05";
shapes = (
{
closed = 1;
nodes = (
(100,637,l),
(111,638,o),
(132,638,qs),
(177,638,o),
(216,632,q),
(102,572,l),
(113,552,l),
(252,625,l),
(343,605,o),
(464,514,o),
(495,453,qs),
(501,441,l),
(435,513,o),
(310,513,qs),
(259,513,o),
(144,460,o),
(65,348,o),
(65,265,qs),
(65,192,o),
(134,64,o),
(266,-14,o),
(354,-14,qs),
(446,-14,o),
(568,56,o),
(625,172,o),
(625,243,qs),
(625,410,o),
(441,610,o),
(288,644,q),
(391,698,l),
(381,718,l),
(253,651,l),
(188,661,o),
(131,661,qs),
(99,660,l)
);
},
{
closed = 1;
nodes = (
(146,374,o),
(235,489,o),
(336,489,qs),
(459,489,o),
(524,376,q),
(543,310,o),
(543,228,qs),
(543,11,o),
(355,11,qs),
(289,11,o),
(195,78,o),
(146,192,o),
(146,263,qs)
);
}
);
userData = {
assembly = "NPUSHB[ ]	/* 24 values pushed */
5 2 2 3 0 33 29 28 27 26 5 2 3 22 1 4 5 3 76 4 3 2 0 74 
MPPEM[ ]	/* MeasurePixelPerEm */
PUSHB[ ]	/* 1 value pushed */
50 
LT[ ]	/* LessThan */
IF[ ]	/* If */
NPUSHB[ ]	/* 32 values pushed */
0 3 3 0 97 6 1 0 0 17 77 0 5 5 2 97 0 2 2 26 77 0 4 4 1 97 0 1 1 27 1 78 
ELSE[ ]	/* Else */
NPUSHB[ ]	/* 30 values pushed */
6 1 0 0 3 2 0 3 105 0 5 5 2 97 0 2 2 26 77 0 4 4 1 97 0 1 1 27 1 78 
EIF[ ]	/* EndIf */
NPUSHB[ ]	/* 19 values pushed */
1 0 45 43 39 37 32 30 21 19 13 11 0 34 1 34 7 7 22 
CALL[ ]	/* CallFunction */";
};
width = 688;
},
{
associatedMasterId = "03DC8633-12B9-4C09-834B-15CC0827035A";
layerId = "2F045EE5-DC07-4264-AF64-5722376D4314";
name = "4 apr 22, 10:20";
shapes = (
{
closed = 1;
nodes = (
(688,-20,o),
(824,93,o),
(824,307,cs),
(824,539,o),
(622,690,o),
(372,750,c),
(101,750,l),
(101,749,l),
(347,677,o),
(665,563,o),
(665,374,c),
(608,432,o),
(513,451,o),
(401,451,cs),
(173,451,o),
(43,371,o),
(43,224,cs),
(43,64,o),
(182,-20,o),
(425,-20,cs)
);
},
{
closed = 1;
nodes = (
(633,145,o),
(572,112,o),
(415,112,cs),
(272,112,o),
(208,145,o),
(208,227,cs),
(208,298,o),
(272,328,o),
(415,328,cs),
(572,328,o),
(633,298,o),
(633,227,cs)
);
},
{
closed = 1;
nodes = (
(221,519,l),
(771,671,l),
(771,740,l),
(221,588,l)
);
}
);
width = 904;
}
);
metricLeft = "=d";
metricRight = B;
note = eth;
unicode = 240;
},
{
glyphname = dcroat;
kernLeft = d;
kernRight = d;
lastChange = "2022-04-09 17:02:39 +0000";
layers = (
{
layerId = m01;
shapes = (
{
closed = 1;
nodes = (
(707,585,l),
(707,611,l),
(383,611,l),
(383,585,l)
);
},
{
ref = d;
}
);
userData = {
assembly = "NPUSHB[ ]	/* 76 values pushed */
20 1 3 4 38 37 28 15 1 5 8 9 2 76 5 1 3 6 1 2 1 3 2 104 0 4 4 19 77 0 9 9 1 97 0 1 1 26 77 10 1 7 7 21 77 0 8 8 0 97 0 0 0 27 0 78 0 0 42 40 35 33 0 30 0 29 17 17 34 17 19 38 35 11 7 29 
CALL[ ]	/* CallFunction */";
};
width = 773;
},
{
layerId = "03DC8633-12B9-4C09-834B-15CC0827035A";
shapes = (
{
ref = d;
},
{
closed = 1;
nodes = (
(845,565,l),
(845,675,l),
(446,675,l),
(446,565,l)
);
}
);
width = 842;
}
);
note = dcroat;
unicode = 273;
},
{
glyphname = e;
kernLeft = c;
kernRight = e;
lastChange = "2022-04-09 17:02:39 +0000";
layers = (
{
anchors = (
{
name = bottom;
pos = (346,0);
},
{
name = ogonek;
pos = (486,10);
},
{
name = top;
pos = (346,500);
}
);
layerId = m01;
shapes = (
{
closed = 1;
nodes = (
(134,383,o),
(208,486,o),
(346,486,cs),
(469,486,o),
(549,395,o),
(549,284,c),
(123,284,l),
(124,255,l),
(637,255,l),
(637,412,o),
(520,514,o),
(346,514,cs),
(179,514,o),
(48,409,o),
(48,250,cs),
(48,101,o),
(169,-14,o),
(351,-14,cs),
(470,-14,o),
(570,36,o),
(622,115,c),
(602,130,l),
(555,63,o),
(477,27,o),
(382,27,cs),
(225,27,o),
(134,151,o),
(134,278,cs)
);
}
);
userData = {
assembly = "NPUSHB[ ]	/* 45 values pushed */
25 24 2 4 3 1 76 0 1 0 3 4 1 3 103 0 0 0 2 97 0 2 2 26 77 0 4 4 5 97 0 5 5 27 5 78 37 35 19 35 19 34 6 7 28 
CALL[ ]	/* CallFunction */";
};
width = 682;
},
{
anchors = (
{
name = bottom;
pos = (402,0);
},
{
name = ogonek;
pos = (615,10);
},
{
name = top;
pos = (402,500);
}
);
layerId = "03DC8633-12B9-4C09-834B-15CC0827035A";
shapes = (
{
closed = 1;
nodes = (
(202,245,cs),
(202,351,o),
(275,396,o),
(402,396,cs),
(532,396,o),
(584,349,o),
(596,287,c),
(156,287,l),
(156,200,l),
(758,200,l),
(758,240,ls),
(758,399,o),
(615,515,o),
(396,515,cs),
(173,515,o),
(43,399,o),
(43,241,cs),
(43,58,o),
(228,-15,o),
(431,-15,cs),
(531,-15,o),
(665,14,o),
(728,54,c),
(680,166,l),
(610,125,o),
(520,105,o),
(421,105,cs),
(297,105,o),
(202,145,o)
);
}
);
userData = {
assembly = "NPUSHB[ ]	/* 10 values pushed */
19 1 4 3 20 1 5 4 2 76 
MPPEM[ ]	/* MeasurePixelPerEm */
PUSHB[ ]	/* 1 value pushed */
38 
LT[ ]	/* LessThan */
IF[ ]	/* If */
NPUSHB[ ]	/* 29 values pushed */
0 1 0 3 4 1 3 103 0 0 0 2 97 0 2 2 26 77 0 4 4 5 97 0 5 5 27 5 78 
ELSE[ ]	/* Else */
MPPEM[ ]	/* MeasurePixelPerEm */
PUSHB[ ]	/* 1 value pushed */
42 
LT[ ]	/* LessThan */
IF[ ]	/* If */
NPUSHB[ ]	/* 27 values pushed */
0 2 0 0 1 2 0 105 0 1 0 3 4 1 3 103 0 4 4 5 97 0 5 5 24 5 78 
ELSE[ ]	/* Else */
NPUSHB[ ]	/* 32 values pushed */
0 2 0 0 1 2 0 105 0 1 0 3 4 1 3 103 0 4 5 5 4 89 0 4 4 5 97 0 5 4 5 81 
EIF[ ]	/* EndIf */
EIF[ ]	/* EndIf */
NPUSHB[ ]	/* 9 values pushed */
36 33 20 35 17 33 6 7 28 
CALL[ ]	/* CallFunction */";
};
width = 798;
}
);
metricLeft = "=o";
metricRight = "=o-3";
note = e;
unicode = 101;
},
{
glyphname = f;
kernLeft = f;
kernRight = f;
lastChange = "2022-04-09 17:02:39 +0000";
layers = (
{
layerId = m01;
shapes = (
{
closed = 1;
nodes = (
(473,500,l),
(33,500,l),
(33,473,l),
(473,473,l)
);
},
{
closed = 1;
nodes = (
(224,676,o),
(282,737,o),
(371,737,cs),
(458,737,o),
(515,667,o),
(535,585,c),
(537,585,l),
(585,684,l),
(515,735,o),
(445,765,o),
(376,765,cs),
(223,765,o),
(144,661,o),
(144,500,cs),
(144,65,l),
(30,4,l),
(30,0,l),
(383,0,l),
(383,4,l),
(224,65,l),
(224,502,ls)
);
}
);
userData = {
assembly = "NPUSHB[ ]	/* 12 values pushed */
29 27 2 1 6 15 10 2 3 2 2 76 
MPPEM[ ]	/* MeasurePixelPerEm */
PUSHB[ ]	/* 1 value pushed */
27 
LT[ ]	/* LessThan */
IF[ ]	/* If */
NPUSHB[ ]	/* 28 values pushed */
0 6 6 0 97 0 0 0 19 77 4 1 2 2 1 95 5 1 1 1 20 77 0 3 3 21 3 78 
ELSE[ ]	/* Else */
NPUSHB[ ]	/* 26 values pushed */
5 1 1 4 1 2 3 1 2 103 0 6 6 0 97 0 0 0 19 77 0 3 3 21 3 78 
EIF[ ]	/* EndIf */
NPUSHB[ ]	/* 10 values pushed */
36 17 19 34 17 35 32 7 7 29 
CALL[ ]	/* CallFunction */";
};
width = 545;
},
{
layerId = "03DC8633-12B9-4C09-834B-15CC0827035A";
shapes = (
{
closed = 1;
nodes = (
(533,591,l),
(502,620,o),
(456,637,o),
(407,637,cs),
(340,637,o),
(280,609,o),
(278,500,c),
(511,500,l),
(511,380,l),
(278,380,l),
(276,0,l),
(111,0,l),
(111,380,l),
(20,380,l),
(20,500,l),
(111,500,l),
(112,662,o),
(188,764,o),
(385,764,cs),
(460,764,o),
(530,745,o),
(574,712,c)
);
}
);
userData = {
assembly = "NPUSHB[ ]	/* 10 values pushed */
25 1 6 0 24 1 1 6 2 76 
MPPEM[ ]	/* MeasurePixelPerEm */
PUSHB[ ]	/* 1 value pushed */
36 
LT[ ]	/* LessThan */
IF[ ]	/* If */
NPUSHB[ ]	/* 28 values pushed */
0 6 6 0 97 0 0 0 19 77 4 1 2 2 1 95 5 1 1 1 20 77 0 3 3 18 3 78 
ELSE[ ]	/* Else */
MPPEM[ ]	/* MeasurePixelPerEm */
PUSHB[ ]	/* 1 value pushed */
38 
LT[ ]	/* LessThan */
IF[ ]	/* If */
NPUSHB[ ]	/* 26 values pushed */
0 0 0 6 1 0 6 105 4 1 2 2 1 95 5 1 1 1 20 77 0 3 3 18 3 78 
ELSE[ ]	/* Else */
MPPEM[ ]	/* MeasurePixelPerEm */
PUSHB[ ]	/* 1 value pushed */
42 
LT[ ]	/* LessThan */
IF[ ]	/* If */
NPUSHB[ ]	/* 24 values pushed */
0 0 0 6 1 0 6 105 5 1 1 4 1 2 3 1 2 103 0 3 3 18 3 78 
ELSE[ ]	/* Else */
NPUSHB[ ]	/* 32 values pushed */
0 3 2 3 134 0 0 0 6 1 0 6 105 5 1 1 2 2 1 87 5 1 1 1 2 95 4 1 2 1 2 79 
EIF[ ]	/* EndIf */
EIF[ ]	/* EndIf */
EIF[ ]	/* EndIf */
NPUSHB[ ]	/* 10 values pushed */
36 17 17 17 17 20 33 7 7 29 
CALL[ ]	/* CallFunction */";
};
width = 537;
},
{
associatedMasterId = m01;
layerId = "7D4FAFF6-8D5E-419A-AFAE-EC4EC6487DDD";
name = "11 feb 22, 17:24";
shapes = (
{
closed = 1;
nodes = (
(33,461,l),
(33,479,l),
(473,479,l),
(473,461,l)
);
},
{
closed = 1;
nodes = (
(224,65,l),
(383,4,l),
(383,0,l),
(30,0,l),
(30,4,l),
(144,65,l),
(144,484,ls),
(146,611,o),
(237,700,o),
(396,700,cs),
(485,700,o),
(565,672,o),
(635,615,c),
(587,520,l),
(585,520,l),
(565,607,o),
(488,672,o),
(396,672,cs),
(296,672,o),
(224,596,o),
(224,484,cs)
);
}
);
userData = {
assembly = "NPUSHB[ ]	/* 12 values pushed */
29 27 2 1 6 15 10 2 3 2 2 76 
MPPEM[ ]	/* MeasurePixelPerEm */
PUSHB[ ]	/* 1 value pushed */
27 
LT[ ]	/* LessThan */
IF[ ]	/* If */
NPUSHB[ ]	/* 28 values pushed */
0 6 6 0 97 0 0 0 19 77 4 1 2 2 1 95 5 1 1 1 20 77 0 3 3 21 3 78 
ELSE[ ]	/* Else */
NPUSHB[ ]	/* 26 values pushed */
5 1 1 4 1 2 3 1 2 103 0 6 6 0 97 0 0 0 19 77 0 3 3 21 3 78 
EIF[ ]	/* EndIf */
NPUSHB[ ]	/* 10 values pushed */
36 17 19 34 17 35 32 7 7 29 
CALL[ ]	/* CallFunction */";
};
width = 595;
}
);
note = f;
unicode = 102;
},
{
glyphname = g;
kernLeft = g;
kernRight = g;
lastChange = "2022-04-09 17:02:39 +0000";
layers = (
{
anchors = (
{
name = bottom;
pos = (354,-200);
},
{
name = top;
pos = (354,500);
}
);
layerId = m01;
shapes = (
{
closed = 1;
nodes = (
(499,436,l),
(524,463,o),
(539,473,o),
(561,473,cs),
(595,473,o),
(627,448,o),
(638,392,c),
(640,392,l),
(682,484,l),
(659,503,o),
(630,514,o),
(596,514,cs),
(560,514,o),
(522,496,o),
(479,453,c)
);
},
{
closed = 1;
nodes = (
(174,422,o),
(237,486,o),
(331,486,cs),
(415,486,o),
(485,421,o),
(485,327,cs),
(485,230,o),
(416,167,o),
(331,167,cs),
(234,167,o),
(174,233,o),
(174,327,cs)
);
},
{
closed = 1;
nodes = (
(195,178,l),
(139,163,o),
(88,136,o),
(88,76,cs),
(88,24,o),
(126,-25,o),
(250,-25,cs),
(444,-25,ls),
(525,-25,o),
(555,-57,o),
(555,-110,cs),
(555,-185,o),
(449,-224,o),
(350,-224,cs),
(218,-224,o),
(130,-180,o),
(130,-105,cs),
(130,-61,o),
(151,-32,o),
(179,-10,c),
(147,-1,l),
(82,-25,o),
(50,-62,o),
(50,-113,cs),
(50,-234,o),
(236,-250,o),
(350,-250,cs),
(431,-250,o),
(622,-221,o),
(622,-89,cs),
(622,-16,o),
(570,40,o),
(442,40,cs),
(244,40,ls),
(191,40,o),
(164,62,o),
(164,97,cs),
(164,134,o),
(193,153,o),
(230,161,c)
);
},
{
closed = 1;
nodes = (
(452,514,o),
(331,514,cs),
(188,514,o),
(95,436,o),
(95,327,cs),
(95,200,o),
(208,140,o),
(331,140,cs),
(463,140,o),
(564,218,o),
(564,327,cs),
(564,441,o)
);
}
);
userData = {
assembly = "NPUSHB[ ]	/* 22 values pushed */
41 37 2 3 2 48 42 27 3 6 3 1 1 4 6 66 21 2 5 4 4 76 
MPPEM[ ]	/* MeasurePixelPerEm */
PUSHB[ ]	/* 1 value pushed */
28 
LT[ ]	/* LessThan */
IF[ ]	/* If */
NPUSHB[ ]	/* 40 values pushed */
0 6 8 1 4 5 6 4 105 0 7 7 1 97 0 1 1 26 77 0 3 3 2 97 0 2 2 20 77 0 5 5 0 97 0 0 0 22 0 78 
ELSE[ ]	/* Else */
MPPEM[ ]	/* MeasurePixelPerEm */
PUSHB[ ]	/* 1 value pushed */
38 
LT[ ]	/* LessThan */
IF[ ]	/* If */
NPUSHB[ ]	/* 37 values pushed */
0 6 8 1 4 5 6 4 105 0 5 0 0 5 0 101 0 7 7 1 97 0 1 1 26 77 0 3 3 2 97 0 2 2 20 3 78 
ELSE[ ]	/* Else */
NPUSHB[ ]	/* 35 values pushed */
0 2 0 3 6 2 3 105 0 6 8 1 4 5 6 4 105 0 5 0 0 5 0 101 0 7 7 1 97 0 1 1 26 7 78 
EIF[ ]	/* EndIf */
EIF[ ]	/* EndIf */
NPUSHB[ ]	/* 22 values pushed */
0 0 81 79 73 71 58 56 0 54 0 53 47 45 40 38 35 33 46 9 7 23 
CALL[ ]	/* CallFunction */";
};
width = 707;
},
{
anchors = (
{
name = bottom;
pos = (400,-270);
},
{
name = top;
pos = (370,500);
}
);
layerId = "03DC8633-12B9-4C09-834B-15CC0827035A";
shapes = (
{
closed = 1;
nodes = (
(592,-82,o),
(481,-119,o),
(357,-119,cs),
(245,-119,o),
(148,-96,o),
(65,-55,c),
(65,-195,l),
(133,-228,o),
(240,-250,o),
(347,-250,cs),
(578,-250,o),
(730,-167,o),
(730,55,cs),
(730,500,l),
(585,500,l),
(586,438,l),
(521,486,o),
(436,515,o),
(343,515,cs),
(159,515,o),
(40,402,o),
(40,242,cs),
(40,94,o),
(160,-14,o),
(343,-14,cs),
(446,-14,o),
(533,12,o),
(592,57,c)
);
},
{
closed = 1;
nodes = (
(214,345,o),
(269,385,o),
(409,385,cs),
(478,385,o),
(541,362,o),
(588,330,c),
(590,156,l),
(546,127,o),
(481,107,o),
(409,107,cs),
(290,107,o),
(214,124,o),
(214,240,cs)
);
}
);
userData = {
assembly = "MPPEM[ ]	/* MeasurePixelPerEm */
PUSHB[ ]	/* 1 value pushed */
12 
LT[ ]	/* LessThan */
IF[ ]	/* If */
NPUSHB[ ]	/* 23 values pushed */
14 1 6 1 40 39 2 5 6 0 1 0 5 25 1 4 0 24 1 3 4 5 76 
ELSE[ ]	/* Else */
NPUSHB[ ]	/* 23 values pushed */
14 1 6 2 40 39 2 5 6 0 1 0 5 25 1 4 0 24 1 3 4 5 76 
EIF[ ]	/* EndIf */
MPPEM[ ]	/* MeasurePixelPerEm */
PUSHB[ ]	/* 1 value pushed */
12 
LT[ ]	/* LessThan */
IF[ ]	/* If */
NPUSHB[ ]	/* 29 values pushed */
0 4 0 3 4 3 101 0 6 6 1 97 2 1 1 1 26 77 0 5 5 0 97 0 0 0 18 0 78 
ELSE[ ]	/* Else */
MPPEM[ ]	/* MeasurePixelPerEm */
PUSHB[ ]	/* 1 value pushed */
38 
LT[ ]	/* LessThan */
IF[ ]	/* If */
NPUSHB[ ]	/* 33 values pushed */
0 4 0 3 4 3 101 0 2 2 20 77 0 6 6 1 97 0 1 1 26 77 0 5 5 0 97 0 0 0 18 0 78 
ELSE[ ]	/* Else */
MPPEM[ ]	/* MeasurePixelPerEm */
PUSHB[ ]	/* 1 value pushed */
42 
LT[ ]	/* LessThan */
IF[ ]	/* If */
NPUSHB[ ]	/* 34 values pushed */
0 2 1 6 1 2 6 128 0 1 0 6 5 1 6 105 0 4 0 3 4 3 101 0 5 5 0 97 0 0 0 18 0 78 
ELSE[ ]	/* Else */
NPUSHB[ ]	/* 40 values pushed */
0 2 1 6 1 2 6 128 0 1 0 6 5 1 6 105 0 5 0 0 4 5 0 105 0 4 3 3 4 89 0 4 4 3 97 0 3 4 3 81 
EIF[ ]	/* EndIf */
EIF[ ]	/* EndIf */
EIF[ ]	/* EndIf */
NPUSHB[ ]	/* 10 values pushed */
37 38 37 36 19 38 34 7 7 29 
CALL[ ]	/* CallFunction */";
};
width = 800;
},
{
associatedMasterId = m01;
layerId = "59099554-62F3-4D44-B55B-6E484B4765A2";
name = "11 feb 22, 17:15";
shapes = (
{
closed = 1;
nodes = (
(544,436,l),
(559,443,o),
(574,447,o),
(587,447,cs),
(625.667,447,o),
(658.333,422,o),
(665,386,c),
(671,386,l),
(713,458,l),
(689.667,477.333,o),
(661,487,o),
(627,487,cs),
(591,487,o),
(557,476,o),
(524,453,c)
);
},
{
closed = 1;
nodes = (
(167,416.43,o),
(236.314,487,o),
(341,487,cs),
(444.822,487,o),
(522,415.337,o),
(522,317,cs),
(522,214.812,o),
(445.934,146,o),
(341,146,cs),
(233,146,o),
(167,218.333,o),
(167,317,cs)
);
},
{
closed = 1;
nodes = (
(182,165,l),
(126,150,o),
(75,121,o),
(75,71,cs),
(75,43,o),
(93,4,o),
(217,-8,cs),
(482,-33,ls),
(542,-39.667,o),
(566,-58,o),
(566,-98,cs),
(566,-152.54,o),
(472.556,-192,o),
(337,-192,cs),
(205,-192,o),
(117,-148.333,o),
(117,-79,cs),
(117,-39,o),
(138,-10,o),
(166,2,c),
(134,11,l),
(69,-3,o),
(37,-40,o),
(37,-88,cs),
(37,-202,o),
(223,-218,o),
(337,-218,cs),
(455,-218,o),
(646,-189,o),
(646,-77,cs),
(646,-14.333,o),
(604,22.333,o),
(496,33,cs),
(211,60,ls),
(168.333,64,o),
(151,79,o),
(151,99,cs),
(151,121,o),
(180,140,o),
(217,148,c)
);
},
{
closed = 1;
nodes = (
(483,514,o),
(341,514,cs),
(185.362,514,o),
(85,429.18,o),
(85,317,cs),
(85,185,o),
(207,120,o),
(341,120,cs),
(494.659,120,o),
(604,203.847,o),
(604,317,cs),
(604,435,o)
);
}
);
userData = {
assembly = "NPUSHB[ ]	/* 22 values pushed */
41 37 2 3 2 48 42 27 3 6 3 1 1 4 6 66 21 2 5 4 4 76 
MPPEM[ ]	/* MeasurePixelPerEm */
PUSHB[ ]	/* 1 value pushed */
28 
LT[ ]	/* LessThan */
IF[ ]	/* If */
NPUSHB[ ]	/* 40 values pushed */
0 6 8 1 4 5 6 4 105 0 7 7 1 97 0 1 1 26 77 0 3 3 2 97 0 2 2 20 77 0 5 5 0 97 0 0 0 22 0 78 
ELSE[ ]	/* Else */
MPPEM[ ]	/* MeasurePixelPerEm */
PUSHB[ ]	/* 1 value pushed */
38 
LT[ ]	/* LessThan */
IF[ ]	/* If */
NPUSHB[ ]	/* 37 values pushed */
0 6 8 1 4 5 6 4 105 0 5 0 0 5 0 101 0 7 7 1 97 0 1 1 26 77 0 3 3 2 97 0 2 2 20 3 78 
ELSE[ ]	/* Else */
NPUSHB[ ]	/* 35 values pushed */
0 2 0 3 6 2 3 105 0 6 8 1 4 5 6 4 105 0 5 0 0 5 0 101 0 7 7 1 97 0 1 1 26 7 78 
EIF[ ]	/* EndIf */
EIF[ ]	/* EndIf */
NPUSHB[ ]	/* 22 values pushed */
0 0 81 79 73 71 58 56 0 54 0 53 47 45 40 38 35 33 46 9 7 23 
CALL[ ]	/* CallFunction */";
};
width = 717;
}
);
note = g;
unicode = 103;
},
{
glyphname = h;
kernLeft = h;
kernRight = h;
lastChange = "2022-04-09 17:02:39 +0000";
layers = (
{
layerId = m01;
shapes = (
{
closed = 1;
nodes = (
(141,689,l),
(141,65,l),
(29,2,l),
(29,0,l),
(332,0,l),
(332,2,l),
(221,65,l),
(221,299,ls),
(221,393,o),
(309,483,o),
(427,483,cs),
(531,483,o),
(608,415,o),
(608,274,cs),
(608,57,l),
(495,2,l),
(495,0,l),
(798,0,l),
(798,2,l),
(688,57,l),
(688,274,ls),
(688,430,o),
(582,514,o),
(447,514,cs),
(334,514,o),
(246,466,o),
(205,371,c),
(221,353,l),
(221,750,l),
(29,750,l),
(29,748,l)
);
}
);
userData = {
assembly = "NPUSHB[ ]	/* 50 values pushed */
27 1 0 4 26 21 13 8 1 5 1 2 2 76 5 1 4 4 19 77 0 2 2 0 97 0 0 0 26 77 3 1 1 1 21 1 78 0 0 0 29 0 28 37 36 36 35 6 7 26 
CALL[ ]	/* CallFunction */";
};
width = 820;
},
{
layerId = "03DC8633-12B9-4C09-834B-15CC0827035A";
shapes = (
{
closed = 1;
nodes = (
(55,0,l),
(233,0,l),
(233,304,l),
(282,352,o),
(347,385,o),
(428,385,cs),
(535,385,o),
(600,324,o),
(600,206,cs),
(600,0,l),
(778,0,l),
(778,226,ls),
(778,418,o),
(672,515,o),
(499,515,cs),
(389,515,o),
(298,474,o),
(233,413,c),
(233,750,l),
(55,750,l)
);
}
);
userData = {
assembly = "NPUSHB[ ]	/* 10 values pushed */
1 1 2 0 17 1 1 2 2 76 
MPPEM[ ]	/* MeasurePixelPerEm */
PUSHB[ ]	/* 1 value pushed */
38 
LT[ ]	/* LessThan */
IF[ ]	/* If */
NPUSHB[ ]	/* 23 values pushed */
5 1 4 4 19 77 0 2 2 0 97 0 0 0 26 77 3 1 1 1 18 1 78 
ELSE[ ]	/* Else */
MPPEM[ ]	/* MeasurePixelPerEm */
PUSHB[ ]	/* 1 value pushed */
42 
LT[ ]	/* LessThan */
IF[ ]	/* If */
NPUSHB[ ]	/* 21 values pushed */
0 0 0 2 1 0 2 105 5 1 4 4 19 77 3 1 1 1 18 1 78 
ELSE[ ]	/* Else */
NPUSHB[ ]	/* 21 values pushed */
0 0 0 2 1 0 2 105 3 1 1 1 4 95 5 1 4 4 19 1 78 
EIF[ ]	/* EndIf */
EIF[ ]	/* EndIf */
NPUSHB[ ]	/* 13 values pushed */
0 0 0 20 0 20 19 35 20 35 6 7 26 
CALL[ ]	/* CallFunction */";
};
width = 828;
},
{
associatedMasterId = m01;
layerId = "E5CB88D6-F33F-4AFF-8468-C6DAAAAB3199";
name = "11 feb 22, 17:26";
shapes = (
{
closed = 1;
nodes = (
(162,634,l),
(162,65,l),
(50,2,l),
(50,0,l),
(353,0,l),
(353,2,l),
(242,65,l),
(242,323,ls),
(242,416,o),
(332,488,o),
(457,488,cs),
(588,488,o),
(653,418,o),
(653,279,cs),
(653,57,l),
(540,2,l),
(540,0,l),
(843,0,l),
(843,2,l),
(733,57,l),
(733,279,ls),
(733,435,o),
(634,515,o),
(474,515,cs),
(357,515,o),
(266,470,o),
(229,396,c),
(242,373,l),
(242,700,l),
(50,700,l),
(50,699,l)
);
}
);
userData = {
assembly = "NPUSHB[ ]	/* 50 values pushed */
27 1 0 4 26 21 13 8 1 5 1 2 2 76 5 1 4 4 19 77 0 2 2 0 97 0 0 0 26 77 3 1 1 1 21 1 78 0 0 0 29 0 28 37 36 36 35 6 7 26 
CALL[ ]	/* CallFunction */";
};
width = 888;
},
{
associatedMasterId = m01;
layerId = "6228ED2D-9E32-4252-88E6-C44356D9E87C";
name = "17 feb 22, 10:42";
shapes = (
{
closed = 1;
nodes = (
(137,653,l),
(137,65,l),
(25,2,l),
(25,0,l),
(328,0,l),
(328,2,l),
(217,65,l),
(217,304,ls),
(217,399,o),
(305,487,o),
(424,487,cs),
(551,487,o),
(628,417,o),
(628,274,cs),
(628,57,l),
(515,2,l),
(515,0,l),
(818,0,l),
(818,2,l),
(708,57,l),
(708,274,ls),
(708,430,o),
(602,514,o),
(446,514,cs),
(330,514,o),
(242,471,o),
(204,376,c),
(217,358,l),
(217,715,l),
(25,715,l),
(25,714,l)
);
}
);
userData = {
assembly = "NPUSHB[ ]	/* 50 values pushed */
27 1 0 4 26 21 13 8 1 5 1 2 2 76 5 1 4 4 19 77 0 2 2 0 97 0 0 0 26 77 3 1 1 1 21 1 78 0 0 0 29 0 28 37 36 36 35 6 7 26 
CALL[ ]	/* CallFunction */";
};
width = 843;
},
{
associatedMasterId = "03DC8633-12B9-4C09-834B-15CC0827035A";
layerId = "C58C6781-5F08-4820-9FD6-D50B64C875B2";
name = "21 feb 22, 12:00";
shapes = (
{
closed = 1;
nodes = (
(70,0,l),
(248,0,l),
(248,339,l),
(297.333,375,o),
(362.333,390,o),
(453,390,cs),
(590.333,390,o),
(645,339,o),
(645,211,cs),
(645,0,l),
(823,0,l),
(823,211,ls),
(823,399.633,o),
(699.44,520,o),
(489,520,cs),
(391.667,520,o),
(310.667,487.667,o),
(248,441,c),
(248,730,l),
(70,730,l),
(70,730,l)
);
}
);
userData = {
assembly = "NPUSHB[ ]	/* 10 values pushed */
1 1 2 0 17 1 1 2 2 76 
MPPEM[ ]	/* MeasurePixelPerEm */
PUSHB[ ]	/* 1 value pushed */
38 
LT[ ]	/* LessThan */
IF[ ]	/* If */
NPUSHB[ ]	/* 23 values pushed */
5 1 4 4 19 77 0 2 2 0 97 0 0 0 26 77 3 1 1 1 18 1 78 
ELSE[ ]	/* Else */
MPPEM[ ]	/* MeasurePixelPerEm */
PUSHB[ ]	/* 1 value pushed */
42 
LT[ ]	/* LessThan */
IF[ ]	/* If */
NPUSHB[ ]	/* 21 values pushed */
0 0 0 2 1 0 2 105 5 1 4 4 19 77 3 1 1 1 18 1 78 
ELSE[ ]	/* Else */
NPUSHB[ ]	/* 21 values pushed */
0 0 0 2 1 0 2 105 3 1 1 1 4 95 5 1 4 4 19 1 78 
EIF[ ]	/* EndIf */
EIF[ ]	/* EndIf */
NPUSHB[ ]	/* 13 values pushed */
0 0 0 20 0 20 19 35 20 35 6 7 26 
CALL[ ]	/* CallFunction */";
};
width = 903;
}
);
metricLeft = "=n-5";
metricRight = n;
note = h;
unicode = 104;
},
{
glyphname = k;
kernLeft = k;
kernRight = k;
lastChange = "2022-04-09 17:02:39 +0000";
layers = (
{
anchors = (
{
name = bottom;
pos = (386,0);
},
{
name = top;
pos = (386,750);
}
);
layerId = m01;
shapes = (
{
closed = 1;
nodes = (
(679,496,l),
(679,500,l),
(437,500,l),
(437,496,l),
(545,443,l),
(221,241,l),
(221,750,l),
(29,750,l),
(29,749,l),
(141,689,l),
(141,64,l),
(29,4,l),
(29,0,l),
(332,0,l),
(332,4,l),
(221,64,l),
(221,208,l)
);
},
{
closed = 1;
nodes = (
(366,373,l),
(273,370,l),
(515,46,l),
(451,4,l),
(451,0,l),
(727,0,l),
(727,4,l),
(609,50,l)
);
}
);
userData = {
assembly = "NPUSHB[ ]	/* 60 values pushed */
25 1 1 4 5 1 0 1 24 19 18 17 16 10 2 1 8 2 0 3 76 0 0 1 2 1 0 2 128 5 1 4 4 19 77 0 1 1 20 77 3 1 2 2 21 2 78 0 0 0 27 0 26 38 36 34 19 6 7 26 
CALL[ ]	/* CallFunction */";
};
width = 767;
},
{
anchors = (
{
name = bottom;
pos = (358,0);
},
{
name = top;
pos = (358,730);
}
);
layerId = "03DC8633-12B9-4C09-834B-15CC0827035A";
shapes = (
{
closed = 1;
nodes = (
(303,232,l),
(488,0,l),
(671,0,l),
(420,309,l)
);
},
{
closed = 1;
nodes = (
(691,500,l),
(477,500,l),
(223,316,l),
(223,750,l),
(55,750,l),
(55,0,l),
(223,0,l),
(223,160,l)
);
}
);
userData = {
assembly = "NPUSHB[ ]	/* 10 values pushed */
9 8 7 4 1 5 1 0 1 76 
MPPEM[ ]	/* MeasurePixelPerEm */
PUSHB[ ]	/* 1 value pushed */
38 
LT[ ]	/* LessThan */
IF[ ]	/* If */
NPUSHB[ ]	/* 18 values pushed */
4 1 3 3 19 77 0 0 0 20 77 2 1 1 1 18 1 78 
ELSE[ ]	/* Else */
MPPEM[ ]	/* MeasurePixelPerEm */
PUSHB[ ]	/* 1 value pushed */
42 
LT[ ]	/* LessThan */
IF[ ]	/* If */
NPUSHB[ ]	/* 18 values pushed */
4 1 3 3 19 77 0 0 0 1 95 2 1 1 1 18 1 78 
ELSE[ ]	/* Else */
NPUSHB[ ]	/* 19 values pushed */
0 0 1 1 0 87 2 1 1 1 3 95 4 1 3 3 19 3 78 
EIF[ ]	/* EndIf */
EIF[ ]	/* EndIf */
NPUSHB[ ]	/* 12 values pushed */
0 0 0 12 0 12 20 18 18 5 7 25 
CALL[ ]	/* CallFunction */";
};
width = 731;
},
{
associatedMasterId = m01;
layerId = "2C735073-8B48-4E3F-92DE-00F4D9BA9BAA";
name = "11 feb 22, 17:29";
shapes = (
{
closed = 1;
nodes = (
(740,496,l),
(740,500,l),
(498,500,l),
(498,496,l),
(581,438,l),
(222,224,l),
(222,700,l),
(30,700,l),
(30,699,l),
(142,634,l),
(142,64,l),
(30,4,l),
(30,0,l),
(333,0,l),
(333,4,l),
(222,64,l),
(222,198,l)
);
},
{
closed = 1;
nodes = (
(420,347,l),
(321,344,l),
(551,64,l),
(498,4,l),
(498,0,l),
(782,0,l),
(782,4,l),
(655,64,l),
(435,328,l)
);
}
);
userData = {
assembly = "NPUSHB[ ]	/* 60 values pushed */
25 1 1 4 5 1 0 1 24 19 18 17 16 10 2 1 8 2 0 3 76 0 0 1 2 1 0 2 128 5 1 4 4 19 77 0 1 1 20 77 3 1 2 2 21 2 78 0 0 0 27 0 26 38 36 34 19 6 7 26 
CALL[ ]	/* CallFunction */";
};
width = 837;
},
{
anchors = (
{
name = bottom;
pos = (373,0);
},
{
name = top;
pos = (373,730);
}
);
associatedMasterId = "03DC8633-12B9-4C09-834B-15CC0827035A";
layerId = "A8BC6C4C-2B18-48A4-AE57-D68C808AB63A";
name = "21 feb 22, 12:00";
shapes = (
{
closed = 1;
nodes = (
(70,0,l),
(248,0,l),
(238,3,l),
(238,157,l),
(328,220,l),
(533,0,l),
(716,0,l),
(437,297,l),
(726,500,l),
(522,500,l),
(238,316,l),
(238,730,l),
(70,730,l)
);
}
);
userData = {
assembly = "NPUSHB[ ]	/* 10 values pushed */
9 8 7 4 1 5 1 0 1 76 
MPPEM[ ]	/* MeasurePixelPerEm */
PUSHB[ ]	/* 1 value pushed */
38 
LT[ ]	/* LessThan */
IF[ ]	/* If */
NPUSHB[ ]	/* 18 values pushed */
4 1 3 3 19 77 0 0 0 20 77 2 1 1 1 18 1 78 
ELSE[ ]	/* Else */
MPPEM[ ]	/* MeasurePixelPerEm */
PUSHB[ ]	/* 1 value pushed */
42 
LT[ ]	/* LessThan */
IF[ ]	/* If */
NPUSHB[ ]	/* 18 values pushed */
4 1 3 3 19 77 0 0 0 1 95 2 1 1 1 18 1 78 
ELSE[ ]	/* Else */
NPUSHB[ ]	/* 19 values pushed */
0 0 1 1 0 87 2 1 1 1 3 95 4 1 3 3 19 3 78 
EIF[ ]	/* EndIf */
EIF[ ]	/* EndIf */
NPUSHB[ ]	/* 12 values pushed */
0 0 0 12 0 12 20 18 18 5 7 25 
CALL[ ]	/* CallFunction */";
};
width = 746;
},
{
anchors = (
{
name = bottom;
pos = (386,0);
},
{
name = top;
pos = (386,750);
}
);
associatedMasterId = m01;
layerId = "179FC63C-E402-4C70-A3C1-AC99D3FF5494";
name = "23 feb 22, 11:24";
shapes = (
{
closed = 1;
nodes = (
(689,496,l),
(689,500,l),
(447,500,l),
(447,496,l),
(555,443,l),
(221,231,l),
(221,750,l),
(29,750,l),
(29,749,l),
(141,689,l),
(141,64,l),
(29,4,l),
(29,0,l),
(332,0,l),
(332,4,l),
(221,64,l),
(221,198,l)
);
},
{
closed = 1;
nodes = (
(365,367,l),
(274,364,l),
(525,46,l),
(461,4,l),
(461,0,l),
(737,0,l),
(737,4,l),
(619,50,l)
);
}
);
userData = {
assembly = "NPUSHB[ ]	/* 60 values pushed */
25 1 1 4 5 1 0 1 24 19 18 17 16 10 2 1 8 2 0 3 76 0 0 1 2 1 0 2 128 5 1 4 4 19 77 0 1 1 20 77 3 1 2 2 21 2 78 0 0 0 27 0 26 38 36 34 19 6 7 26 
CALL[ ]	/* CallFunction */";
};
width = 767;
}
);
metricLeft = h;
note = k;
unicode = 107;
},
{
glyphname = l;
kernLeft = l;
kernRight = l;
lastChange = "2022-04-09 17:02:39 +0000";
layers = (
{
anchors = (
{
name = bottom;
pos = (191,0);
},
{
name = center;
pos = (191,375);
},
{
name = top;
pos = (191,750);
},
{
name = topright;
pos = (352,750);
}
);
layerId = m01;
shapes = (
{
closed = 1;
nodes = (
(39,748,l),
(154,684,l),
(154,65,l),
(39,2,l),
(39,0,l),
(342,0,l),
(342,2,l),
(229,65,l),
(229,750,l),
(39,750,l)
);
}
);
userData = {
assembly = "NPUSHB[ ]	/* 30 values pushed */
7 6 1 3 0 1 1 76 2 1 1 1 19 77 0 0 0 21 0 78 0 0 0 9 0 8 34 3 7 23 
CALL[ ]	/* CallFunction */";
};
width = 374;
},
{
anchors = (
{
name = bottom;
pos = (160,0);
},
{
name = center;
pos = (160,365);
},
{
name = top;
pos = (160,730);
},
{
name = topright;
pos = (308,730);
}
);
layerId = "03DC8633-12B9-4C09-834B-15CC0827035A";
shapes = (
{
closed = 1;
nodes = (
(65,0,l),
(243,0,l),
(243,750,l),
(65,750,l)
);
}
);
userData = {
assembly = "MPPEM[ ]	/* MeasurePixelPerEm */
PUSHB[ ]	/* 1 value pushed */
42 
LT[ ]	/* LessThan */
IF[ ]	/* If */
NPUSHB[ ]	/* 12 values pushed */
2 1 1 1 19 77 0 0 0 18 0 78 
ELSE[ ]	/* Else */
NPUSHB[ ]	/* 12 values pushed */
0 0 0 1 95 2 1 1 1 19 0 78 
EIF[ ]	/* EndIf */
NPUSHB[ ]	/* 10 values pushed */
0 0 0 3 0 3 17 3 7 23 
CALL[ ]	/* CallFunction */";
};
width = 303;
}
);
metricLeft = "=h+10";
metricRight = "=h+10";
note = l;
unicode = 108;
},
{
glyphname = lslash;
kernLeft = l;
kernRight = l;
lastChange = "2022-04-09 17:03:24 +0000";
layers = (
{
layerId = m01;
shapes = (
{
closed = 1;
nodes = (
(339,483,l),
(322,508,l),
(42,300,l),
(59,275,l)
);
},
{
ref = l;
}
);
userData = {
assembly = "NPUSHB[ ]	/* 32 values pushed */
17 16 15 14 9 8 7 6 5 1 0 11 1 0 1 76 0 0 0 19 77 0 1 1 21 1 78 38 34 2 7 24 
CALL[ ]	/* CallFunction */";
};
width = 374;
},
{
layerId = "03DC8633-12B9-4C09-834B-15CC0827035A";
metricLeft = "=l-30";
metricRight = "=l-30";
shapes = (
{
pos = (95,0);
ref = l;
},
{
closed = 1;
nodes = (
(476,425,l),
(415,528,l),
(35,320,l),
(96,217,l)
);
}
);
width = 506;
}
);
metricLeft = l;
metricRight = l;
note = lslash;
unicode = 322;
},
{
glyphname = m;
kernLeft = m;
kernRight = m;
lastChange = "2022-04-09 17:02:39 +0000";
layers = (
{
layerId = m01;
shapes = (
{
closed = 1;
nodes = (
(146,434,l),
(146,65,l),
(34,2,l),
(34,0,l),
(337,0,l),
(337,2,l),
(226,65,l),
(226,315,ls),
(226,416,o),
(301,484,o),
(412,484,cs),
(520,484,o),
(597,417,o),
(597,274,cs),
(597,57,l),
(484,2,l),
(484,0,l),
(787,0,l),
(787,2,l),
(677,57,l),
(677,280,ls),
(677,396,o),
(751,484,o),
(867,484,cs),
(992,484,o),
(1051,412,o),
(1051,269,cs),
(1051,57,l),
(938,2,l),
(938,0,l),
(1241,0,l),
(1241,2,l),
(1131,57,l),
(1131,279,ls),
(1131,422,o),
(1048,515,o),
(882,515,cs),
(758,515,o),
(674,443,o),
(650,340,c),
(668,339,l),
(638,452,o),
(546,515,o),
(425,515,cs),
(319,515,o),
(244,471,o),
(214,399,c),
(226,378,l),
(226,500,l),
(34,500,l),
(34,499,l)
);
}
);
userData = {
assembly = "NPUSHB[ ]	/* 56 values pushed */
50 49 44 35 30 20 15 7 1 9 2 3 1 76 8 1 7 7 20 77 5 1 3 3 0 97 1 1 0 0 26 77 6 4 2 2 2 21 2 78 0 0 0 52 0 51 37 37 38 37 37 36 35 9 7 29 
CALL[ ]	/* CallFunction */";
};
width = 1263;
},
{
layerId = "03DC8633-12B9-4C09-834B-15CC0827035A";
shapes = (
{
closed = 1;
nodes = (
(753,0,l),
(753,226,ls),
(753,418,o),
(647,515,o),
(494,515,cs),
(384,515,o),
(303,474,o),
(238,413,c),
(238,500,l),
(60,500,l),
(60,0,l),
(238,0,l),
(238,304,l),
(287,352,o),
(342,385,o),
(423,385,cs),
(510,385,o),
(575,324,o),
(575,206,cs),
(575,0,l)
);
},
{
closed = 1;
nodes = (
(795,352,o),
(850,385,o),
(931,385,cs),
(1018,385,o),
(1083,324,o),
(1083,206,cs),
(1083,0,l),
(1261,0,l),
(1261,226,ls),
(1261,418,o),
(1155,515,o),
(1002,515,cs),
(892,515,o),
(811,484,o),
(706,377,c),
(746,304,l)
);
}
);
userData = {
assembly = "MPPEM[ ]	/* MeasurePixelPerEm */
PUSHB[ ]	/* 1 value pushed */
12 
LT[ ]	/* LessThan */
IF[ ]	/* If */
NPUSHB[ ]	/* 12 values pushed */
6 1 2 3 0 33 21 2 2 3 2 76 
ELSE[ ]	/* Else */
NPUSHB[ ]	/* 12 values pushed */
6 1 2 3 7 33 21 2 2 3 2 76 
EIF[ ]	/* EndIf */
MPPEM[ ]	/* MeasurePixelPerEm */
PUSHB[ ]	/* 1 value pushed */
12 
LT[ ]	/* LessThan */
IF[ ]	/* If */
NPUSHB[ ]	/* 22 values pushed */
5 1 3 3 0 97 8 7 1 3 0 0 26 77 6 4 2 2 2 18 2 78 
ELSE[ ]	/* Else */
MPPEM[ ]	/* MeasurePixelPerEm */
PUSHB[ ]	/* 1 value pushed */
38 
LT[ ]	/* LessThan */
IF[ ]	/* If */
NPUSHB[ ]	/* 26 values pushed */
8 1 7 7 20 77 5 1 3 3 0 97 1 1 0 0 26 77 6 4 2 2 2 18 2 78 
ELSE[ ]	/* Else */
MPPEM[ ]	/* MeasurePixelPerEm */
PUSHB[ ]	/* 1 value pushed */
42 
LT[ ]	/* LessThan */
IF[ ]	/* If */
NPUSHB[ ]	/* 24 values pushed */
1 1 0 5 1 3 2 0 3 105 8 1 7 7 2 95 6 4 2 2 2 18 2 78 
ELSE[ ]	/* Else */
NPUSHB[ ]	/* 30 values pushed */
8 1 7 3 2 7 87 1 1 0 5 1 3 2 0 3 105 8 1 7 7 2 95 6 4 2 2 7 2 79 
EIF[ ]	/* EndIf */
EIF[ ]	/* EndIf */
EIF[ ]	/* EndIf */
NPUSHB[ ]	/* 16 values pushed */
0 0 0 36 0 36 19 36 20 36 19 35 35 9 7 29 
CALL[ ]	/* CallFunction */";
};
width = 1311;
},
{
associatedMasterId = m01;
layerId = "DE271BD2-C8D7-4730-96E6-3D89F8F439B8";
name = "11 feb 22, 17:13";
shapes = (
{
closed = 1;
nodes = (
(162,434,l),
(162,65,l),
(50,2,l),
(50,0,l),
(353,0,l),
(353,2,l),
(242,65,l),
(242,315,ls),
(242,416.109,o),
(316.638,487,o),
(417,487,cs),
(535.667,487,o),
(613,416.667,o),
(613,274,cs),
(613,57,l),
(500,2,l),
(500,0,l),
(803,0,l),
(803,2,l),
(693,57,l),
(693,274,l),
(693,280,ls),
(693,396.216,o),
(761.651,487,o),
(871,487,cs),
(988.333,487,o),
(1067,411.667,o),
(1067,269,cs),
(1067,57,l),
(954,2,l),
(954,0,l),
(1257,0,l),
(1257,2,l),
(1147,57,l),
(1147,269,ls),
(1147,421.941,o),
(1044,514,o),
(885,514,cs),
(778,514,o),
(707.667,455.667,o),
(677,369,c),
(642.333,463.667,o),
(551,514,o),
(431,514,cs),
(347,514,o),
(278,480.333,o),
(242,423,c),
(242,500,l),
(50,500,l),
(50,499,l)
);
}
);
userData = {
assembly = "NPUSHB[ ]	/* 56 values pushed */
50 49 44 35 30 20 15 7 1 9 2 3 1 76 8 1 7 7 20 77 5 1 3 3 0 97 1 1 0 0 26 77 6 4 2 2 2 21 2 78 0 0 0 52 0 51 37 37 38 37 37 36 35 9 7 29 
CALL[ ]	/* CallFunction */";
};
width = 1302;
},
{
associatedMasterId = "03DC8633-12B9-4C09-834B-15CC0827035A";
layerId = "106C9224-E8BF-4926-8F1C-DB96F61C1CF9";
name = "21 feb 22, 12:02";
shapes = (
{
closed = 1;
nodes = (
(70,0,l),
(248,0,l),
(248,339,l),
(297.333,375,o),
(362.333,390,o),
(453,390,cs),
(543.667,390,o),
(590,366.667,o),
(610,316,cs),
(620,290.667,o),
(625,255.667,o),
(625,211,cs),
(625,0,l),
(803,0,l),
(803,201,ls),
(803,259.667,o),
(794,311,o),
(776,355,c),
(822,378.333,o),
(882.667,390,o),
(958,390,cs),
(1047.333,390,o),
(1092.167,366.833,o),
(1111.5,315.5,cs),
(1121.167,289.833,o),
(1126,255,o),
(1126,211,cs),
(1126,0,l),
(1304,0,l),
(1304,211,ls),
(1304,403,o),
(1196.667,520,o),
(990,520,cs),
(883.333,520,o),
(793.333,481.667,o),
(732,427,c),
(678,489,o),
(597,520,o),
(489,520,cs),
(391.667,520,o),
(310.667,487.667,o),
(248,441,c),
(248,500,l),
(70,500,l),
(70,500,l)
);
}
);
userData = {
assembly = "MPPEM[ ]	/* MeasurePixelPerEm */
PUSHB[ ]	/* 1 value pushed */
12 
LT[ ]	/* LessThan */
IF[ ]	/* If */
NPUSHB[ ]	/* 12 values pushed */
6 1 2 3 0 33 21 2 2 3 2 76 
ELSE[ ]	/* Else */
NPUSHB[ ]	/* 12 values pushed */
6 1 2 3 7 33 21 2 2 3 2 76 
EIF[ ]	/* EndIf */
MPPEM[ ]	/* MeasurePixelPerEm */
PUSHB[ ]	/* 1 value pushed */
12 
LT[ ]	/* LessThan */
IF[ ]	/* If */
NPUSHB[ ]	/* 22 values pushed */
5 1 3 3 0 97 8 7 1 3 0 0 26 77 6 4 2 2 2 18 2 78 
ELSE[ ]	/* Else */
MPPEM[ ]	/* MeasurePixelPerEm */
PUSHB[ ]	/* 1 value pushed */
38 
LT[ ]	/* LessThan */
IF[ ]	/* If */
NPUSHB[ ]	/* 26 values pushed */
8 1 7 7 20 77 5 1 3 3 0 97 1 1 0 0 26 77 6 4 2 2 2 18 2 78 
ELSE[ ]	/* Else */
MPPEM[ ]	/* MeasurePixelPerEm */
PUSHB[ ]	/* 1 value pushed */
42 
LT[ ]	/* LessThan */
IF[ ]	/* If */
NPUSHB[ ]	/* 24 values pushed */
1 1 0 5 1 3 2 0 3 105 8 1 7 7 2 95 6 4 2 2 2 18 2 78 
ELSE[ ]	/* Else */
NPUSHB[ ]	/* 30 values pushed */
8 1 7 3 2 7 87 1 1 0 5 1 3 2 0 3 105 8 1 7 7 2 95 6 4 2 2 7 2 79 
EIF[ ]	/* EndIf */
EIF[ ]	/* EndIf */
EIF[ ]	/* EndIf */
NPUSHB[ ]	/* 16 values pushed */
0 0 0 36 0 36 19 36 20 36 19 35 35 9 7 29 
CALL[ ]	/* CallFunction */";
};
width = 1384;
}
);
metricLeft = "=n";
metricRight = "=n";
note = m;
unicode = 109;
},
{
glyphname = n;
kernLeft = n;
kernRight = n;
lastChange = "2022-04-09 17:02:39 +0000";
layers = (
{
anchors = (
{
name = bottom;
pos = (421,0);
},
{
name = top;
pos = (421,500);
}
);
layerId = m01;
shapes = (
{
closed = 1;
nodes = (
(146,439,l),
(146,65,l),
(34,2,l),
(34,0,l),
(337,0,l),
(337,2,l),
(226,65,l),
(226,299,ls),
(226,393,o),
(311,483,o),
(434,483,cs),
(540,483,o),
(613,415,o),
(613,274,cs),
(613,57,l),
(500,2,l),
(500,0,l),
(803,0,l),
(803,2,l),
(693,57,l),
(693,274,ls),
(693,430,o),
(587,514,o),
(440,514,cs),
(337,514,o),
(251,466,o),
(210,371,c),
(226,353,l),
(226,500,l),
(34,500,l),
(34,498,l)
);
}
);
userData = {
assembly = "NPUSHB[ ]	/* 47 values pushed */
28 27 22 13 8 1 6 1 2 1 76 5 1 4 4 20 77 0 2 2 0 97 0 0 0 26 77 3 1 1 1 21 1 78 0 0 0 30 0 29 37 37 36 35 6 7 26 
CALL[ ]	/* CallFunction */";
};
width = 825;
},
{
anchors = (
{
name = bottom;
pos = (442,0);
},
{
name = top;
pos = (442,500);
}
);
layerId = "03DC8633-12B9-4C09-834B-15CC0827035A";
shapes = (
{
closed = 1;
nodes = (
(60,0,l),
(238,0,l),
(238,304,l),
(287,352,o),
(352,385,o),
(433,385,cs),
(540,385,o),
(605,324,o),
(605,206,cs),
(605,0,l),
(783,0,l),
(783,226,ls),
(783,418,o),
(677,515,o),
(504,515,cs),
(394,515,o),
(303,474,o),
(238,413,c),
(238,500,l),
(60,500,l)
);
}
);
userData = {
assembly = "MPPEM[ ]	/* MeasurePixelPerEm */
PUSHB[ ]	/* 1 value pushed */
12 
LT[ ]	/* LessThan */
IF[ ]	/* If */
NPUSHB[ ]	/* 10 values pushed */
1 1 2 0 16 1 1 2 2 76 
ELSE[ ]	/* Else */
NPUSHB[ ]	/* 10 values pushed */
1 1 2 4 16 1 1 2 2 76 
EIF[ ]	/* EndIf */
MPPEM[ ]	/* MeasurePixelPerEm */
PUSHB[ ]	/* 1 value pushed */
12 
LT[ ]	/* LessThan */
IF[ ]	/* If */
NPUSHB[ ]	/* 19 values pushed */
0 2 2 0 97 5 4 2 0 0 26 77 3 1 1 1 18 1 78 
ELSE[ ]	/* Else */
MPPEM[ ]	/* MeasurePixelPerEm */
PUSHB[ ]	/* 1 value pushed */
38 
LT[ ]	/* LessThan */
IF[ ]	/* If */
NPUSHB[ ]	/* 23 values pushed */
5 1 4 4 20 77 0 2 2 0 97 0 0 0 26 77 3 1 1 1 18 1 78 
ELSE[ ]	/* Else */
MPPEM[ ]	/* MeasurePixelPerEm */
PUSHB[ ]	/* 1 value pushed */
42 
LT[ ]	/* LessThan */
IF[ ]	/* If */
NPUSHB[ ]	/* 21 values pushed */
0 0 0 2 1 0 2 105 5 1 4 4 1 95 3 1 1 1 18 1 78 
ELSE[ ]	/* Else */
NPUSHB[ ]	/* 27 values pushed */
5 1 4 2 1 4 87 0 0 0 2 1 0 2 105 5 1 4 4 1 95 3 1 1 4 1 79 
EIF[ ]	/* EndIf */
EIF[ ]	/* EndIf */
EIF[ ]	/* EndIf */
NPUSHB[ ]	/* 13 values pushed */
0 0 0 19 0 19 19 35 19 35 6 7 26 
CALL[ ]	/* CallFunction */";
};
width = 833;
},
{
anchors = (
{
name = bottom;
pos = (452,0);
},
{
name = top;
pos = (452,500);
}
);
associatedMasterId = "03DC8633-12B9-4C09-834B-15CC0827035A";
layerId = "C7472714-C39F-4613-A42A-807A23781EAA";
name = "21 feb 22, 11:20";
shapes = (
{
closed = 1;
nodes = (
(70,0,l),
(248,0,l),
(248,334,l),
(297,370,o),
(362,385,o),
(453,385,cs),
(590,385,o),
(645,334,o),
(645,206,cs),
(645,0,l),
(823,0,l),
(823,206,ls),
(823,398,o),
(719,515,o),
(519,515,cs),
(406,515,o),
(313,482,o),
(248,433,c),
(248,500,l),
(70,500,l)
);
}
);
userData = {
assembly = "MPPEM[ ]	/* MeasurePixelPerEm */
PUSHB[ ]	/* 1 value pushed */
12 
LT[ ]	/* LessThan */
IF[ ]	/* If */
NPUSHB[ ]	/* 10 values pushed */
1 1 2 0 16 1 1 2 2 76 
ELSE[ ]	/* Else */
NPUSHB[ ]	/* 10 values pushed */
1 1 2 4 16 1 1 2 2 76 
EIF[ ]	/* EndIf */
MPPEM[ ]	/* MeasurePixelPerEm */
PUSHB[ ]	/* 1 value pushed */
12 
LT[ ]	/* LessThan */
IF[ ]	/* If */
NPUSHB[ ]	/* 19 values pushed */
0 2 2 0 97 5 4 2 0 0 26 77 3 1 1 1 18 1 78 
ELSE[ ]	/* Else */
MPPEM[ ]	/* MeasurePixelPerEm */
PUSHB[ ]	/* 1 value pushed */
38 
LT[ ]	/* LessThan */
IF[ ]	/* If */
NPUSHB[ ]	/* 23 values pushed */
5 1 4 4 20 77 0 2 2 0 97 0 0 0 26 77 3 1 1 1 18 1 78 
ELSE[ ]	/* Else */
MPPEM[ ]	/* MeasurePixelPerEm */
PUSHB[ ]	/* 1 value pushed */
42 
LT[ ]	/* LessThan */
IF[ ]	/* If */
NPUSHB[ ]	/* 21 values pushed */
0 0 0 2 1 0 2 105 5 1 4 4 1 95 3 1 1 1 18 1 78 
ELSE[ ]	/* Else */
NPUSHB[ ]	/* 27 values pushed */
5 1 4 2 1 4 87 0 0 0 2 1 0 2 105 5 1 4 4 1 95 3 1 1 4 1 79 
EIF[ ]	/* EndIf */
EIF[ ]	/* EndIf */
EIF[ ]	/* EndIf */
NPUSHB[ ]	/* 13 values pushed */
0 0 0 19 0 19 19 35 19 35 6 7 26 
CALL[ ]	/* CallFunction */";
};
width = 903;
}
);
note = n;
unicode = 110;
},
{
glyphname = o;
kernLeft = o;
kernRight = o;
lastChange = "2022-04-09 17:02:39 +0000";
layers = (
{
anchors = (
{
name = bottom;
pos = (356,0);
},
{
name = center;
pos = (356,250);
},
{
name = ogonek;
pos = (644,10);
},
{
name = top;
pos = (356,500);
},
{
name = topright;
pos = (696,500);
}
);
layerId = m01;
shapes = (
{
closed = 1;
nodes = (
(532,-15,o),
(664,101,o),
(664,250,cs),
(664,415,o),
(508,515,o),
(358,515,cs),
(202,515,o),
(48,411,o),
(48,250,cs),
(48,84,o),
(210,-15,o),
(358,-15,cs)
);
},
{
closed = 1;
nodes = (
(135,390,o),
(229,489,o),
(358,489,cs),
(485,489,o),
(577,390,o),
(577,250,cs),
(577,108,o),
(483,11,o),
(358,11,cs),
(229,11,o),
(135,110,o),
(135,250,cs)
);
}
);
userData = {
assembly = "NPUSHB[ ]	/* 36 values pushed */
0 3 3 0 97 0 0 0 26 77 0 2 2 1 97 4 1 1 1 27 1 78 0 0 28 26 20 18 0 15 0 14 38 5 7 23 
CALL[ ]	/* CallFunction */";
};
width = 712;
},
{
anchors = (
{
name = bottom;
pos = (420,0);
},
{
name = center;
pos = (420,250);
},
{
name = ogonek;
pos = (760,10);
},
{
name = top;
pos = (420,500);
},
{
name = topright;
pos = (825,500);
}
);
layerId = "03DC8633-12B9-4C09-834B-15CC0827035A";
shapes = (
{
closed = 1;
nodes = (
(194,515,o),
(43,403,o),
(43,250,cs),
(43,70,o),
(234,-15,o),
(420,-15,cs),
(595,-15,o),
(797,63,o),
(797,250,cs),
(797,403,o),
(646,515,o),
(420,515,cs)
);
},
{
closed = 1;
nodes = (
(217,341,o),
(281,383,o),
(420,383,cs),
(559,383,o),
(623,341,o),
(623,250,cs),
(623,157,o),
(559,117,o),
(420,117,cs),
(281,117,o),
(217,157,o),
(217,250,cs)
);
}
);
userData = {
assembly = "MPPEM[ ]	/* MeasurePixelPerEm */
PUSHB[ ]	/* 1 value pushed */
38 
LT[ ]	/* LessThan */
IF[ ]	/* If */
NPUSHB[ ]	/* 22 values pushed */
0 3 3 0 97 0 0 0 26 77 0 2 2 1 97 4 1 1 1 27 1 78 
ELSE[ ]	/* Else */
MPPEM[ ]	/* MeasurePixelPerEm */
PUSHB[ ]	/* 1 value pushed */
42 
LT[ ]	/* LessThan */
IF[ ]	/* If */
NPUSHB[ ]	/* 20 values pushed */
0 0 0 3 2 0 3 105 0 2 2 1 97 4 1 1 1 24 1 78 
ELSE[ ]	/* Else */
NPUSHB[ ]	/* 25 values pushed */
0 0 0 3 2 0 3 105 0 2 1 1 2 89 0 2 2 1 97 4 1 1 2 1 81 
EIF[ ]	/* EndIf */
EIF[ ]	/* EndIf */
NPUSHB[ ]	/* 14 values pushed */
0 0 25 23 19 17 0 15 0 14 38 5 7 23 
CALL[ ]	/* CallFunction */";
};
width = 840;
},
{
anchors = (
{
name = bottom;
pos = (361,0);
},
{
name = center;
pos = (361,250);
},
{
name = ogonek;
pos = (649,10);
},
{
name = top;
pos = (361,500);
},
{
name = topright;
pos = (701,500);
}
);
associatedMasterId = m01;
layerId = "8CB58B1B-CE4B-490E-A113-23913E472700";
name = "11 feb 22, 16:57";
shapes = (
{
closed = 1;
nodes = (
(548.699,-14,o),
(678,98.814,o),
(678,250,cs),
(678,352.667,o),
(618,435.833,o),
(522,480.5,cs),
(474,502.833,o),
(421,514,o),
(363,514,cs),
(247,514,o),
(143.333,467,o),
(86,387,cs),
(57.333,347,o),
(43,301.333,o),
(43,250,cs),
(43,147.333,o),
(104.5,64.167,o),
(202.5,19.5,cs),
(251.5,-2.833,o),
(305,-14,o),
(363,-14,cs)
);
},
{
closed = 1;
nodes = (
(128,391.894,o),
(222.385,488,o),
(363,488,cs),
(502.422,488,o),
(593,392.163,o),
(593,250,cs),
(593,106.133,o),
(500.003,12,o),
(363,12,cs),
(222.385,12,o),
(128,108.106,o),
(128,250,cs)
);
}
);
userData = {
assembly = "NPUSHB[ ]	/* 36 values pushed */
0 3 3 0 97 0 0 0 26 77 0 2 2 1 97 4 1 1 1 27 1 78 0 0 28 26 20 18 0 15 0 14 38 5 7 23 
CALL[ ]	/* CallFunction */";
};
width = 721;
}
);
note = o;
unicode = 111;
},
{
glyphname = oslash;
kernLeft = o;
kernRight = o;
lastChange = "2022-04-09 17:02:39 +0000";
layers = (
{
layerId = m01;
shapes = (
{
ref = o;
},
{
closed = 1;
nodes = (
(574,554,l),
(144,-45,l),
(174,-65,l),
(603,534,l)
);
}
);
userData = {
assembly = "NPUSHB[ ]	/* 64 values pushed */
16 1 2 0 43 42 27 26 4 3 2 4 1 2 1 3 3 76 15 14 2 0 74 3 2 2 1 73 0 2 2 0 97 0 0 0 26 77 0 3 3 1 97 4 1 1 1 27 1 78 0 0 36 34 30 28 0 23 0 22 42 5 7 23 
CALL[ ]	/* CallFunction */";
};
width = 740;
},
{
layerId = "03DC8633-12B9-4C09-834B-15CC0827035A";
shapes = (
{
ref = o;
}
);
userData = {
assembly = "PUSHB[ ]	/* 7 values pushed */
34 18 2 3 2 1 76 
MPPEM[ ]	/* MeasurePixelPerEm */
PUSHB[ ]	/* 1 value pushed */
22 
LT[ ]	/* LessThan */
IF[ ]	/* If */
NPUSHB[ ]	/* 21 values pushed */
0 2 2 0 97 0 0 0 26 77 0 3 3 1 97 0 1 1 27 1 78 
ELSE[ ]	/* Else */
MPPEM[ ]	/* MeasurePixelPerEm */
PUSHB[ ]	/* 1 value pushed */
38 
LT[ ]	/* LessThan */
IF[ ]	/* If */
NPUSHB[ ]	/* 19 values pushed */
0 0 0 2 3 0 2 105 0 3 3 1 97 0 1 1 27 1 78 
ELSE[ ]	/* Else */
MPPEM[ ]	/* MeasurePixelPerEm */
PUSHB[ ]	/* 1 value pushed */
42 
LT[ ]	/* LessThan */
IF[ ]	/* If */
NPUSHB[ ]	/* 19 values pushed */
0 0 0 2 3 0 2 105 0 3 3 1 97 0 1 1 24 1 78 
ELSE[ ]	/* Else */
NPUSHB[ ]	/* 24 values pushed */
0 0 0 2 3 0 2 105 0 3 1 1 3 89 0 3 3 1 97 0 1 3 1 81 
EIF[ ]	/* EndIf */
EIF[ ]	/* EndIf */
EIF[ ]	/* EndIf */
PUSHB[ ]	/* 7 values pushed */
36 55 38 34 4 7 26 
CALL[ ]	/* CallFunction */";
};
width = 840;
}
);
note = oslash;
unicode = 248;
},
{
glyphname = oe;
kernLeft = o;
kernRight = e;
lastChange = "2022-04-09 17:03:54 +0000";
layers = (
{
layerId = m01;
shapes = (
{
alignment = -1;
ref = o;
},
{
alignment = -1;
pos = (530,0);
ref = e;
}
);
userData = {
assembly = "NPUSHB[ ]	/* 84 values pushed */
10 1 9 7 34 27 26 3 3 2 2 76 11 1 9 0 2 3 9 2 103 8 1 7 7 0 97 1 1 0 0 26 77 0 3 3 4 97 10 5 2 4 4 27 77 0 6 6 4 97 10 5 2 4 4 27 4 78 54 54 0 0 54 61 54 61 59 57 50 48 42 40 0 37 0 36 39 35 19 36 38 12 7 27 
CALL[ ]	/* CallFunction */";
};
width = 1212;
},
{
anchors = (
{
name = bottom;
pos = (420,0);
},
{
name = center;
pos = (420,250);
},
{
name = ogonek;
pos = (760,10);
},
{
name = top;
pos = (420,500);
},
{
name = topright;
pos = (825,500);
}
);
layerId = "03DC8633-12B9-4C09-834B-15CC0827035A";
shapes = (
{
closed = 1;
nodes = (
(194,515,o),
(43,403,o),
(43,250,cs),
(43,70,o),
(234,-15,o),
(420,-15,cs),
(547,-15,o),
(689,26,o),
(757,121,c),
(756,378,l),
(697,461,o),
(576,515,o),
(420,515,cs)
);
},
{
closed = 1;
nodes = (
(217,341,o),
(281,383,o),
(420,383,cs),
(559,383,o),
(623,341,o),
(623,250,cs),
(623,157,o),
(559,117,o),
(420,117,cs),
(281,117,o),
(217,157,o),
(217,250,cs)
);
},
{
alignment = -1;
pos = (581,0);
ref = e;
}
);
userData = {
assembly = "MPPEM[ ]	/* MeasurePixelPerEm */
PUSHB[ ]	/* 1 value pushed */
22 
LT[ ]	/* LessThan */
IF[ ]	/* If */
NPUSHB[ ]	/* 15 values pushed */
10 1 7 0 24 1 3 2 31 25 2 4 3 3 76 
ELSE[ ]	/* Else */
NPUSHB[ ]	/* 15 values pushed */
10 1 7 0 24 1 3 2 31 25 2 4 6 3 76 
EIF[ ]	/* EndIf */
MPPEM[ ]	/* MeasurePixelPerEm */
PUSHB[ ]	/* 1 value pushed */
22 
LT[ ]	/* LessThan */
IF[ ]	/* If */
NPUSHB[ ]	/* 35 values pushed */
11 1 9 0 2 3 9 2 103 8 1 7 7 0 97 1 1 0 0 26 77 6 1 3 3 4 97 10 5 2 4 4 27 4 78 
ELSE[ ]	/* Else */
MPPEM[ ]	/* MeasurePixelPerEm */
PUSHB[ ]	/* 1 value pushed */
38 
LT[ ]	/* LessThan */
IF[ ]	/* If */
NPUSHB[ ]	/* 44 values pushed */
1 1 0 8 1 7 9 0 7 105 11 1 9 0 2 3 9 2 103 0 3 3 4 97 10 5 2 4 4 27 77 0 6 6 4 97 10 5 2 4 4 27 4 78 
ELSE[ ]	/* Else */
MPPEM[ ]	/* MeasurePixelPerEm */
PUSHB[ ]	/* 1 value pushed */
40 
LT[ ]	/* LessThan */
IF[ ]	/* If */
NPUSHB[ ]	/* 44 values pushed */
1 1 0 8 1 7 9 0 7 105 11 1 9 0 2 3 9 2 103 0 3 3 4 97 10 5 2 4 4 24 77 0 6 6 4 97 10 5 2 4 4 24 4 78 
ELSE[ ]	/* Else */
MPPEM[ ]	/* MeasurePixelPerEm */
PUSHB[ ]	/* 1 value pushed */
42 
LT[ ]	/* LessThan */
IF[ ]	/* If */
NPUSHB[ ]	/* 41 values pushed */
1 1 0 8 1 7 9 0 7 105 11 1 9 0 2 3 9 2 103 0 3 3 4 97 0 4 4 24 77 0 6 6 5 97 10 1 5 5 24 5 78 
ELSE[ ]	/* Else */
NPUSHB[ ]	/* 44 values pushed */
1 1 0 8 1 7 9 0 7 105 11 1 9 0 2 3 9 2 103 0 6 4 5 6 89 0 3 0 4 5 3 4 105 0 6 6 5 97 10 1 5 6 5 81 
EIF[ ]	/* EndIf */
EIF[ ]	/* EndIf */
EIF[ ]	/* EndIf */
EIF[ ]	/* EndIf */
NPUSHB[ ]	/* 26 values pushed */
51 51 0 0 51 57 51 57 55 53 47 45 39 37 0 34 0 33 37 34 19 36 38 12 7 27 
CALL[ ]	/* CallFunction */";
};
width = 1379;
},
{
associatedMasterId = m01;
layerId = "57CA9BFB-05A0-453B-AFE9-80DF6B04763A";
name = "11 feb 22, 19:08";
shapes = (
{
closed = 1;
nodes = (
(453.667,-14,o),
(544,34,o),
(592,110,c),
(644,32.667,o),
(739.667,-14,o),
(845,-14,cs),
(965.051,-14,o),
(1076.605,43.726,o),
(1108,111,c),
(1094,128,l),
(1075.246,74.083,o),
(974.401,27,o),
(876,27,cs),
(739.868,27,o),
(631,129.457,o),
(631,265,c),
(1136,255,l),
(1136,353.667,o),
(1087.833,435.833,o),
(1000.5,480.5,cs),
(956.833,502.833,o),
(905.667,514,o),
(847,514,cs),
(737.667,514,o),
(643.667,466,o),
(593,390,c),
(545,467.333,o),
(453.667,514,o),
(327,514,cs),
(203,514,o),
(106.5,463,o),
(56.5,383,cs),
(31.5,343,o),
(19.333,298.667,o),
(20,250,cs),
(18.667,152.667,o),
(66.833,68.833,o),
(159.5,21.5,cs),
(205.833,-2.167,o),
(261.667,-14,o),
(327,-14,cs)
);
},
{
closed = 1;
nodes = (
(102,398.682,o),
(192.256,500,o),
(327,500,cs),
(463.451,500,o),
(549,398.764,o),
(549,250,cs),
(549,103.089,o),
(461.754,0,o),
(327,0,cs),
(192.889,0,o),
(102,102.841,o),
(102,250,cs)
);
},
{
closed = 1;
nodes = (
(631,442.333,o),
(726.333,500,o),
(845,500,cs),
(945,500,o),
(1007.833,456.5,o),
(1036.5,394.5,cs),
(1050.833,363.5,o),
(1058,330.667,o),
(1058,296,c),
(631,281,l),
(631,281,l)
);
}
);
userData = {
assembly = "NPUSHB[ ]	/* 84 values pushed */
10 1 9 7 34 27 26 3 3 2 2 76 11 1 9 0 2 3 9 2 103 8 1 7 7 0 97 1 1 0 0 26 77 0 3 3 4 97 10 5 2 4 4 27 77 0 6 6 4 97 10 5 2 4 4 27 4 78 54 54 0 0 54 61 54 61 59 57 50 48 42 40 0 37 0 36 39 35 19 36 38 12 7 27 
CALL[ ]	/* CallFunction */";
};
width = 1156;
}
);
metricLeft = o;
metricRight = e;
note = oe;
unicode = 339;
},
{
glyphname = p;
kernLeft = p;
kernRight = p;
lastChange = "2022-04-09 17:02:39 +0000";
layers = (
{
layerId = m01;
shapes = (
{
closed = 1;
nodes = (
(192,48,l),
(235,15,o),
(305,-11,o),
(377,-11,cs),
(526,-11,o),
(675,99,o),
(675,255,cs),
(675,399,o),
(539,514,o),
(382,514,cs),
(294,514,o),
(236,481,o),
(192,444,c),
(192,500,l),
(0,500,l),
(0,498,l),
(112,434,l),
(112,-185,l),
(1,-248,l),
(1,-250,l),
(354,-250,l),
(354,-248,l),
(192,-185,l)
);
},
{
closed = 1;
nodes = (
(192,409,l),
(233,453,o),
(306,488,o),
(370,488,cs),
(500,488,o),
(580,398,o),
(580,255,cs),
(580,112,o),
(491,15,o),
(369,15,cs),
(294,15,o),
(237,46,o),
(192,87,c)
);
}
);
userData = {
assembly = "NPUSHB[ ]	/* 63 values pushed */
38 37 22 15 1 5 4 5 21 16 2 2 1 2 76 6 1 3 3 20 77 0 5 5 0 97 0 0 0 26 77 0 4 4 1 97 0 1 1 27 77 0 2 2 22 2 78 0 0 35 33 28 26 0 24 0 23 36 38 35 7 7 25 
CALL[ ]	/* CallFunction */";
};
width = 723;
},
{
layerId = "03DC8633-12B9-4C09-834B-15CC0827035A";
shapes = (
{
closed = 1;
nodes = (
(238,-250,l),
(238,57,l),
(296,3,o),
(394,-15,o),
(476,-15,cs),
(668,-15,o),
(799,93,o),
(799,251,cs),
(799,409,o),
(667,515,o),
(476,515,cs),
(395,515,o),
(298,487,o),
(238,438,c),
(238,500,l),
(60,500,l),
(60,-250,l)
);
},
{
closed = 1;
nodes = (
(238,334,l),
(300,366,o),
(373,390,o),
(450,390,cs),
(569,390,o),
(625,351,o),
(625,250,cs),
(625,149,o),
(567,110,o),
(450,110,cs),
(373,110,o),
(300,126,o),
(238,162,c)
);
}
);
userData = {
assembly = "MPPEM[ ]	/* MeasurePixelPerEm */
PUSHB[ ]	/* 1 value pushed */
12 
LT[ ]	/* LessThan */
IF[ ]	/* If */
NPUSHB[ ]	/* 15 values pushed */
1 1 5 0 31 30 2 4 5 15 1 1 4 3 76 
ELSE[ ]	/* Else */
NPUSHB[ ]	/* 15 values pushed */
1 1 5 3 31 30 2 4 5 15 1 1 4 3 76 
EIF[ ]	/* EndIf */
MPPEM[ ]	/* MeasurePixelPerEm */
PUSHB[ ]	/* 1 value pushed */
12 
LT[ ]	/* LessThan */
IF[ ]	/* If */
NPUSHB[ ]	/* 35 values pushed */
0 5 5 0 97 6 3 2 0 0 26 77 0 4 4 1 97 0 1 1 27 77 0 2 2 0 97 6 3 2 0 0 26 2 78 
ELSE[ ]	/* Else */
MPPEM[ ]	/* MeasurePixelPerEm */
PUSHB[ ]	/* 1 value pushed */
38 
LT[ ]	/* LessThan */
IF[ ]	/* If */
NPUSHB[ ]	/* 32 values pushed */
0 5 5 0 97 0 0 0 26 77 0 4 4 1 97 0 1 1 27 77 0 2 2 3 95 6 1 3 3 20 2 78 
ELSE[ ]	/* Else */
MPPEM[ ]	/* MeasurePixelPerEm */
PUSHB[ ]	/* 1 value pushed */
42 
LT[ ]	/* LessThan */
IF[ ]	/* If */
NPUSHB[ ]	/* 27 values pushed */
0 0 0 5 4 0 5 105 6 1 3 0 2 3 2 99 0 4 4 1 97 0 1 1 24 1 78 
ELSE[ ]	/* Else */
NPUSHB[ ]	/* 34 values pushed */
6 1 3 5 2 3 87 0 0 0 5 4 0 5 105 0 4 0 1 2 4 1 105 6 1 3 3 2 95 0 2 3 2 79 
EIF[ ]	/* EndIf */
EIF[ ]	/* EndIf */
EIF[ ]	/* EndIf */
NPUSHB[ ]	/* 16 values pushed */
0 0 28 26 22 20 0 18 0 18 19 38 35 7 7 25 
CALL[ ]	/* CallFunction */";
};
width = 842;
},
{
associatedMasterId = m01;
layerId = "A9C5EFB7-06B2-43DA-BD00-BFF1816FA7ED";
name = "17 feb 22, 10:36";
shapes = (
{
closed = 1;
nodes = (
(0,497,l),
(112,433,l),
(112,-136,l),
(0,-198,l),
(0,-200,l),
(353,-200,l),
(353,-198,l),
(192,-136,l),
(192,42,l),
(240,7.333,o),
(306.667,-11,o),
(380,-11,cs),
(547,-11,o),
(700,92,o),
(700,255,cs),
(700,399.36,o),
(564.067,514,o),
(380,514,cs),
(308,514,o),
(240,495.333,o),
(192,462,c),
(192,499,l),
(0,499,l)
);
},
{
closed = 1;
nodes = (
(192,427,l),
(237.333,467,o),
(306.667,488,o),
(380,488,cs),
(528,488,o),
(615,397.667,o),
(615,255,cs),
(615,111.753,o),
(523.166,15,o),
(380,15,cs),
(309.333,15,o),
(237.333,37.667,o),
(192,79,c)
);
}
);
userData = {
assembly = "NPUSHB[ ]	/* 63 values pushed */
38 37 22 15 1 5 4 5 21 16 2 2 1 2 76 6 1 3 3 20 77 0 5 5 0 97 0 0 0 26 77 0 4 4 1 97 0 1 1 27 77 0 2 2 22 2 78 0 0 35 33 28 26 0 24 0 23 36 38 35 7 7 25 
CALL[ ]	/* CallFunction */";
};
width = 758;
},
{
associatedMasterId = "03DC8633-12B9-4C09-834B-15CC0827035A";
layerId = "1436E90D-EB7A-45E4-A8AD-5FC13BCF44F1";
name = "21 feb 22, 12:04";
shapes = (
{
closed = 1;
nodes = (
(70,-249,l),
(249,-250,l),
(249,53,l),
(310.333,10.333,o),
(398,-20,o),
(486,-20,cs),
(697.057,-20,o),
(829,90.945,o),
(829,249,cs),
(829,406.508,o),
(697.69,520,o),
(486,520,cs),
(398,520,o),
(310.333,486.667,o),
(249,440,c),
(249,500,l),
(70,500,l),
(70,500,l)
);
},
{
closed = 1;
nodes = (
(249,339,l),
(303.667,372.333,o),
(385.333,399,o),
(460,399,cs),
(597.333,399,o),
(655,352.333,o),
(655,251,cs),
(655,149.667,o),
(598.667,110,o),
(460,110,cs),
(385.333,110,o),
(303.667,131.333,o),
(249,162,c)
);
}
);
userData = {
assembly = "MPPEM[ ]	/* MeasurePixelPerEm */
PUSHB[ ]	/* 1 value pushed */
12 
LT[ ]	/* LessThan */
IF[ ]	/* If */
NPUSHB[ ]	/* 15 values pushed */
1 1 5 0 31 30 2 4 5 15 1 1 4 3 76 
ELSE[ ]	/* Else */
NPUSHB[ ]	/* 15 values pushed */
1 1 5 3 31 30 2 4 5 15 1 1 4 3 76 
EIF[ ]	/* EndIf */
MPPEM[ ]	/* MeasurePixelPerEm */
PUSHB[ ]	/* 1 value pushed */
12 
LT[ ]	/* LessThan */
IF[ ]	/* If */
NPUSHB[ ]	/* 35 values pushed */
0 5 5 0 97 6 3 2 0 0 26 77 0 4 4 1 97 0 1 1 27 77 0 2 2 0 97 6 3 2 0 0 26 2 78 
ELSE[ ]	/* Else */
MPPEM[ ]	/* MeasurePixelPerEm */
PUSHB[ ]	/* 1 value pushed */
38 
LT[ ]	/* LessThan */
IF[ ]	/* If */
NPUSHB[ ]	/* 32 values pushed */
0 5 5 0 97 0 0 0 26 77 0 4 4 1 97 0 1 1 27 77 0 2 2 3 95 6 1 3 3 20 2 78 
ELSE[ ]	/* Else */
MPPEM[ ]	/* MeasurePixelPerEm */
PUSHB[ ]	/* 1 value pushed */
42 
LT[ ]	/* LessThan */
IF[ ]	/* If */
NPUSHB[ ]	/* 27 values pushed */
0 0 0 5 4 0 5 105 6 1 3 0 2 3 2 99 0 4 4 1 97 0 1 1 24 1 78 
ELSE[ ]	/* Else */
NPUSHB[ ]	/* 34 values pushed */
6 1 3 5 2 3 87 0 0 0 5 4 0 5 105 0 4 0 1 2 4 1 105 6 1 3 3 2 95 0 2 3 2 79 
EIF[ ]	/* EndIf */
EIF[ ]	/* EndIf */
EIF[ ]	/* EndIf */
NPUSHB[ ]	/* 16 values pushed */
0 0 28 26 22 20 0 18 0 18 19 38 35 7 7 25 
CALL[ ]	/* CallFunction */";
};
width = 869;
}
);
metricRight = "=o";
note = p;
unicode = 112;
},
{
glyphname = thorn;
lastChange = "2022-04-09 17:03:58 +0000";
layers = (
{
layerId = m01;
shapes = (
{
closed = 1;
nodes = (
(216,700,l),
(24,700,l),
(24,698,l),
(136,634,l),
(136,-135,l),
(25,-198,l),
(25,-200,l),
(378,-200,l),
(378,-198,l),
(216,-135,l)
);
},
{
closed = 1;
nodes = (
(215,48,l),
(258,15,o),
(328,-11,o),
(400,-11,cs),
(549,-11,o),
(698,99,o),
(698,255,cs),
(698,399,o),
(562,514,o),
(405,514,cs),
(317,514,o),
(259,481,o),
(215,444,c),
(215,409,l),
(256,453,o),
(329,488,o),
(393,488,cs),
(523,488,o),
(603,398,o),
(603,255,cs),
(603,112,o),
(514,15,o),
(392,15,cs),
(317,15,o),
(260,46,o),
(215,87,c)
);
}
);
userData = {
assembly = "NPUSHB[ ]	/* 63 values pushed */
18 2 2 0 3 17 12 2 2 1 2 76 0 0 0 5 4 0 5 106 6 1 3 3 20 77 7 1 4 4 1 97 0 1 1 27 77 0 2 2 22 2 78 22 21 0 0 28 26 21 29 22 29 0 20 0 19 34 36 35 8 7 25 
CALL[ ]	/* CallFunction */";
};
width = 746;
},
{
layerId = "03DC8633-12B9-4C09-834B-15CC0827035A";
shapes = (
{
closed = 1;
nodes = (
(228,-250,l),
(228,57,l),
(286,3,o),
(384,-15,o),
(466,-15,cs),
(658,-15,o),
(789,93,o),
(789,251,cs),
(789,409,o),
(657,515,o),
(466,515,cs),
(385,515,o),
(288,487,o),
(228,438,c),
(228,750,l),
(50,750,l),
(50,-250,l)
);
},
{
closed = 1;
nodes = (
(228,334,l),
(290,366,o),
(363,390,o),
(440,390,cs),
(559,390,o),
(615,351,o),
(615,250,cs),
(615,149,o),
(557,110,o),
(440,110,cs),
(363,110,o),
(290,126,o),
(228,162,c)
);
}
);
width = 832;
}
);
metricLeft = "=h-5";
metricRight = p;
note = thorn;
unicode = 254;
},
{
glyphname = q;
kernLeft = o;
kernRight = q;
lastChange = "2022-04-09 17:02:39 +0000";
layers = (
{
layerId = m01;
shapes = (
{
closed = 1;
nodes = (
(531,85,l),
(486,45,o),
(409,14,o),
(355,14,cs),
(223,14,o),
(143,104,o),
(143,247,cs),
(143,390,o),
(231,486,o),
(353,486,cs),
(428,486,o),
(486,450,o),
(531,409,c)
);
},
{
closed = 1;
nodes = (
(369,-248,l),
(369,-250,l),
(722,-250,l),
(722,-248,l),
(611,-185,l),
(612,515,l),
(611,515,l),
(531,444,l),
(482,481,o),
(433,513,o),
(344,513,cs),
(197,513,o),
(48,403,o),
(48,247,cs),
(48,103,o),
(184,-12,o),
(341,-12,cs),
(425,-12,o),
(483,17,o),
(531,50,c),
(531,-185,l)
);
}
);
userData = {
assembly = "NPUSHB[ ]	/* 52 values pushed */
21 1 4 2 30 29 20 6 4 3 4 5 0 2 0 1 3 76 0 4 4 2 97 0 2 2 26 77 0 3 3 1 97 0 1 1 27 77 0 0 0 22 0 78 37 39 38 37 33 5 7 27 
CALL[ ]	/* CallFunction */";
};
width = 735;
},
{
layerId = "03DC8633-12B9-4C09-834B-15CC0827035A";
shapes = (
{
closed = 1;
nodes = (
(782,506,l),
(674,506,l),
(614,441,l),
(554,486,o),
(457,515,o),
(366,515,cs),
(175,515,o),
(43,409,o),
(43,251,cs),
(43,93,o),
(174,-15,o),
(366,-15,cs),
(458,-15,o),
(546,6,o),
(604,60,c),
(604,-250,l),
(782,-250,l)
);
},
{
closed = 1;
nodes = (
(542,129,o),
(469,110,o),
(392,110,cs),
(275,110,o),
(217,149,o),
(217,250,cs),
(217,351,o),
(273,390,o),
(392,390,cs),
(469,390,o),
(542,369,o),
(604,337,c),
(604,165,l)
);
}
);
userData = {
assembly = "MPPEM[ ]	/* MeasurePixelPerEm */
PUSHB[ ]	/* 1 value pushed */
12 
LT[ ]	/* LessThan */
IF[ ]	/* If */
NPUSHB[ ]	/* 15 values pushed */
16 1 5 2 25 24 2 4 5 2 1 1 4 3 76 
ELSE[ ]	/* Else */
NPUSHB[ ]	/* 15 values pushed */
16 1 5 3 25 24 2 4 5 2 1 1 4 3 76 
EIF[ ]	/* EndIf */
MPPEM[ ]	/* MeasurePixelPerEm */
PUSHB[ ]	/* 1 value pushed */
12 
LT[ ]	/* LessThan */
IF[ ]	/* If */
NPUSHB[ ]	/* 33 values pushed */
0 5 5 2 97 3 1 2 2 26 77 0 4 4 1 97 0 1 1 27 77 0 0 0 2 97 3 1 2 2 26 0 78 
ELSE[ ]	/* Else */
MPPEM[ ]	/* MeasurePixelPerEm */
PUSHB[ ]	/* 1 value pushed */
38 
LT[ ]	/* LessThan */
IF[ ]	/* If */
NPUSHB[ ]	/* 31 values pushed */
0 5 5 2 97 0 2 2 26 77 0 4 4 1 97 0 1 1 27 77 0 0 0 3 95 0 3 3 20 0 78 
ELSE[ ]	/* Else */
MPPEM[ ]	/* MeasurePixelPerEm */
PUSHB[ ]	/* 1 value pushed */
42 
LT[ ]	/* LessThan */
IF[ ]	/* If */
NPUSHB[ ]	/* 26 values pushed */
0 2 0 5 4 2 5 105 0 3 0 0 3 0 99 0 4 4 1 97 0 1 1 24 1 78 
ELSE[ ]	/* Else */
NPUSHB[ ]	/* 32 values pushed */
0 3 5 0 3 87 0 2 0 5 4 2 5 105 0 4 0 1 0 4 1 105 0 3 3 0 95 0 0 3 0 79 
EIF[ ]	/* EndIf */
EIF[ ]	/* EndIf */
EIF[ ]	/* EndIf */
NPUSHB[ ]	/* 9 values pushed */
37 34 19 38 35 16 6 7 28 
CALL[ ]	/* CallFunction */";
};
width = 842;
},
{
associatedMasterId = m01;
layerId = "989BC5B6-980C-460E-A2B7-1856816C664C";
name = "17 feb 22, 10:40";
shapes = (
{
closed = 1;
nodes = (
(663,500,l),
(603,430,l),
(555,483,o),
(470,514,o),
(378,514,cs),
(194,514,o),
(58,399,o),
(58,255,cs),
(58,158,o),
(116,72,o),
(213,25,cs),
(262,1,o),
(317,-11,o),
(378,-11,cs),
(462,-11,o),
(536,13,o),
(585,57,c),
(585,-136,l),
(424,-199,l),
(424,-201,l),
(777,-201,l),
(777,-199,l),
(665,-136,l),
(665,500,l)
);
},
{
closed = 1;
nodes = (
(143,398,o),
(230,488,o),
(378,488,cs),
(462,488,o),
(542,460,o),
(585,409,c),
(585,99,l),
(541,46,o),
(459,15,o),
(378,15,cs),
(235,15,o),
(143,112,o),
(143,255,cs)
);
}
);
userData = {
assembly = "NPUSHB[ ]	/* 52 values pushed */
21 1 4 2 30 29 20 6 4 3 4 5 0 2 0 1 3 76 0 4 4 2 97 0 2 2 26 77 0 3 3 1 97 0 1 1 27 77 0 0 0 22 0 78 37 39 38 37 33 5 7 27 
CALL[ ]	/* CallFunction */";
};
width = 777;
},
{
associatedMasterId = "03DC8633-12B9-4C09-834B-15CC0827035A";
layerId = "AF7CA9D6-5172-4E12-A8FC-3133E69405AA";
name = "21 feb 22, 12:06";
shapes = (
{
closed = 1;
nodes = (
(640,500,l),
(621,439,l),
(561,487,o),
(472,520,o),
(383,520,cs),
(171,520,o),
(40,407,o),
(40,249,cs),
(40,91,o),
(172,-20,o),
(383,-20,cs),
(471,-20,o),
(559,10,o),
(620,53,c),
(620,-270,l),
(799,-269,l),
(799,500,l),
(799,500,l)
);
},
{
closed = 1;
nodes = (
(214,352,o),
(272,399,o),
(409,399,cs),
(484,399,o),
(565,372,o),
(620,339,c),
(620,162,l),
(565,131,o),
(484,110,o),
(409,110,cs),
(270,110,o),
(214,150,o),
(214,251,cs)
);
}
);
userData = {
assembly = "MPPEM[ ]	/* MeasurePixelPerEm */
PUSHB[ ]	/* 1 value pushed */
12 
LT[ ]	/* LessThan */
IF[ ]	/* If */
NPUSHB[ ]	/* 15 values pushed */
16 1 5 2 25 24 2 4 5 2 1 1 4 3 76 
ELSE[ ]	/* Else */
NPUSHB[ ]	/* 15 values pushed */
16 1 5 3 25 24 2 4 5 2 1 1 4 3 76 
EIF[ ]	/* EndIf */
MPPEM[ ]	/* MeasurePixelPerEm */
PUSHB[ ]	/* 1 value pushed */
12 
LT[ ]	/* LessThan */
IF[ ]	/* If */
NPUSHB[ ]	/* 33 values pushed */
0 5 5 2 97 3 1 2 2 26 77 0 4 4 1 97 0 1 1 27 77 0 0 0 2 97 3 1 2 2 26 0 78 
ELSE[ ]	/* Else */
MPPEM[ ]	/* MeasurePixelPerEm */
PUSHB[ ]	/* 1 value pushed */
38 
LT[ ]	/* LessThan */
IF[ ]	/* If */
NPUSHB[ ]	/* 31 values pushed */
0 5 5 2 97 0 2 2 26 77 0 4 4 1 97 0 1 1 27 77 0 0 0 3 95 0 3 3 20 0 78 
ELSE[ ]	/* Else */
MPPEM[ ]	/* MeasurePixelPerEm */
PUSHB[ ]	/* 1 value pushed */
42 
LT[ ]	/* LessThan */
IF[ ]	/* If */
NPUSHB[ ]	/* 26 values pushed */
0 2 0 5 4 2 5 105 0 3 0 0 3 0 99 0 4 4 1 97 0 1 1 24 1 78 
ELSE[ ]	/* Else */
NPUSHB[ ]	/* 32 values pushed */
0 3 5 0 3 87 0 2 0 5 4 2 5 105 0 4 0 1 0 4 1 105 0 3 3 0 95 0 0 3 0 79 
EIF[ ]	/* EndIf */
EIF[ ]	/* EndIf */
EIF[ ]	/* EndIf */
NPUSHB[ ]	/* 9 values pushed */
37 34 19 38 35 16 6 7 28 
CALL[ ]	/* CallFunction */";
};
width = 869;
}
);
metricLeft = "=o";
note = q;
unicode = 113;
},
{
glyphname = r;
kernLeft = r;
kernRight = r;
lastChange = "2022-04-09 17:02:39 +0000";
layers = (
{
anchors = (
{
name = bottom;
pos = (187,0);
},
{
name = top;
pos = (349,500);
}
);
layerId = m01;
shapes = (
{
closed = 1;
nodes = (
(34,498,l),
(146,434,l),
(146,65,l),
(34,2,l),
(34,0,l),
(367,0,l),
(367,2,l),
(226,65,l),
(226,265,ls),
(226,384,o),
(289,483,o),
(380,483,cs),
(464,483,o),
(526,403,o),
(526,304,c),
(528,304,l),
(607,374,l),
(570,469,o),
(493,510,o),
(406,510,cs),
(319,510,o),
(259,468,o),
(226,401,c),
(226,500,l),
(34,500,l)
);
}
);
userData = {
assembly = "NPUSHB[ ]	/* 45 values pushed */
24 23 18 8 7 1 6 2 1 1 76 4 1 3 3 20 77 0 1 1 0 97 0 0 0 26 77 0 2 2 21 2 78 0 0 0 26 0 25 37 39 35 5 7 25 
CALL[ ]	/* CallFunction */";
};
width = 627;
},
{
anchors = (
{
name = bottom;
pos = (147,0);
},
{
name = top;
pos = (287,500);
}
);
layerId = "03DC8633-12B9-4C09-834B-15CC0827035A";
shapes = (
{
closed = 1;
nodes = (
(60,0,l),
(238,0,l),
(238,304,l),
(281,350,o),
(332,375,o),
(403,375,cs),
(470,375,o),
(513,364,o),
(554,336,c),
(554,496,l),
(527,507,o),
(477,515,o),
(442,515,cs),
(361,515,o),
(293,482,o),
(238,427,c),
(238,500,l),
(60,500,l)
);
}
);
userData = {
assembly = "MPPEM[ ]	/* MeasurePixelPerEm */
PUSHB[ ]	/* 1 value pushed */
12 
LT[ ]	/* LessThan */
IF[ ]	/* If */
NPUSHB[ ]	/* 12 values pushed */
6 1 2 1 0 13 7 2 2 1 2 76 
ELSE[ ]	/* Else */
NPUSHB[ ]	/* 15 values pushed */
6 1 3 0 1 1 1 3 13 7 2 2 1 3 76 
EIF[ ]	/* EndIf */
MPPEM[ ]	/* MeasurePixelPerEm */
PUSHB[ ]	/* 1 value pushed */
12 
LT[ ]	/* LessThan */
IF[ ]	/* If */
NPUSHB[ ]	/* 18 values pushed */
0 1 1 0 97 4 3 2 0 0 26 77 0 2 2 18 2 78 
ELSE[ ]	/* Else */
MPPEM[ ]	/* MeasurePixelPerEm */
PUSHB[ ]	/* 1 value pushed */
38 
LT[ ]	/* LessThan */
IF[ ]	/* If */
NPUSHB[ ]	/* 22 values pushed */
4 1 3 3 20 77 0 1 1 0 97 0 0 0 26 77 0 2 2 18 2 78 
ELSE[ ]	/* Else */
MPPEM[ ]	/* MeasurePixelPerEm */
PUSHB[ ]	/* 1 value pushed */
42 
LT[ ]	/* LessThan */
IF[ ]	/* If */
NPUSHB[ ]	/* 20 values pushed */
0 0 0 1 2 0 1 105 4 1 3 3 2 95 0 2 2 18 2 78 
ELSE[ ]	/* Else */
NPUSHB[ ]	/* 26 values pushed */
4 1 3 1 2 3 87 0 0 0 1 2 0 1 105 4 1 3 3 2 95 0 2 3 2 79 
EIF[ ]	/* EndIf */
EIF[ ]	/* EndIf */
EIF[ ]	/* EndIf */
NPUSHB[ ]	/* 12 values pushed */
0 0 0 16 0 16 19 37 34 5 7 25 
CALL[ ]	/* CallFunction */";
};
width = 584;
},
{
anchors = (
{
name = bottom;
pos = (172,0);
},
{
name = top;
pos = (297,500);
}
);
associatedMasterId = "03DC8633-12B9-4C09-834B-15CC0827035A";
layerId = "2901BB81-56D5-4C5F-B737-36488DF38833";
name = "21 feb 22, 11:19";
shapes = (
{
closed = 1;
nodes = (
(70,0,l),
(248,0,l),
(248,329,l),
(291,365,o),
(342.333,380,o),
(413,380,cs),
(479.667,380,o),
(522.667,369,o),
(564,341,c),
(564,501,l),
(537.333,511.667,o),
(483.667,520,o),
(449,520,cs),
(370.333,520,o),
(303,497,o),
(248,452,c),
(248,500,l),
(70,500,l)
);
}
);
userData = {
assembly = "MPPEM[ ]	/* MeasurePixelPerEm */
PUSHB[ ]	/* 1 value pushed */
12 
LT[ ]	/* LessThan */
IF[ ]	/* If */
NPUSHB[ ]	/* 12 values pushed */
6 1 2 1 0 13 7 2 2 1 2 76 
ELSE[ ]	/* Else */
NPUSHB[ ]	/* 15 values pushed */
6 1 3 0 1 1 1 3 13 7 2 2 1 3 76 
EIF[ ]	/* EndIf */
MPPEM[ ]	/* MeasurePixelPerEm */
PUSHB[ ]	/* 1 value pushed */
12 
LT[ ]	/* LessThan */
IF[ ]	/* If */
NPUSHB[ ]	/* 18 values pushed */
0 1 1 0 97 4 3 2 0 0 26 77 0 2 2 18 2 78 
ELSE[ ]	/* Else */
MPPEM[ ]	/* MeasurePixelPerEm */
PUSHB[ ]	/* 1 value pushed */
38 
LT[ ]	/* LessThan */
IF[ ]	/* If */
NPUSHB[ ]	/* 22 values pushed */
4 1 3 3 20 77 0 1 1 0 97 0 0 0 26 77 0 2 2 18 2 78 
ELSE[ ]	/* Else */
MPPEM[ ]	/* MeasurePixelPerEm */
PUSHB[ ]	/* 1 value pushed */
42 
LT[ ]	/* LessThan */
IF[ ]	/* If */
NPUSHB[ ]	/* 20 values pushed */
0 0 0 1 2 0 1 105 4 1 3 3 2 95 0 2 2 18 2 78 
ELSE[ ]	/* Else */
NPUSHB[ ]	/* 26 values pushed */
4 1 3 1 2 3 87 0 0 0 1 2 0 1 105 4 1 3 3 2 95 0 2 3 2 79 
EIF[ ]	/* EndIf */
EIF[ ]	/* EndIf */
EIF[ ]	/* EndIf */
NPUSHB[ ]	/* 12 values pushed */
0 0 0 16 0 16 19 37 34 5 7 25 
CALL[ ]	/* CallFunction */";
};
width = 594;
}
);
metricLeft = "=n";
note = r;
unicode = 114;
},
{
glyphname = s;
kernLeft = s;
kernRight = s;
lastChange = "2022-10-17 21:27:51 +0000";
layers = (
{
anchors = (
{
name = bottom;
pos = (332,0);
},
{
name = top;
pos = (332,500);
}
);
layerId = m01;
shapes = (
{
closed = 1;
nodes = (
(180,41,l),
(243,4,o),
(306,-15,o),
(386,-15,cs),
(506,-15,o),
(609,36,o),
(609,124,cs),
(609,210,o),
(526,246,o),
(441,266,cs),
(312,297,ls),
(242,314,o),
(147,335,o),
(147,402,cs),
(147,451,o),
(191,481,o),
(290,481,cs),
(389,481,o),
(493,436,o),
(590,317,c),
(594,320,l),
(516,500,l),
(455,465,l),
(411,491,o),
(354,513,o),
(262,513,cs),
(143,513,o),
(70,460,o),
(70,391,cs),
(70,304,o),
(154,256,o),
(269,229,cs),
(400,198,ls),
(466,182,o),
(535,170,o),
(535,110,cs),
(535,50,o),
(458,15,o),
(377,15,cs),
(247,15,o),
(122,96,o),
(54,211,c),
(49,209,l),
(125,-4,l),
(124,-4,l)
);
}
);
userData = {
assembly = "NPUSHB[ ]	/* 44 values pushed */
22 1 2 1 41 23 21 3 0 2 42 1 3 0 3 76 0 2 2 1 97 0 1 1 26 77 0 0 0 3 97 0 3 3 27 3 78 42 39 43 36 4 7 26 
CALL[ ]	/* CallFunction */";
};
width = 664;
},
{
anchors = (
{
name = bottom;
pos = (364,0);
},
{
name = top;
pos = (364,500);
}
);
layerId = "03DC8633-12B9-4C09-834B-15CC0827035A";
shapes = (
{
closed = 1;
nodes = (
(577,493,o),
(484,515,o),
(360,515,cs),
(177,515,o),
(55,457,o),
(55,350,cs),
(55,262,o),
(139,211,o),
(295,196,cs),
(432,183,ls),
(515,175,o),
(556,175,o),
(556,146,cs),
(556,104,o),
(457,100,o),
(377,100,cs),
(283,100,o),
(185,123,o),
(100,171,c),
(51,66,l),
(167,11,o),
(271,-15,o),
(388,-15,cs),
(589,-15,o),
(704,43,o),
(704,154,cs),
(704,249,o),
(612,286,o),
(452,301,cs),
(317,314,ls),
(277,318,o),
(208,317,o),
(208,359,cs),
(208,405,o),
(290,403,o),
(341,403,cs),
(397,403,o),
(514,394,o),
(627,355,c),
(669,453,l)
);
}
);
userData = {
assembly = "MPPEM[ ]	/* MeasurePixelPerEm */
PUSHB[ ]	/* 1 value pushed */
47 
LT[ ]	/* LessThan */
IF[ ]	/* If */
NPUSHB[ ]	/* 18 values pushed */
38 1 5 0 37 1 4 5 18 1 2 1 19 1 3 2 4 76 
ELSE[ ]	/* Else */
NPUSHB[ ]	/* 18 values pushed */
38 1 5 0 37 1 1 5 18 1 2 1 19 1 3 2 4 76 
EIF[ ]	/* EndIf */
MPPEM[ ]	/* MeasurePixelPerEm */
PUSHB[ ]	/* 1 value pushed */
38 
LT[ ]	/* LessThan */
IF[ ]	/* If */
NPUSHB[ ]	/* 29 values pushed */
0 4 0 1 2 4 1 103 0 5 5 0 97 0 0 0 26 77 0 2 2 3 97 0 3 3 24 3 78 
ELSE[ ]	/* Else */
MPPEM[ ]	/* MeasurePixelPerEm */
PUSHB[ ]	/* 1 value pushed */
42 
LT[ ]	/* LessThan */
IF[ ]	/* If */
NPUSHB[ ]	/* 27 values pushed */
0 0 0 5 4 0 5 105 0 4 0 1 2 4 1 103 0 2 2 3 97 0 3 3 24 3 78 
ELSE[ ]	/* Else */
MPPEM[ ]	/* MeasurePixelPerEm */
PUSHB[ ]	/* 1 value pushed */
47 
LT[ ]	/* LessThan */
IF[ ]	/* If */
NPUSHB[ ]	/* 32 values pushed */
0 0 0 5 4 0 5 105 0 4 0 1 2 4 1 103 0 2 3 3 2 89 0 2 2 3 97 0 3 2 3 81 
ELSE[ ]	/* Else */
NPUSHB[ ]	/* 32 values pushed */
0 1 5 2 5 1 2 128 0 0 0 5 1 0 5 105 0 2 3 3 2 89 0 2 2 3 97 0 3 2 3 81 
EIF[ ]	/* EndIf */
EIF[ ]	/* EndIf */
EIF[ ]	/* EndIf */
NPUSHB[ ]	/* 9 values pushed */
36 51 37 35 52 33 6 7 28 
CALL[ ]	/* CallFunction */";
};
width = 767;
},
{
anchors = (
{
name = bottom;
pos = (332,0);
},
{
name = top;
pos = (332,500);
}
);
associatedMasterId = m01;
layerId = "70952336-B00B-451C-B1F7-E2886B5F0B10";
name = "11 feb 22, 17:14";
shapes = (
{
closed = 1;
nodes = (
(171,41,l),
(234.333,3.667,o),
(306,-15,o),
(386,-15,cs),
(520.667,-15,o),
(624,36,o),
(624,124,cs),
(624,221.333,o),
(502,270,o),
(322,294,cs),
(245,304,o),
(142,331,o),
(142,398,cs),
(142,447.333,o),
(194,481,o),
(290,481,cs),
(379.333,481,o),
(492.667,439.667,o),
(590,317,c),
(594,320,l),
(512,500,l),
(452,465,l),
(410.667,491.667,o),
(336,513,o),
(252,513,cs),
(121.333,513,o),
(63,456.333,o),
(63,387,cs),
(63,300.333,o),
(162,236,o),
(314,216,cs),
(394,205,o),
(544,191,o),
(544,110,cs),
(544,50,o),
(462.333,15,o),
(357,15,cs),
(239,15,o),
(107,96,o),
(45,211,c),
(40,209,l),
(116,-4,l),
(115,-4,l)
);
}
);
userData = {
assembly = "NPUSHB[ ]	/* 44 values pushed */
22 1 2 1 41 23 21 3 0 2 42 1 3 0 3 76 0 2 2 1 97 0 1 1 26 77 0 0 0 3 97 0 3 3 27 3 78 42 39 43 36 4 7 26 
CALL[ ]	/* CallFunction */";
};
width = 664;
},
{
anchors = (
{
name = bottom;
pos = (404,0);
},
{
name = top;
pos = (404,500);
}
);
associatedMasterId = "03DC8633-12B9-4C09-834B-15CC0827035A";
layerId = "38A4D2C9-2FD5-4A2F-9D11-55C7D77466EF";
name = "21 feb 22, 12:07";
shapes = (
{
closed = 1;
nodes = (
(634,498,o),
(541,520,o),
(397,520,cs),
(203.667,520,o),
(82,458.667,o),
(82,352,cs),
(82,258.667,o),
(173.333,212.333,o),
(348,203,cs),
(465,197,ls),
(561,192.333,o),
(609,174.667,o),
(609,144,cs),
(609,94,o),
(469,94,o),
(419,94,cs),
(305,94,o),
(244,115,o),
(119,168,c),
(70,66,l),
(186,10.667,o),
(305.667,-17,o),
(429,-17,cs),
(637,-17,o),
(767,41.333,o),
(767,152,cs),
(767,246.667,o),
(675.333,298.333,o),
(492,307,cs),
(374,313,ls),
(334,315,o),
(232,316,o),
(232,358,cs),
(232,408,o),
(357,413,o),
(408,413,cs),
(452.667,413,o),
(492,410.167,o),
(526,404.5,cs),
(594,393.167,o),
(613.333,385.333,o),
(684,360,c),
(726,458,l)
);
}
);
userData = {
assembly = "MPPEM[ ]	/* MeasurePixelPerEm */
PUSHB[ ]	/* 1 value pushed */
47 
LT[ ]	/* LessThan */
IF[ ]	/* If */
NPUSHB[ ]	/* 18 values pushed */
38 1 5 0 37 1 4 5 18 1 2 1 19 1 3 2 4 76 
ELSE[ ]	/* Else */
NPUSHB[ ]	/* 18 values pushed */
38 1 5 0 37 1 1 5 18 1 2 1 19 1 3 2 4 76 
EIF[ ]	/* EndIf */
MPPEM[ ]	/* MeasurePixelPerEm */
PUSHB[ ]	/* 1 value pushed */
38 
LT[ ]	/* LessThan */
IF[ ]	/* If */
NPUSHB[ ]	/* 29 values pushed */
0 4 0 1 2 4 1 103 0 5 5 0 97 0 0 0 26 77 0 2 2 3 97 0 3 3 24 3 78 
ELSE[ ]	/* Else */
MPPEM[ ]	/* MeasurePixelPerEm */
PUSHB[ ]	/* 1 value pushed */
42 
LT[ ]	/* LessThan */
IF[ ]	/* If */
NPUSHB[ ]	/* 27 values pushed */
0 0 0 5 4 0 5 105 0 4 0 1 2 4 1 103 0 2 2 3 97 0 3 3 24 3 78 
ELSE[ ]	/* Else */
MPPEM[ ]	/* MeasurePixelPerEm */
PUSHB[ ]	/* 1 value pushed */
47 
LT[ ]	/* LessThan */
IF[ ]	/* If */
NPUSHB[ ]	/* 32 values pushed */
0 0 0 5 4 0 5 105 0 4 0 1 2 4 1 103 0 2 3 3 2 89 0 2 2 3 97 0 3 2 3 81 
ELSE[ ]	/* Else */
NPUSHB[ ]	/* 32 values pushed */
0 1 5 2 5 1 2 128 0 0 0 5 1 0 5 105 0 2 3 3 2 89 0 2 2 3 97 0 3 2 3 81 
EIF[ ]	/* EndIf */
EIF[ ]	/* EndIf */
EIF[ ]	/* EndIf */
NPUSHB[ ]	/* 9 values pushed */
36 51 37 35 52 33 6 7 28 
CALL[ ]	/* CallFunction */";
};
width = 807;
}
);
note = s;
unicode = 115;
},
